<?xml version="1.0" encoding="utf-8" standalone="no"?>
<!DOCTYPE svg PUBLIC "-//W3C//DTD SVG 1.1//EN"
  "http://www.w3.org/Graphics/SVG/1.1/DTD/svg11.dtd">
<svg height="248.518125pt" version="1.1" viewBox="0 0 370.942187 248.518125" width="370.942187pt" xmlns="http://www.w3.org/2000/svg" xmlns:xlink="http://www.w3.org/1999/xlink">
 <metadata>
  <rdf:RDF xmlns:cc="http://creativecommons.org/ns#" xmlns:dc="http://purl.org/dc/elements/1.1/" xmlns:rdf="http://www.w3.org/1999/02/22-rdf-syntax-ns#">
   <cc:Work>
    <dc:type rdf:resource="http://purl.org/dc/dcmitype/StillImage"/>
    <dc:date>2021-07-19T15:46:12.032237</dc:date>
    <dc:format>image/svg+xml</dc:format>
    <dc:creator>
     <cc:Agent>
      <dc:title>Matplotlib v3.4.2, https://matplotlib.org/</dc:title>
     </cc:Agent>
    </dc:creator>
   </cc:Work>
  </rdf:RDF>
 </metadata>
 <defs>
  <style type="text/css">*{stroke-linecap:butt;stroke-linejoin:round;}</style>
 </defs>
 <g id="figure_1">
  <g id="patch_1">
   <path d="M 0 248.518125 
L 370.942187 248.518125 
L 370.942187 0 
L 0 0 
z
" style="fill:none;"/>
  </g>
  <g id="axes_1">
   <g id="patch_2">
    <path d="M 28.942188 224.64 
L 363.742188 224.64 
L 363.742188 7.2 
L 28.942188 7.2 
z
" style="fill:#ffffff;"/>
   </g>
   <g id="matplotlib.axis_1">
    <g id="xtick_1">
     <g id="line2d_1">
      <defs>
       <path d="M 0 0 
L 0 3.5 
" id="mca08a8d642" style="stroke:#000000;stroke-width:0.8;"/>
      </defs>
      <g>
       <use style="stroke:#000000;stroke-width:0.8;" x="44.160369" xlink:href="#mca08a8d642" y="224.64"/>
      </g>
     </g>
     <g id="text_1">
      <!-- 0 -->
      <g transform="translate(40.979119 239.238438)scale(0.1 -0.1)">
       <defs>
        <path d="M 2034 4250 
Q 1547 4250 1301 3770 
Q 1056 3291 1056 2328 
Q 1056 1369 1301 889 
Q 1547 409 2034 409 
Q 2525 409 2770 889 
Q 3016 1369 3016 2328 
Q 3016 3291 2770 3770 
Q 2525 4250 2034 4250 
z
M 2034 4750 
Q 2819 4750 3233 4129 
Q 3647 3509 3647 2328 
Q 3647 1150 3233 529 
Q 2819 -91 2034 -91 
Q 1250 -91 836 529 
Q 422 1150 422 2328 
Q 422 3509 836 4129 
Q 1250 4750 2034 4750 
z
" id="DejaVuSans-30" transform="scale(0.015625)"/>
       </defs>
       <use xlink:href="#DejaVuSans-30"/>
      </g>
     </g>
    </g>
    <g id="xtick_2">
     <g id="line2d_2">
      <g>
       <use style="stroke:#000000;stroke-width:0.8;" x="103.664502" xlink:href="#mca08a8d642" y="224.64"/>
      </g>
     </g>
     <g id="text_2">
      <!-- 200 -->
      <g transform="translate(94.120752 239.238438)scale(0.1 -0.1)">
       <defs>
        <path d="M 1228 531 
L 3431 531 
L 3431 0 
L 469 0 
L 469 531 
Q 828 903 1448 1529 
Q 2069 2156 2228 2338 
Q 2531 2678 2651 2914 
Q 2772 3150 2772 3378 
Q 2772 3750 2511 3984 
Q 2250 4219 1831 4219 
Q 1534 4219 1204 4116 
Q 875 4013 500 3803 
L 500 4441 
Q 881 4594 1212 4672 
Q 1544 4750 1819 4750 
Q 2544 4750 2975 4387 
Q 3406 4025 3406 3419 
Q 3406 3131 3298 2873 
Q 3191 2616 2906 2266 
Q 2828 2175 2409 1742 
Q 1991 1309 1228 531 
z
" id="DejaVuSans-32" transform="scale(0.015625)"/>
       </defs>
       <use xlink:href="#DejaVuSans-32"/>
       <use x="63.623047" xlink:href="#DejaVuSans-30"/>
       <use x="127.246094" xlink:href="#DejaVuSans-30"/>
      </g>
     </g>
    </g>
    <g id="xtick_3">
     <g id="line2d_3">
      <g>
       <use style="stroke:#000000;stroke-width:0.8;" x="163.168634" xlink:href="#mca08a8d642" y="224.64"/>
      </g>
     </g>
     <g id="text_3">
      <!-- 400 -->
      <g transform="translate(153.624884 239.238438)scale(0.1 -0.1)">
       <defs>
        <path d="M 2419 4116 
L 825 1625 
L 2419 1625 
L 2419 4116 
z
M 2253 4666 
L 3047 4666 
L 3047 1625 
L 3713 1625 
L 3713 1100 
L 3047 1100 
L 3047 0 
L 2419 0 
L 2419 1100 
L 313 1100 
L 313 1709 
L 2253 4666 
z
" id="DejaVuSans-34" transform="scale(0.015625)"/>
       </defs>
       <use xlink:href="#DejaVuSans-34"/>
       <use x="63.623047" xlink:href="#DejaVuSans-30"/>
       <use x="127.246094" xlink:href="#DejaVuSans-30"/>
      </g>
     </g>
    </g>
    <g id="xtick_4">
     <g id="line2d_4">
      <g>
       <use style="stroke:#000000;stroke-width:0.8;" x="222.672766" xlink:href="#mca08a8d642" y="224.64"/>
      </g>
     </g>
     <g id="text_4">
      <!-- 600 -->
      <g transform="translate(213.129016 239.238438)scale(0.1 -0.1)">
       <defs>
        <path d="M 2113 2584 
Q 1688 2584 1439 2293 
Q 1191 2003 1191 1497 
Q 1191 994 1439 701 
Q 1688 409 2113 409 
Q 2538 409 2786 701 
Q 3034 994 3034 1497 
Q 3034 2003 2786 2293 
Q 2538 2584 2113 2584 
z
M 3366 4563 
L 3366 3988 
Q 3128 4100 2886 4159 
Q 2644 4219 2406 4219 
Q 1781 4219 1451 3797 
Q 1122 3375 1075 2522 
Q 1259 2794 1537 2939 
Q 1816 3084 2150 3084 
Q 2853 3084 3261 2657 
Q 3669 2231 3669 1497 
Q 3669 778 3244 343 
Q 2819 -91 2113 -91 
Q 1303 -91 875 529 
Q 447 1150 447 2328 
Q 447 3434 972 4092 
Q 1497 4750 2381 4750 
Q 2619 4750 2861 4703 
Q 3103 4656 3366 4563 
z
" id="DejaVuSans-36" transform="scale(0.015625)"/>
       </defs>
       <use xlink:href="#DejaVuSans-36"/>
       <use x="63.623047" xlink:href="#DejaVuSans-30"/>
       <use x="127.246094" xlink:href="#DejaVuSans-30"/>
      </g>
     </g>
    </g>
    <g id="xtick_5">
     <g id="line2d_5">
      <g>
       <use style="stroke:#000000;stroke-width:0.8;" x="282.176898" xlink:href="#mca08a8d642" y="224.64"/>
      </g>
     </g>
     <g id="text_5">
      <!-- 800 -->
      <g transform="translate(272.633148 239.238438)scale(0.1 -0.1)">
       <defs>
        <path d="M 2034 2216 
Q 1584 2216 1326 1975 
Q 1069 1734 1069 1313 
Q 1069 891 1326 650 
Q 1584 409 2034 409 
Q 2484 409 2743 651 
Q 3003 894 3003 1313 
Q 3003 1734 2745 1975 
Q 2488 2216 2034 2216 
z
M 1403 2484 
Q 997 2584 770 2862 
Q 544 3141 544 3541 
Q 544 4100 942 4425 
Q 1341 4750 2034 4750 
Q 2731 4750 3128 4425 
Q 3525 4100 3525 3541 
Q 3525 3141 3298 2862 
Q 3072 2584 2669 2484 
Q 3125 2378 3379 2068 
Q 3634 1759 3634 1313 
Q 3634 634 3220 271 
Q 2806 -91 2034 -91 
Q 1263 -91 848 271 
Q 434 634 434 1313 
Q 434 1759 690 2068 
Q 947 2378 1403 2484 
z
M 1172 3481 
Q 1172 3119 1398 2916 
Q 1625 2713 2034 2713 
Q 2441 2713 2670 2916 
Q 2900 3119 2900 3481 
Q 2900 3844 2670 4047 
Q 2441 4250 2034 4250 
Q 1625 4250 1398 4047 
Q 1172 3844 1172 3481 
z
" id="DejaVuSans-38" transform="scale(0.015625)"/>
       </defs>
       <use xlink:href="#DejaVuSans-38"/>
       <use x="63.623047" xlink:href="#DejaVuSans-30"/>
       <use x="127.246094" xlink:href="#DejaVuSans-30"/>
      </g>
     </g>
    </g>
    <g id="xtick_6">
     <g id="line2d_6">
      <g>
       <use style="stroke:#000000;stroke-width:0.8;" x="341.68103" xlink:href="#mca08a8d642" y="224.64"/>
      </g>
     </g>
     <g id="text_6">
      <!-- 1000 -->
      <g transform="translate(328.95603 239.238438)scale(0.1 -0.1)">
       <defs>
        <path d="M 794 531 
L 1825 531 
L 1825 4091 
L 703 3866 
L 703 4441 
L 1819 4666 
L 2450 4666 
L 2450 531 
L 3481 531 
L 3481 0 
L 794 0 
L 794 531 
z
" id="DejaVuSans-31" transform="scale(0.015625)"/>
       </defs>
       <use xlink:href="#DejaVuSans-31"/>
       <use x="63.623047" xlink:href="#DejaVuSans-30"/>
       <use x="127.246094" xlink:href="#DejaVuSans-30"/>
       <use x="190.869141" xlink:href="#DejaVuSans-30"/>
      </g>
     </g>
    </g>
   </g>
   <g id="matplotlib.axis_2">
    <g id="ytick_1">
     <g id="line2d_7">
      <defs>
       <path d="M 0 0 
L -3.5 0 
" id="m546a5d9bdf" style="stroke:#000000;stroke-width:0.8;"/>
      </defs>
      <g>
       <use style="stroke:#000000;stroke-width:0.8;" x="28.942188" xlink:href="#m546a5d9bdf" y="204.138633"/>
      </g>
     </g>
     <g id="text_7">
      <!-- −2 -->
      <g transform="translate(7.2 207.937852)scale(0.1 -0.1)">
       <defs>
        <path d="M 678 2272 
L 4684 2272 
L 4684 1741 
L 678 1741 
L 678 2272 
z
" id="DejaVuSans-2212" transform="scale(0.015625)"/>
       </defs>
       <use xlink:href="#DejaVuSans-2212"/>
       <use x="83.789062" xlink:href="#DejaVuSans-32"/>
      </g>
     </g>
    </g>
    <g id="ytick_2">
     <g id="line2d_8">
      <g>
       <use style="stroke:#000000;stroke-width:0.8;" x="28.942188" xlink:href="#m546a5d9bdf" y="166.115983"/>
      </g>
     </g>
     <g id="text_8">
      <!-- −1 -->
      <g transform="translate(7.2 169.915202)scale(0.1 -0.1)">
       <use xlink:href="#DejaVuSans-2212"/>
       <use x="83.789062" xlink:href="#DejaVuSans-31"/>
      </g>
     </g>
    </g>
    <g id="ytick_3">
     <g id="line2d_9">
      <g>
       <use style="stroke:#000000;stroke-width:0.8;" x="28.942188" xlink:href="#m546a5d9bdf" y="128.093333"/>
      </g>
     </g>
     <g id="text_9">
      <!-- 0 -->
      <g transform="translate(15.579688 131.892552)scale(0.1 -0.1)">
       <use xlink:href="#DejaVuSans-30"/>
      </g>
     </g>
    </g>
    <g id="ytick_4">
     <g id="line2d_10">
      <g>
       <use style="stroke:#000000;stroke-width:0.8;" x="28.942188" xlink:href="#m546a5d9bdf" y="90.070683"/>
      </g>
     </g>
     <g id="text_10">
      <!-- 1 -->
      <g transform="translate(15.579688 93.869902)scale(0.1 -0.1)">
       <use xlink:href="#DejaVuSans-31"/>
      </g>
     </g>
    </g>
    <g id="ytick_5">
     <g id="line2d_11">
      <g>
       <use style="stroke:#000000;stroke-width:0.8;" x="28.942188" xlink:href="#m546a5d9bdf" y="52.048033"/>
      </g>
     </g>
     <g id="text_11">
      <!-- 2 -->
      <g transform="translate(15.579688 55.847252)scale(0.1 -0.1)">
       <use xlink:href="#DejaVuSans-32"/>
      </g>
     </g>
    </g>
    <g id="ytick_6">
     <g id="line2d_12">
      <g>
       <use style="stroke:#000000;stroke-width:0.8;" x="28.942188" xlink:href="#m546a5d9bdf" y="14.025383"/>
      </g>
     </g>
     <g id="text_12">
      <!-- 3 -->
      <g transform="translate(15.579688 17.824602)scale(0.1 -0.1)">
       <defs>
        <path d="M 2597 2516 
Q 3050 2419 3304 2112 
Q 3559 1806 3559 1356 
Q 3559 666 3084 287 
Q 2609 -91 1734 -91 
Q 1441 -91 1130 -33 
Q 819 25 488 141 
L 488 750 
Q 750 597 1062 519 
Q 1375 441 1716 441 
Q 2309 441 2620 675 
Q 2931 909 2931 1356 
Q 2931 1769 2642 2001 
Q 2353 2234 1838 2234 
L 1294 2234 
L 1294 2753 
L 1863 2753 
Q 2328 2753 2575 2939 
Q 2822 3125 2822 3475 
Q 2822 3834 2567 4026 
Q 2313 4219 1838 4219 
Q 1578 4219 1281 4162 
Q 984 4106 628 3988 
L 628 4550 
Q 988 4650 1302 4700 
Q 1616 4750 1894 4750 
Q 2613 4750 3031 4423 
Q 3450 4097 3450 3541 
Q 3450 3153 3228 2886 
Q 3006 2619 2597 2516 
z
" id="DejaVuSans-33" transform="scale(0.015625)"/>
       </defs>
       <use xlink:href="#DejaVuSans-33"/>
      </g>
     </g>
    </g>
   </g>
   <g id="line2d_13">
    <path clip-path="url(#p0c147d1cd3)" d="M 44.160369 128.093333 
L 348.524006 128.093333 
L 348.524006 128.093333 
" style="fill:none;stroke:#1f77b4;stroke-linecap:square;stroke-width:1.5;"/>
   </g>
   <g id="line2d_14">
    <path clip-path="url(#p0c147d1cd3)" d="M 44.160369 128.093333 
L 44.755411 128.093333 
L 48.325659 85.595522 
L 50.408303 63.534546 
L 51.895907 49.847094 
L 53.38351 38.279818 
L 54.573592 30.731065 
L 55.763675 24.801349 
L 56.656237 21.451138 
L 57.548799 19.052285 
L 58.14384 17.980476 
L 58.738882 17.326333 
L 59.333923 17.083636 
L 59.928964 17.243875 
L 60.524006 17.796423 
L 61.119047 18.7286 
L 61.714088 20.025772 
L 62.60665 22.619474 
L 63.499212 25.934593 
L 64.689295 31.35542 
L 66.176898 39.481025 
L 67.962022 50.700393 
L 71.234749 73.232461 
L 73.912435 91.180798 
L 75.697559 101.887126 
L 77.185163 109.679528 
L 78.672766 116.266519 
L 79.862849 120.600165 
L 81.052931 124.078475 
L 81.945493 126.128413 
L 82.838055 127.711184 
L 83.730617 128.84495 
L 84.623179 129.554053 
L 85.218221 129.805363 
L 85.813262 129.891044 
L 86.705824 129.732757 
L 87.598386 129.265193 
L 88.490948 128.529782 
L 89.68103 127.206873 
L 91.168634 125.147662 
L 93.548799 121.371592 
L 96.524006 116.747061 
L 98.30913 114.415686 
L 99.796733 112.848577 
L 100.986816 111.866127 
L 102.176898 111.126885 
L 103.366981 110.620032 
L 104.557064 110.324714 
L 106.044667 110.208747 
L 107.829791 110.35116 
L 110.209956 110.815459 
L 115.267807 111.859442 
L 120.623179 112.795111 
L 122.110783 113.33531 
L 123.300865 113.979212 
L 124.490948 114.873659 
L 125.68103 116.076449 
L 126.871113 117.642822 
L 128.061196 119.622769 
L 129.251278 122.058449 
L 130.441361 124.981752 
L 131.928964 129.349999 
L 133.416568 134.516223 
L 134.904171 140.448704 
L 136.689295 148.474897 
L 139.06946 160.370376 
L 145.614915 194.133957 
L 147.400039 201.748261 
L 148.590121 206.038086 
L 149.780204 209.570673 
L 150.672766 211.664478 
L 151.565328 213.242122 
L 152.45789 214.273273 
L 153.052931 214.644706 
L 153.647973 214.756364 
L 154.243014 214.603731 
L 154.838055 214.183518 
L 155.433097 213.493793 
L 156.028138 212.533949 
L 156.9207 210.589731 
L 157.813262 208.047983 
L 159.003345 203.756485 
L 160.193427 198.48427 
L 161.68103 190.629378 
L 163.168634 181.543729 
L 163.466154 179.597983 
L 163.763675 128.093333 
L 348.524006 128.093333 
L 348.524006 128.093333 
" style="fill:none;stroke:#ff7f0e;stroke-linecap:square;stroke-width:1.5;"/>
   </g>
   <g id="line2d_15">
    <path clip-path="url(#p0c147d1cd3)" d="M 44.160369 128.093333 
L 44.755411 128.093333 
L 48.325659 85.595522 
L 50.408303 63.534546 
L 51.895907 49.847094 
L 53.38351 38.279818 
L 54.573592 30.731065 
L 55.763675 24.801349 
L 56.656237 21.451138 
L 57.548799 19.052285 
L 58.14384 17.980476 
L 58.738882 17.326333 
L 59.333923 17.083636 
L 59.928964 17.243875 
L 60.524006 17.796423 
L 61.119047 18.7286 
L 61.714088 20.025772 
L 62.60665 22.619474 
L 63.499212 25.934593 
L 64.689295 31.35542 
L 66.176898 39.481025 
L 67.962022 50.700393 
L 71.234749 73.232461 
L 73.912435 91.180798 
L 75.697559 101.887126 
L 77.185163 109.679528 
L 78.672766 116.266519 
L 79.862849 120.600165 
L 81.052931 124.078475 
L 81.945493 126.128413 
L 82.838055 127.711184 
L 83.730617 128.84495 
L 84.623179 129.554053 
L 85.218221 129.805363 
L 85.813262 129.891044 
L 86.705824 129.732757 
L 87.598386 129.265193 
L 88.490948 128.529782 
L 89.68103 127.206873 
L 91.168634 125.147662 
L 93.548799 121.371592 
L 96.524006 116.747061 
L 98.30913 114.415686 
L 99.796733 112.848577 
L 100.986816 111.866127 
L 102.176898 111.126885 
L 103.366981 110.620032 
L 104.557064 110.324714 
L 106.044667 110.208747 
L 107.829791 110.35116 
L 110.209956 110.815459 
L 115.267807 111.859442 
L 118.243014 112.297889 
L 118.540535 128.093333 
L 122.110783 85.595522 
L 124.193427 63.534546 
L 125.68103 49.847094 
L 127.168634 38.279818 
L 128.358716 30.731065 
L 129.548799 24.801349 
L 130.441361 21.451138 
L 131.333923 19.052285 
L 131.928964 17.980476 
L 132.524006 17.326333 
L 133.119047 17.083636 
L 133.714088 17.243875 
L 134.30913 17.796423 
L 134.904171 18.7286 
L 135.499212 20.025772 
L 136.391774 22.619474 
L 137.284336 25.934593 
L 138.474419 31.35542 
L 139.962022 39.481025 
L 141.747146 50.700393 
L 145.019873 73.232461 
L 147.697559 91.180798 
L 149.482683 101.887126 
L 150.970287 109.679528 
L 152.45789 116.266519 
L 153.647973 120.600165 
L 154.838055 124.078475 
L 155.730617 126.128413 
L 156.623179 127.711184 
L 157.515741 128.84495 
L 158.408303 129.554053 
L 159.003345 129.805363 
L 159.598386 129.891044 
L 160.490948 129.732757 
L 161.38351 129.265193 
L 162.276072 128.529782 
L 163.466154 127.206873 
L 164.953758 125.147662 
L 167.333923 121.371592 
L 170.30913 116.747061 
L 172.094254 114.415686 
L 173.581857 112.848577 
L 174.77194 111.866127 
L 175.962022 111.126885 
L 177.152105 110.620032 
L 178.342187 110.324714 
L 179.829791 110.208747 
L 181.614915 110.35116 
L 183.99508 110.815459 
L 189.052931 111.859442 
L 194.408303 112.795111 
L 195.895907 113.33531 
L 197.085989 113.979212 
L 198.276072 114.873659 
L 199.466154 116.076449 
L 200.656237 117.642822 
L 201.84632 119.622769 
L 203.036402 122.058449 
L 204.226485 124.981752 
L 205.714088 129.349999 
L 207.201692 134.516223 
L 208.689295 140.448704 
L 210.474419 148.474897 
L 212.854584 160.370376 
L 219.400039 194.133957 
L 221.185163 201.748261 
L 222.375245 206.038086 
L 223.565328 209.570673 
L 224.45789 211.664478 
L 225.350452 213.242122 
L 226.243014 214.273273 
L 226.838055 214.644706 
L 227.433097 214.756364 
L 228.028138 214.603731 
L 228.623179 214.183518 
L 229.218221 213.493793 
L 229.813262 212.533949 
L 230.705824 210.589731 
L 231.598386 208.047983 
L 232.788468 203.756485 
L 233.978551 198.48427 
L 235.466154 190.629378 
L 236.953758 181.543729 
L 237.251278 179.597983 
L 237.548799 128.093333 
L 348.524006 128.093333 
L 348.524006 128.093333 
" style="fill:none;stroke:#2ca02c;stroke-linecap:square;stroke-width:1.5;"/>
   </g>
   <g id="patch_3">
    <path d="M 28.942188 224.64 
L 28.942188 7.2 
" style="fill:none;stroke:#000000;stroke-linecap:square;stroke-linejoin:miter;stroke-width:0.8;"/>
   </g>
   <g id="patch_4">
    <path d="M 363.742188 224.64 
L 363.742188 7.2 
" style="fill:none;stroke:#000000;stroke-linecap:square;stroke-linejoin:miter;stroke-width:0.8;"/>
   </g>
   <g id="patch_5">
    <path d="M 28.942188 224.64 
L 363.742188 224.64 
" style="fill:none;stroke:#000000;stroke-linecap:square;stroke-linejoin:miter;stroke-width:0.8;"/>
   </g>
   <g id="patch_6">
    <path d="M 28.942188 7.2 
L 363.742188 7.2 
" style="fill:none;stroke:#000000;stroke-linecap:square;stroke-linejoin:miter;stroke-width:0.8;"/>
   </g>
  </g>
 </g>
 <defs>
  <clipPath id="p0c147d1cd3">
   <rect height="217.44" width="334.8" x="28.942188" y="7.2"/>
  </clipPath>
 </defs>
</svg>
