<?xml version="1.0" encoding="utf-8" standalone="no"?>
<!DOCTYPE svg PUBLIC "-//W3C//DTD SVG 1.1//EN"
  "http://www.w3.org/Graphics/SVG/1.1/DTD/svg11.dtd">
<svg height="248.518125pt" version="1.1" viewBox="0 0 370.942187 248.518125" width="370.942187pt" xmlns="http://www.w3.org/2000/svg" xmlns:xlink="http://www.w3.org/1999/xlink">
 <metadata>
  <rdf:RDF xmlns:cc="http://creativecommons.org/ns#" xmlns:dc="http://purl.org/dc/elements/1.1/" xmlns:rdf="http://www.w3.org/1999/02/22-rdf-syntax-ns#">
   <cc:Work>
    <dc:type rdf:resource="http://purl.org/dc/dcmitype/StillImage"/>
    <dc:date>2021-07-18T13:57:59.234035</dc:date>
    <dc:format>image/svg+xml</dc:format>
    <dc:creator>
     <cc:Agent>
      <dc:title>Matplotlib v3.4.2, https://matplotlib.org/</dc:title>
     </cc:Agent>
    </dc:creator>
   </cc:Work>
  </rdf:RDF>
 </metadata>
 <defs>
  <style type="text/css">*{stroke-linecap:butt;stroke-linejoin:round;}</style>
 </defs>
 <g id="figure_1">
  <g id="patch_1">
   <path d="M 0 248.518125 
L 370.942187 248.518125 
L 370.942187 0 
L 0 0 
z
" style="fill:none;"/>
  </g>
  <g id="axes_1">
   <g id="patch_2">
    <path d="M 28.942188 224.64 
L 363.742188 224.64 
L 363.742188 7.2 
L 28.942188 7.2 
z
" style="fill:#ffffff;"/>
   </g>
   <g id="matplotlib.axis_1">
    <g id="xtick_1">
     <g id="line2d_1">
      <defs>
       <path d="M 0 0 
L 0 3.5 
" id="m59b54090b9" style="stroke:#000000;stroke-width:0.8;"/>
      </defs>
      <g>
       <use style="stroke:#000000;stroke-width:0.8;" x="44.160369" xlink:href="#m59b54090b9" y="224.64"/>
      </g>
     </g>
     <g id="text_1">
      <!-- 0 -->
      <g transform="translate(40.979119 239.238437)scale(0.1 -0.1)">
       <defs>
        <path d="M 2034 4250 
Q 1547 4250 1301 3770 
Q 1056 3291 1056 2328 
Q 1056 1369 1301 889 
Q 1547 409 2034 409 
Q 2525 409 2770 889 
Q 3016 1369 3016 2328 
Q 3016 3291 2770 3770 
Q 2525 4250 2034 4250 
z
M 2034 4750 
Q 2819 4750 3233 4129 
Q 3647 3509 3647 2328 
Q 3647 1150 3233 529 
Q 2819 -91 2034 -91 
Q 1250 -91 836 529 
Q 422 1150 422 2328 
Q 422 3509 836 4129 
Q 1250 4750 2034 4750 
z
" id="DejaVuSans-30" transform="scale(0.015625)"/>
       </defs>
       <use xlink:href="#DejaVuSans-30"/>
      </g>
     </g>
    </g>
    <g id="xtick_2">
     <g id="line2d_2">
      <g>
       <use style="stroke:#000000;stroke-width:0.8;" x="103.664502" xlink:href="#m59b54090b9" y="224.64"/>
      </g>
     </g>
     <g id="text_2">
      <!-- 200 -->
      <g transform="translate(94.120752 239.238437)scale(0.1 -0.1)">
       <defs>
        <path d="M 1228 531 
L 3431 531 
L 3431 0 
L 469 0 
L 469 531 
Q 828 903 1448 1529 
Q 2069 2156 2228 2338 
Q 2531 2678 2651 2914 
Q 2772 3150 2772 3378 
Q 2772 3750 2511 3984 
Q 2250 4219 1831 4219 
Q 1534 4219 1204 4116 
Q 875 4013 500 3803 
L 500 4441 
Q 881 4594 1212 4672 
Q 1544 4750 1819 4750 
Q 2544 4750 2975 4387 
Q 3406 4025 3406 3419 
Q 3406 3131 3298 2873 
Q 3191 2616 2906 2266 
Q 2828 2175 2409 1742 
Q 1991 1309 1228 531 
z
" id="DejaVuSans-32" transform="scale(0.015625)"/>
       </defs>
       <use xlink:href="#DejaVuSans-32"/>
       <use x="63.623047" xlink:href="#DejaVuSans-30"/>
       <use x="127.246094" xlink:href="#DejaVuSans-30"/>
      </g>
     </g>
    </g>
    <g id="xtick_3">
     <g id="line2d_3">
      <g>
       <use style="stroke:#000000;stroke-width:0.8;" x="163.168634" xlink:href="#m59b54090b9" y="224.64"/>
      </g>
     </g>
     <g id="text_3">
      <!-- 400 -->
      <g transform="translate(153.624884 239.238437)scale(0.1 -0.1)">
       <defs>
        <path d="M 2419 4116 
L 825 1625 
L 2419 1625 
L 2419 4116 
z
M 2253 4666 
L 3047 4666 
L 3047 1625 
L 3713 1625 
L 3713 1100 
L 3047 1100 
L 3047 0 
L 2419 0 
L 2419 1100 
L 313 1100 
L 313 1709 
L 2253 4666 
z
" id="DejaVuSans-34" transform="scale(0.015625)"/>
       </defs>
       <use xlink:href="#DejaVuSans-34"/>
       <use x="63.623047" xlink:href="#DejaVuSans-30"/>
       <use x="127.246094" xlink:href="#DejaVuSans-30"/>
      </g>
     </g>
    </g>
    <g id="xtick_4">
     <g id="line2d_4">
      <g>
       <use style="stroke:#000000;stroke-width:0.8;" x="222.672766" xlink:href="#m59b54090b9" y="224.64"/>
      </g>
     </g>
     <g id="text_4">
      <!-- 600 -->
      <g transform="translate(213.129016 239.238437)scale(0.1 -0.1)">
       <defs>
        <path d="M 2113 2584 
Q 1688 2584 1439 2293 
Q 1191 2003 1191 1497 
Q 1191 994 1439 701 
Q 1688 409 2113 409 
Q 2538 409 2786 701 
Q 3034 994 3034 1497 
Q 3034 2003 2786 2293 
Q 2538 2584 2113 2584 
z
M 3366 4563 
L 3366 3988 
Q 3128 4100 2886 4159 
Q 2644 4219 2406 4219 
Q 1781 4219 1451 3797 
Q 1122 3375 1075 2522 
Q 1259 2794 1537 2939 
Q 1816 3084 2150 3084 
Q 2853 3084 3261 2657 
Q 3669 2231 3669 1497 
Q 3669 778 3244 343 
Q 2819 -91 2113 -91 
Q 1303 -91 875 529 
Q 447 1150 447 2328 
Q 447 3434 972 4092 
Q 1497 4750 2381 4750 
Q 2619 4750 2861 4703 
Q 3103 4656 3366 4563 
z
" id="DejaVuSans-36" transform="scale(0.015625)"/>
       </defs>
       <use xlink:href="#DejaVuSans-36"/>
       <use x="63.623047" xlink:href="#DejaVuSans-30"/>
       <use x="127.246094" xlink:href="#DejaVuSans-30"/>
      </g>
     </g>
    </g>
    <g id="xtick_5">
     <g id="line2d_5">
      <g>
       <use style="stroke:#000000;stroke-width:0.8;" x="282.176898" xlink:href="#m59b54090b9" y="224.64"/>
      </g>
     </g>
     <g id="text_5">
      <!-- 800 -->
      <g transform="translate(272.633148 239.238437)scale(0.1 -0.1)">
       <defs>
        <path d="M 2034 2216 
Q 1584 2216 1326 1975 
Q 1069 1734 1069 1313 
Q 1069 891 1326 650 
Q 1584 409 2034 409 
Q 2484 409 2743 651 
Q 3003 894 3003 1313 
Q 3003 1734 2745 1975 
Q 2488 2216 2034 2216 
z
M 1403 2484 
Q 997 2584 770 2862 
Q 544 3141 544 3541 
Q 544 4100 942 4425 
Q 1341 4750 2034 4750 
Q 2731 4750 3128 4425 
Q 3525 4100 3525 3541 
Q 3525 3141 3298 2862 
Q 3072 2584 2669 2484 
Q 3125 2378 3379 2068 
Q 3634 1759 3634 1313 
Q 3634 634 3220 271 
Q 2806 -91 2034 -91 
Q 1263 -91 848 271 
Q 434 634 434 1313 
Q 434 1759 690 2068 
Q 947 2378 1403 2484 
z
M 1172 3481 
Q 1172 3119 1398 2916 
Q 1625 2713 2034 2713 
Q 2441 2713 2670 2916 
Q 2900 3119 2900 3481 
Q 2900 3844 2670 4047 
Q 2441 4250 2034 4250 
Q 1625 4250 1398 4047 
Q 1172 3844 1172 3481 
z
" id="DejaVuSans-38" transform="scale(0.015625)"/>
       </defs>
       <use xlink:href="#DejaVuSans-38"/>
       <use x="63.623047" xlink:href="#DejaVuSans-30"/>
       <use x="127.246094" xlink:href="#DejaVuSans-30"/>
      </g>
     </g>
    </g>
    <g id="xtick_6">
     <g id="line2d_6">
      <g>
       <use style="stroke:#000000;stroke-width:0.8;" x="341.68103" xlink:href="#m59b54090b9" y="224.64"/>
      </g>
     </g>
     <g id="text_6">
      <!-- 1000 -->
      <g transform="translate(328.95603 239.238437)scale(0.1 -0.1)">
       <defs>
        <path d="M 794 531 
L 1825 531 
L 1825 4091 
L 703 3866 
L 703 4441 
L 1819 4666 
L 2450 4666 
L 2450 531 
L 3481 531 
L 3481 0 
L 794 0 
L 794 531 
z
" id="DejaVuSans-31" transform="scale(0.015625)"/>
       </defs>
       <use xlink:href="#DejaVuSans-31"/>
       <use x="63.623047" xlink:href="#DejaVuSans-30"/>
       <use x="127.246094" xlink:href="#DejaVuSans-30"/>
       <use x="190.869141" xlink:href="#DejaVuSans-30"/>
      </g>
     </g>
    </g>
   </g>
   <g id="matplotlib.axis_2">
    <g id="ytick_1">
     <g id="line2d_7">
      <defs>
       <path d="M 0 0 
L -3.5 0 
" id="m2d6a914939" style="stroke:#000000;stroke-width:0.8;"/>
      </defs>
      <g>
       <use style="stroke:#000000;stroke-width:0.8;" x="28.942188" xlink:href="#m2d6a914939" y="202.830679"/>
      </g>
     </g>
     <g id="text_7">
      <!-- −3 -->
      <g transform="translate(7.2 206.629898)scale(0.1 -0.1)">
       <defs>
        <path d="M 678 2272 
L 4684 2272 
L 4684 1741 
L 678 1741 
L 678 2272 
z
" id="DejaVuSans-2212" transform="scale(0.015625)"/>
        <path d="M 2597 2516 
Q 3050 2419 3304 2112 
Q 3559 1806 3559 1356 
Q 3559 666 3084 287 
Q 2609 -91 1734 -91 
Q 1441 -91 1130 -33 
Q 819 25 488 141 
L 488 750 
Q 750 597 1062 519 
Q 1375 441 1716 441 
Q 2309 441 2620 675 
Q 2931 909 2931 1356 
Q 2931 1769 2642 2001 
Q 2353 2234 1838 2234 
L 1294 2234 
L 1294 2753 
L 1863 2753 
Q 2328 2753 2575 2939 
Q 2822 3125 2822 3475 
Q 2822 3834 2567 4026 
Q 2313 4219 1838 4219 
Q 1578 4219 1281 4162 
Q 984 4106 628 3988 
L 628 4550 
Q 988 4650 1302 4700 
Q 1616 4750 1894 4750 
Q 2613 4750 3031 4423 
Q 3450 4097 3450 3541 
Q 3450 3153 3228 2886 
Q 3006 2619 2597 2516 
z
" id="DejaVuSans-33" transform="scale(0.015625)"/>
       </defs>
       <use xlink:href="#DejaVuSans-2212"/>
       <use x="83.789062" xlink:href="#DejaVuSans-33"/>
      </g>
     </g>
    </g>
    <g id="ytick_2">
     <g id="line2d_8">
      <g>
       <use style="stroke:#000000;stroke-width:0.8;" x="28.942188" xlink:href="#m2d6a914939" y="175.64848"/>
      </g>
     </g>
     <g id="text_8">
      <!-- −2 -->
      <g transform="translate(7.2 179.447699)scale(0.1 -0.1)">
       <use xlink:href="#DejaVuSans-2212"/>
       <use x="83.789062" xlink:href="#DejaVuSans-32"/>
      </g>
     </g>
    </g>
    <g id="ytick_3">
     <g id="line2d_9">
      <g>
       <use style="stroke:#000000;stroke-width:0.8;" x="28.942188" xlink:href="#m2d6a914939" y="148.466282"/>
      </g>
     </g>
     <g id="text_9">
      <!-- −1 -->
      <g transform="translate(7.2 152.265501)scale(0.1 -0.1)">
       <use xlink:href="#DejaVuSans-2212"/>
       <use x="83.789062" xlink:href="#DejaVuSans-31"/>
      </g>
     </g>
    </g>
    <g id="ytick_4">
     <g id="line2d_10">
      <g>
       <use style="stroke:#000000;stroke-width:0.8;" x="28.942188" xlink:href="#m2d6a914939" y="121.284084"/>
      </g>
     </g>
     <g id="text_10">
      <!-- 0 -->
      <g transform="translate(15.579688 125.083302)scale(0.1 -0.1)">
       <use xlink:href="#DejaVuSans-30"/>
      </g>
     </g>
    </g>
    <g id="ytick_5">
     <g id="line2d_11">
      <g>
       <use style="stroke:#000000;stroke-width:0.8;" x="28.942188" xlink:href="#m2d6a914939" y="94.101885"/>
      </g>
     </g>
     <g id="text_11">
      <!-- 1 -->
      <g transform="translate(15.579688 97.901104)scale(0.1 -0.1)">
       <use xlink:href="#DejaVuSans-31"/>
      </g>
     </g>
    </g>
    <g id="ytick_6">
     <g id="line2d_12">
      <g>
       <use style="stroke:#000000;stroke-width:0.8;" x="28.942188" xlink:href="#m2d6a914939" y="66.919687"/>
      </g>
     </g>
     <g id="text_12">
      <!-- 2 -->
      <g transform="translate(15.579688 70.718905)scale(0.1 -0.1)">
       <use xlink:href="#DejaVuSans-32"/>
      </g>
     </g>
    </g>
    <g id="ytick_7">
     <g id="line2d_13">
      <g>
       <use style="stroke:#000000;stroke-width:0.8;" x="28.942188" xlink:href="#m2d6a914939" y="39.737488"/>
      </g>
     </g>
     <g id="text_13">
      <!-- 3 -->
      <g transform="translate(15.579688 43.536707)scale(0.1 -0.1)">
       <use xlink:href="#DejaVuSans-33"/>
      </g>
     </g>
    </g>
    <g id="ytick_8">
     <g id="line2d_14">
      <g>
       <use style="stroke:#000000;stroke-width:0.8;" x="28.942188" xlink:href="#m2d6a914939" y="12.55529"/>
      </g>
     </g>
     <g id="text_14">
      <!-- 4 -->
      <g transform="translate(15.579688 16.354509)scale(0.1 -0.1)">
       <use xlink:href="#DejaVuSans-34"/>
      </g>
     </g>
    </g>
   </g>
   <g id="line2d_15">
    <path clip-path="url(#p9fdac8f305)" d="M 44.160369 148.466282 
L 48.028138 142.463231 
L 51.895907 136.870078 
L 55.763675 131.676141 
L 59.631444 126.870742 
L 63.499212 122.443202 
L 67.06946 118.682386 
L 70.639708 115.226035 
L 74.209956 112.06575 
L 77.780204 109.193132 
L 81.350452 106.599782 
L 84.9207 104.277302 
L 88.490948 102.217293 
L 92.061196 100.411352 
L 95.631444 98.851086 
L 99.201692 97.528089 
L 102.77194 96.43397 
L 106.342187 95.560322 
L 110.209956 94.852932 
L 114.077725 94.383755 
L 117.945493 94.142118 
L 121.813262 94.117337 
L 125.978551 94.320924 
L 130.14384 94.750295 
L 134.60665 95.445732 
L 139.06946 96.368641 
L 143.829791 97.585322 
L 148.887642 99.118912 
L 154.243014 100.987174 
L 159.895907 103.201262 
L 166.14384 105.89815 
L 172.986816 109.101106 
L 181.019873 113.115913 
L 191.730617 118.739071 
L 214.044667 130.514678 
L 222.077725 134.466099 
L 228.9207 137.595496 
L 235.168634 140.2095 
L 240.821526 142.335671 
L 246.176898 144.109312 
L 251.234749 145.543416 
L 255.99508 146.657481 
L 260.45789 147.476277 
L 264.623179 148.028678 
L 268.788468 148.362917 
L 272.953758 148.465658 
L 276.821526 148.342117 
L 280.689295 147.996788 
L 284.557064 147.418994 
L 288.127311 146.67008 
L 291.697559 145.70559 
L 295.267807 144.517126 
L 298.838055 143.096288 
L 302.408303 141.434678 
L 305.978551 139.523896 
L 309.548799 137.355544 
L 313.119047 134.921222 
L 316.689295 132.212531 
L 320.259543 129.221073 
L 323.829791 125.938448 
L 327.400039 122.356257 
L 330.970287 118.466102 
L 334.540535 114.259582 
L 338.110783 109.7283 
L 341.978551 104.443183 
L 345.84632 98.756386 
L 348.524006 94.578453 
L 348.524006 94.578453 
" style="fill:none;stroke:#1f77b4;stroke-linecap:square;stroke-width:1.5;"/>
   </g>
   <g id="line2d_16">
    <path clip-path="url(#p9fdac8f305)" d="M 44.160369 148.466282 
L 46.540535 151.256409 
L 48.9207 153.692144 
L 51.300865 155.79044 
L 53.68103 157.567938 
L 56.061196 159.040972 
L 58.441361 160.225561 
L 60.821526 161.137414 
L 63.201692 161.79193 
L 65.581857 162.204196 
L 67.962022 162.388988 
L 70.342187 162.360771 
L 73.019873 162.092024 
L 75.697559 161.591277 
L 78.672766 160.786106 
L 81.647973 159.743776 
L 84.9207 158.352915 
L 88.490948 156.580154 
L 92.358716 154.40394 
L 96.821526 151.624499 
L 102.176898 148.005432 
L 109.317394 142.887414 
L 124.193427 132.154786 
L 130.14384 128.176696 
L 135.201692 125.059603 
L 139.664502 122.558846 
L 143.829791 120.467918 
L 147.697559 118.759004 
L 151.565328 117.292403 
L 155.135576 116.167218 
L 158.705824 115.272446 
L 162.276072 114.617141 
L 165.548799 114.233232 
L 168.821526 114.061443 
L 172.094254 114.105268 
L 175.366981 114.367078 
L 178.639708 114.848136 
L 181.912435 115.548597 
L 185.185163 116.467499 
L 188.45789 117.602769 
L 192.028138 119.084242 
L 195.598386 120.813759 
L 199.168634 122.784101 
L 203.036402 125.180167 
L 206.904171 127.835257 
L 211.06946 130.966512 
L 215.53227 134.609732 
L 220.292601 138.79038 
L 225.647973 143.805135 
L 231.895907 149.984629 
L 240.226485 158.57139 
L 254.209956 173.005867 
L 259.862849 178.502015 
L 264.623179 182.827962 
L 268.788468 186.312456 
L 272.358716 189.026182 
L 275.631444 191.255414 
L 278.60665 193.039121 
L 281.581857 194.565252 
L 284.259543 195.696912 
L 286.937229 196.579097 
L 289.317394 197.137568 
L 291.697559 197.468565 
L 294.077725 197.557313 
L 296.160369 197.424393 
L 298.243014 197.084154 
L 300.325659 196.526104 
L 302.408303 195.739581 
L 304.490948 194.713732 
L 306.573592 193.437531 
L 308.656237 191.899762 
L 310.738882 190.089023 
L 312.821526 187.993741 
L 314.904171 185.602147 
L 316.986816 182.902309 
L 319.366981 179.423758 
L 321.747146 175.508364 
L 324.127311 171.137415 
L 326.507477 166.291897 
L 328.887642 160.952486 
L 331.267807 155.099544 
L 333.945493 147.876309 
L 336.623179 139.949008 
L 339.300865 131.288274 
L 341.978551 121.864234 
L 344.656237 111.646523 
L 347.333923 100.604273 
L 348.524006 95.423755 
L 348.524006 95.423755 
" style="fill:none;stroke:#ff7f0e;stroke-linecap:square;stroke-width:1.5;"/>
   </g>
   <g id="line2d_17">
    <path clip-path="url(#p9fdac8f305)" d="M 44.160369 175.64848 
L 46.243014 169.317224 
L 48.325659 163.671886 
L 50.408303 158.668222 
L 52.490948 154.263567 
L 54.573592 150.416829 
L 56.656237 147.088457 
L 58.441361 144.619275 
L 60.226485 142.479885 
L 62.011609 140.648007 
L 63.796733 139.102133 
L 65.581857 137.821532 
L 67.366981 136.786229 
L 69.152105 135.977003 
L 71.234749 135.294007 
L 73.317394 134.865466 
L 75.400039 134.664581 
L 77.780204 134.681095 
L 80.160369 134.925627 
L 82.838055 135.431097 
L 85.813262 136.226012 
L 89.38351 137.426299 
L 93.84632 139.175882 
L 109.614915 145.577555 
L 113.780204 146.917082 
L 117.647973 147.922541 
L 121.218221 148.618045 
L 124.490948 149.04299 
L 127.763675 149.254586 
L 131.036402 149.247373 
L 134.30913 149.019799 
L 137.581857 148.573969 
L 140.854584 147.915427 
L 144.424832 146.964751 
L 147.99508 145.786685 
L 151.862849 144.276113 
L 156.028138 142.409245 
L 160.788468 140.023088 
L 166.441361 136.932462 
L 187.267807 125.273759 
L 191.730617 123.181865 
L 195.598386 121.610003 
L 199.168634 120.397992 
L 202.441361 119.517665 
L 205.416568 118.929878 
L 208.391774 118.562138 
L 211.366981 118.430304 
L 214.044667 118.52537 
L 216.722353 118.832825 
L 219.400039 119.361138 
L 222.077725 120.117614 
L 224.755411 121.108312 
L 227.433097 122.337957 
L 230.110783 123.809847 
L 232.788468 125.525777 
L 235.466154 127.485931 
L 238.441361 129.948452 
L 241.416568 132.70598 
L 244.391774 135.751045 
L 247.664502 139.420128 
L 251.234749 143.783341 
L 254.804997 148.493102 
L 258.970287 154.375172 
L 263.730617 161.517762 
L 269.68103 170.878273 
L 282.176898 190.652692 
L 286.342187 196.75177 
L 289.614915 201.175672 
L 292.590121 204.826144 
L 295.267807 207.741311 
L 297.647973 209.986266 
L 299.730617 211.645614 
L 301.515741 212.815738 
L 303.300865 213.730773 
L 305.085989 214.36877 
L 306.573592 214.672425 
L 308.061196 214.754348 
L 309.548799 214.600554 
L 311.036402 214.196687 
L 312.524006 213.527978 
L 314.011609 212.579262 
L 315.499212 211.334954 
L 316.986816 209.77907 
L 318.474419 207.895184 
L 319.962022 205.666483 
L 321.449626 203.07569 
L 323.234749 199.463837 
L 325.019873 195.273681 
L 326.804997 190.472891 
L 328.590121 185.028213 
L 330.375245 178.905455 
L 332.160369 172.069481 
L 334.243014 163.144519 
L 336.325659 153.140581 
L 338.408303 141.996822 
L 340.490948 129.650536 
L 342.573592 116.037137 
L 344.656237 101.090138 
L 347.036402 82.287008 
L 348.524006 69.558473 
L 348.524006 69.558473 
" style="fill:none;stroke:#2ca02c;stroke-linecap:square;stroke-width:1.5;"/>
   </g>
   <g id="line2d_18">
    <path clip-path="url(#p9fdac8f305)" d="M 44.160369 121.284084 
L 45.647973 125.712883 
L 47.135576 129.476013 
L 48.623179 132.621369 
L 50.110783 135.194806 
L 51.300865 136.871327 
L 52.490948 138.231507 
L 53.68103 139.296137 
L 54.871113 140.085251 
L 56.061196 140.61813 
L 57.251278 140.913331 
L 58.441361 140.988691 
L 59.631444 140.861354 
L 61.119047 140.442136 
L 62.60665 139.762535 
L 64.094254 138.851625 
L 65.879378 137.491878 
L 67.962022 135.594059 
L 70.342187 133.094614 
L 73.317394 129.604929 
L 77.482683 124.312352 
L 86.408303 112.843711 
L 89.978551 108.656311 
L 92.953758 105.474696 
L 95.928964 102.624855 
L 98.60665 100.373562 
L 100.986816 98.637631 
L 103.366981 97.160338 
L 105.747146 95.94639 
L 108.127311 94.996976 
L 110.507477 94.310063 
L 112.887642 93.880697 
L 115.267807 93.701291 
L 117.647973 93.761892 
L 120.028138 94.050457 
L 122.408303 94.553108 
L 125.085989 95.35517 
L 127.763675 96.384524 
L 130.738882 97.763421 
L 134.011609 99.522949 
L 137.879378 101.861599 
L 142.937229 105.205405 
L 157.218221 114.823358 
L 161.38351 117.271292 
L 164.953758 119.123494 
L 168.226485 120.5837 
L 171.201692 121.690254 
L 174.176898 122.569282 
L 177.152105 123.208082 
L 179.829791 123.570273 
L 182.507477 123.727108 
L 185.185163 123.67765 
L 187.862849 123.423654 
L 190.838055 122.907049 
L 193.813262 122.15346 
L 196.788468 121.176869 
L 200.061196 119.866526 
L 203.631444 118.188424 
L 207.796733 115.961588 
L 212.854584 112.98382 
L 226.243014 104.94754 
L 230.110783 102.972281 
L 233.38351 101.554997 
L 236.358716 100.521411 
L 239.036402 99.836006 
L 241.416568 99.447437 
L 243.796733 99.288346 
L 245.879378 99.353045 
L 247.962022 99.621252 
L 250.044667 100.10472 
L 252.127311 100.814227 
L 254.209956 101.759485 
L 256.292601 102.948986 
L 258.375245 104.389874 
L 260.45789 106.087795 
L 262.540535 108.046761 
L 264.9207 110.608018 
L 267.300865 113.513302 
L 269.68103 116.759218 
L 272.358716 120.80876 
L 275.036402 125.263165 
L 278.011609 130.657515 
L 281.284336 137.079628 
L 284.854584 144.578344 
L 289.614915 155.149932 
L 300.028138 178.521464 
L 303.003345 184.606679 
L 305.68103 189.581795 
L 307.763675 193.018636 
L 309.548799 195.596072 
L 311.333923 197.775798 
L 312.821526 199.246563 
L 314.011609 200.171391 
L 315.201692 200.851836 
L 316.391774 201.268114 
L 317.581857 201.399653 
L 318.474419 201.298645 
L 319.366981 201.016201 
L 320.259543 200.54277 
L 321.152105 199.868539 
L 322.342187 198.639778 
L 323.53227 197.011492 
L 324.722353 194.958231 
L 325.912435 192.453638 
L 327.102518 189.470475 
L 328.590121 185.025562 
L 330.077725 179.731807 
L 331.565328 173.529881 
L 333.052931 166.358079 
L 334.540535 158.152262 
L 336.028138 148.84583 
L 337.813262 136.127776 
L 339.598386 121.600737 
L 341.38351 105.134815 
L 343.168634 86.594458 
L 344.953758 65.838336 
L 346.738882 42.71918 
L 348.524006 17.083636 
L 348.524006 17.083636 
" style="fill:none;stroke:#d62728;stroke-linecap:square;stroke-width:1.5;"/>
   </g>
   <g id="patch_3">
    <path d="M 28.942188 224.64 
L 28.942188 7.2 
" style="fill:none;stroke:#000000;stroke-linecap:square;stroke-linejoin:miter;stroke-width:0.8;"/>
   </g>
   <g id="patch_4">
    <path d="M 363.742188 224.64 
L 363.742188 7.2 
" style="fill:none;stroke:#000000;stroke-linecap:square;stroke-linejoin:miter;stroke-width:0.8;"/>
   </g>
   <g id="patch_5">
    <path d="M 28.942188 224.64 
L 363.742188 224.64 
" style="fill:none;stroke:#000000;stroke-linecap:square;stroke-linejoin:miter;stroke-width:0.8;"/>
   </g>
   <g id="patch_6">
    <path d="M 28.942188 7.2 
L 363.742188 7.2 
" style="fill:none;stroke:#000000;stroke-linecap:square;stroke-linejoin:miter;stroke-width:0.8;"/>
   </g>
   <g id="legend_1">
    <g id="patch_7">
     <path d="M 35.942188 73.9125 
L 74.304688 73.9125 
Q 76.304688 73.9125 76.304688 71.9125 
L 76.304688 14.2 
Q 76.304688 12.2 74.304688 12.2 
L 35.942188 12.2 
Q 33.942188 12.2 33.942188 14.2 
L 33.942188 71.9125 
Q 33.942188 73.9125 35.942188 73.9125 
z
" style="fill:#ffffff;opacity:0.8;stroke:#cccccc;stroke-linejoin:miter;"/>
    </g>
    <g id="line2d_19">
     <path d="M 37.942188 20.298437 
L 57.942188 20.298437 
" style="fill:none;stroke:#1f77b4;stroke-linecap:square;stroke-width:1.5;"/>
    </g>
    <g id="line2d_20"/>
    <g id="text_15">
     <!-- 0 -->
     <g transform="translate(65.942188 23.798437)scale(0.1 -0.1)">
      <use xlink:href="#DejaVuSans-30"/>
     </g>
    </g>
    <g id="line2d_21">
     <path d="M 37.942188 34.976562 
L 57.942188 34.976562 
" style="fill:none;stroke:#ff7f0e;stroke-linecap:square;stroke-width:1.5;"/>
    </g>
    <g id="line2d_22"/>
    <g id="text_16">
     <!-- 1 -->
     <g transform="translate(65.942188 38.476562)scale(0.1 -0.1)">
      <use xlink:href="#DejaVuSans-31"/>
     </g>
    </g>
    <g id="line2d_23">
     <path d="M 37.942188 49.654687 
L 57.942188 49.654687 
" style="fill:none;stroke:#2ca02c;stroke-linecap:square;stroke-width:1.5;"/>
    </g>
    <g id="line2d_24"/>
    <g id="text_17">
     <!-- 2 -->
     <g transform="translate(65.942188 53.154687)scale(0.1 -0.1)">
      <use xlink:href="#DejaVuSans-32"/>
     </g>
    </g>
    <g id="line2d_25">
     <path d="M 37.942188 64.332812 
L 57.942188 64.332812 
" style="fill:none;stroke:#d62728;stroke-linecap:square;stroke-width:1.5;"/>
    </g>
    <g id="line2d_26"/>
    <g id="text_18">
     <!-- 3 -->
     <g transform="translate(65.942188 67.832812)scale(0.1 -0.1)">
      <use xlink:href="#DejaVuSans-33"/>
     </g>
    </g>
   </g>
  </g>
 </g>
 <defs>
  <clipPath id="p9fdac8f305">
   <rect height="217.44" width="334.8" x="28.942188" y="7.2"/>
  </clipPath>
 </defs>
</svg>
