<?xml version="1.0" encoding="utf-8" standalone="no"?>
<!DOCTYPE svg PUBLIC "-//W3C//DTD SVG 1.1//EN"
  "http://www.w3.org/Graphics/SVG/1.1/DTD/svg11.dtd">
<svg height="248.518125pt" version="1.1" viewBox="0 0 370.942187 248.518125" width="370.942187pt" xmlns="http://www.w3.org/2000/svg" xmlns:xlink="http://www.w3.org/1999/xlink">
 <metadata>
  <rdf:RDF xmlns:cc="http://creativecommons.org/ns#" xmlns:dc="http://purl.org/dc/elements/1.1/" xmlns:rdf="http://www.w3.org/1999/02/22-rdf-syntax-ns#">
   <cc:Work>
    <dc:type rdf:resource="http://purl.org/dc/dcmitype/StillImage"/>
    <dc:date>2021-07-18T20:34:01.322865</dc:date>
    <dc:format>image/svg+xml</dc:format>
    <dc:creator>
     <cc:Agent>
      <dc:title>Matplotlib v3.4.2, https://matplotlib.org/</dc:title>
     </cc:Agent>
    </dc:creator>
   </cc:Work>
  </rdf:RDF>
 </metadata>
 <defs>
  <style type="text/css">*{stroke-linecap:butt;stroke-linejoin:round;}</style>
 </defs>
 <g id="figure_1">
  <g id="patch_1">
   <path d="M 0 248.518125 
L 370.942187 248.518125 
L 370.942187 0 
L 0 0 
z
" style="fill:none;"/>
  </g>
  <g id="axes_1">
   <g id="patch_2">
    <path d="M 28.942188 224.64 
L 363.742188 224.64 
L 363.742188 7.2 
L 28.942188 7.2 
z
" style="fill:#ffffff;"/>
   </g>
   <g id="matplotlib.axis_1">
    <g id="xtick_1">
     <g id="line2d_1">
      <defs>
       <path d="M 0 0 
L 0 3.5 
" id="me94c58509f" style="stroke:#000000;stroke-width:0.8;"/>
      </defs>
      <g>
       <use style="stroke:#000000;stroke-width:0.8;" x="44.160369" xlink:href="#me94c58509f" y="224.64"/>
      </g>
     </g>
     <g id="text_1">
      <!-- 0 -->
      <g transform="translate(40.979119 239.238437)scale(0.1 -0.1)">
       <defs>
        <path d="M 2034 4250 
Q 1547 4250 1301 3770 
Q 1056 3291 1056 2328 
Q 1056 1369 1301 889 
Q 1547 409 2034 409 
Q 2525 409 2770 889 
Q 3016 1369 3016 2328 
Q 3016 3291 2770 3770 
Q 2525 4250 2034 4250 
z
M 2034 4750 
Q 2819 4750 3233 4129 
Q 3647 3509 3647 2328 
Q 3647 1150 3233 529 
Q 2819 -91 2034 -91 
Q 1250 -91 836 529 
Q 422 1150 422 2328 
Q 422 3509 836 4129 
Q 1250 4750 2034 4750 
z
" id="DejaVuSans-30" transform="scale(0.015625)"/>
       </defs>
       <use xlink:href="#DejaVuSans-30"/>
      </g>
     </g>
    </g>
    <g id="xtick_2">
     <g id="line2d_2">
      <g>
       <use style="stroke:#000000;stroke-width:0.8;" x="103.664502" xlink:href="#me94c58509f" y="224.64"/>
      </g>
     </g>
     <g id="text_2">
      <!-- 200 -->
      <g transform="translate(94.120752 239.238437)scale(0.1 -0.1)">
       <defs>
        <path d="M 1228 531 
L 3431 531 
L 3431 0 
L 469 0 
L 469 531 
Q 828 903 1448 1529 
Q 2069 2156 2228 2338 
Q 2531 2678 2651 2914 
Q 2772 3150 2772 3378 
Q 2772 3750 2511 3984 
Q 2250 4219 1831 4219 
Q 1534 4219 1204 4116 
Q 875 4013 500 3803 
L 500 4441 
Q 881 4594 1212 4672 
Q 1544 4750 1819 4750 
Q 2544 4750 2975 4387 
Q 3406 4025 3406 3419 
Q 3406 3131 3298 2873 
Q 3191 2616 2906 2266 
Q 2828 2175 2409 1742 
Q 1991 1309 1228 531 
z
" id="DejaVuSans-32" transform="scale(0.015625)"/>
       </defs>
       <use xlink:href="#DejaVuSans-32"/>
       <use x="63.623047" xlink:href="#DejaVuSans-30"/>
       <use x="127.246094" xlink:href="#DejaVuSans-30"/>
      </g>
     </g>
    </g>
    <g id="xtick_3">
     <g id="line2d_3">
      <g>
       <use style="stroke:#000000;stroke-width:0.8;" x="163.168634" xlink:href="#me94c58509f" y="224.64"/>
      </g>
     </g>
     <g id="text_3">
      <!-- 400 -->
      <g transform="translate(153.624884 239.238437)scale(0.1 -0.1)">
       <defs>
        <path d="M 2419 4116 
L 825 1625 
L 2419 1625 
L 2419 4116 
z
M 2253 4666 
L 3047 4666 
L 3047 1625 
L 3713 1625 
L 3713 1100 
L 3047 1100 
L 3047 0 
L 2419 0 
L 2419 1100 
L 313 1100 
L 313 1709 
L 2253 4666 
z
" id="DejaVuSans-34" transform="scale(0.015625)"/>
       </defs>
       <use xlink:href="#DejaVuSans-34"/>
       <use x="63.623047" xlink:href="#DejaVuSans-30"/>
       <use x="127.246094" xlink:href="#DejaVuSans-30"/>
      </g>
     </g>
    </g>
    <g id="xtick_4">
     <g id="line2d_4">
      <g>
       <use style="stroke:#000000;stroke-width:0.8;" x="222.672766" xlink:href="#me94c58509f" y="224.64"/>
      </g>
     </g>
     <g id="text_4">
      <!-- 600 -->
      <g transform="translate(213.129016 239.238437)scale(0.1 -0.1)">
       <defs>
        <path d="M 2113 2584 
Q 1688 2584 1439 2293 
Q 1191 2003 1191 1497 
Q 1191 994 1439 701 
Q 1688 409 2113 409 
Q 2538 409 2786 701 
Q 3034 994 3034 1497 
Q 3034 2003 2786 2293 
Q 2538 2584 2113 2584 
z
M 3366 4563 
L 3366 3988 
Q 3128 4100 2886 4159 
Q 2644 4219 2406 4219 
Q 1781 4219 1451 3797 
Q 1122 3375 1075 2522 
Q 1259 2794 1537 2939 
Q 1816 3084 2150 3084 
Q 2853 3084 3261 2657 
Q 3669 2231 3669 1497 
Q 3669 778 3244 343 
Q 2819 -91 2113 -91 
Q 1303 -91 875 529 
Q 447 1150 447 2328 
Q 447 3434 972 4092 
Q 1497 4750 2381 4750 
Q 2619 4750 2861 4703 
Q 3103 4656 3366 4563 
z
" id="DejaVuSans-36" transform="scale(0.015625)"/>
       </defs>
       <use xlink:href="#DejaVuSans-36"/>
       <use x="63.623047" xlink:href="#DejaVuSans-30"/>
       <use x="127.246094" xlink:href="#DejaVuSans-30"/>
      </g>
     </g>
    </g>
    <g id="xtick_5">
     <g id="line2d_5">
      <g>
       <use style="stroke:#000000;stroke-width:0.8;" x="282.176898" xlink:href="#me94c58509f" y="224.64"/>
      </g>
     </g>
     <g id="text_5">
      <!-- 800 -->
      <g transform="translate(272.633148 239.238437)scale(0.1 -0.1)">
       <defs>
        <path d="M 2034 2216 
Q 1584 2216 1326 1975 
Q 1069 1734 1069 1313 
Q 1069 891 1326 650 
Q 1584 409 2034 409 
Q 2484 409 2743 651 
Q 3003 894 3003 1313 
Q 3003 1734 2745 1975 
Q 2488 2216 2034 2216 
z
M 1403 2484 
Q 997 2584 770 2862 
Q 544 3141 544 3541 
Q 544 4100 942 4425 
Q 1341 4750 2034 4750 
Q 2731 4750 3128 4425 
Q 3525 4100 3525 3541 
Q 3525 3141 3298 2862 
Q 3072 2584 2669 2484 
Q 3125 2378 3379 2068 
Q 3634 1759 3634 1313 
Q 3634 634 3220 271 
Q 2806 -91 2034 -91 
Q 1263 -91 848 271 
Q 434 634 434 1313 
Q 434 1759 690 2068 
Q 947 2378 1403 2484 
z
M 1172 3481 
Q 1172 3119 1398 2916 
Q 1625 2713 2034 2713 
Q 2441 2713 2670 2916 
Q 2900 3119 2900 3481 
Q 2900 3844 2670 4047 
Q 2441 4250 2034 4250 
Q 1625 4250 1398 4047 
Q 1172 3844 1172 3481 
z
" id="DejaVuSans-38" transform="scale(0.015625)"/>
       </defs>
       <use xlink:href="#DejaVuSans-38"/>
       <use x="63.623047" xlink:href="#DejaVuSans-30"/>
       <use x="127.246094" xlink:href="#DejaVuSans-30"/>
      </g>
     </g>
    </g>
    <g id="xtick_6">
     <g id="line2d_6">
      <g>
       <use style="stroke:#000000;stroke-width:0.8;" x="341.68103" xlink:href="#me94c58509f" y="224.64"/>
      </g>
     </g>
     <g id="text_6">
      <!-- 1000 -->
      <g transform="translate(328.95603 239.238437)scale(0.1 -0.1)">
       <defs>
        <path d="M 794 531 
L 1825 531 
L 1825 4091 
L 703 3866 
L 703 4441 
L 1819 4666 
L 2450 4666 
L 2450 531 
L 3481 531 
L 3481 0 
L 794 0 
L 794 531 
z
" id="DejaVuSans-31" transform="scale(0.015625)"/>
       </defs>
       <use xlink:href="#DejaVuSans-31"/>
       <use x="63.623047" xlink:href="#DejaVuSans-30"/>
       <use x="127.246094" xlink:href="#DejaVuSans-30"/>
       <use x="190.869141" xlink:href="#DejaVuSans-30"/>
      </g>
     </g>
    </g>
   </g>
   <g id="matplotlib.axis_2">
    <g id="ytick_1">
     <g id="line2d_7">
      <defs>
       <path d="M 0 0 
L -3.5 0 
" id="m34fa62b63a" style="stroke:#000000;stroke-width:0.8;"/>
      </defs>
      <g>
       <use style="stroke:#000000;stroke-width:0.8;" x="28.942188" xlink:href="#m34fa62b63a" y="191.283588"/>
      </g>
     </g>
     <g id="text_7">
      <!-- −3 -->
      <g transform="translate(7.2 195.082807)scale(0.1 -0.1)">
       <defs>
        <path d="M 678 2272 
L 4684 2272 
L 4684 1741 
L 678 1741 
L 678 2272 
z
" id="DejaVuSans-2212" transform="scale(0.015625)"/>
        <path d="M 2597 2516 
Q 3050 2419 3304 2112 
Q 3559 1806 3559 1356 
Q 3559 666 3084 287 
Q 2609 -91 1734 -91 
Q 1441 -91 1130 -33 
Q 819 25 488 141 
L 488 750 
Q 750 597 1062 519 
Q 1375 441 1716 441 
Q 2309 441 2620 675 
Q 2931 909 2931 1356 
Q 2931 1769 2642 2001 
Q 2353 2234 1838 2234 
L 1294 2234 
L 1294 2753 
L 1863 2753 
Q 2328 2753 2575 2939 
Q 2822 3125 2822 3475 
Q 2822 3834 2567 4026 
Q 2313 4219 1838 4219 
Q 1578 4219 1281 4162 
Q 984 4106 628 3988 
L 628 4550 
Q 988 4650 1302 4700 
Q 1616 4750 1894 4750 
Q 2613 4750 3031 4423 
Q 3450 4097 3450 3541 
Q 3450 3153 3228 2886 
Q 3006 2619 2597 2516 
z
" id="DejaVuSans-33" transform="scale(0.015625)"/>
       </defs>
       <use xlink:href="#DejaVuSans-2212"/>
       <use x="83.789062" xlink:href="#DejaVuSans-33"/>
      </g>
     </g>
    </g>
    <g id="ytick_2">
     <g id="line2d_8">
      <g>
       <use style="stroke:#000000;stroke-width:0.8;" x="28.942188" xlink:href="#m34fa62b63a" y="148.359078"/>
      </g>
     </g>
     <g id="text_8">
      <!-- −2 -->
      <g transform="translate(7.2 152.158297)scale(0.1 -0.1)">
       <use xlink:href="#DejaVuSans-2212"/>
       <use x="83.789062" xlink:href="#DejaVuSans-32"/>
      </g>
     </g>
    </g>
    <g id="ytick_3">
     <g id="line2d_9">
      <g>
       <use style="stroke:#000000;stroke-width:0.8;" x="28.942188" xlink:href="#m34fa62b63a" y="105.434568"/>
      </g>
     </g>
     <g id="text_9">
      <!-- −1 -->
      <g transform="translate(7.2 109.233787)scale(0.1 -0.1)">
       <use xlink:href="#DejaVuSans-2212"/>
       <use x="83.789062" xlink:href="#DejaVuSans-31"/>
      </g>
     </g>
    </g>
    <g id="ytick_4">
     <g id="line2d_10">
      <g>
       <use style="stroke:#000000;stroke-width:0.8;" x="28.942188" xlink:href="#m34fa62b63a" y="62.510058"/>
      </g>
     </g>
     <g id="text_10">
      <!-- 0 -->
      <g transform="translate(15.579688 66.309276)scale(0.1 -0.1)">
       <use xlink:href="#DejaVuSans-30"/>
      </g>
     </g>
    </g>
    <g id="ytick_5">
     <g id="line2d_11">
      <g>
       <use style="stroke:#000000;stroke-width:0.8;" x="28.942188" xlink:href="#m34fa62b63a" y="19.585548"/>
      </g>
     </g>
     <g id="text_11">
      <!-- 1 -->
      <g transform="translate(15.579688 23.384766)scale(0.1 -0.1)">
       <use xlink:href="#DejaVuSans-31"/>
      </g>
     </g>
    </g>
   </g>
   <g id="line2d_12">
    <path clip-path="url(#p0294525807)" d="M 44.160369 62.510058 
L 45.350452 51.126137 
L 45.945493 46.909562 
L 46.540535 44.24154 
L 46.838055 43.552878 
L 47.135576 43.300368 
L 47.433097 43.470143 
L 47.730617 44.034169 
L 48.325659 46.168151 
L 49.218221 50.951042 
L 50.110783 55.825283 
L 50.705824 58.115789 
L 51.003345 58.783234 
L 51.300865 59.071031 
L 51.598386 58.94929 
L 51.895907 58.402192 
L 52.193427 57.428529 
L 52.788468 54.2695 
L 53.38351 49.744355 
L 56.061196 26.820572 
L 56.656237 24.498953 
L 56.953758 23.993959 
L 57.251278 23.934583 
L 57.548799 24.308805 
L 57.84632 25.090337 
L 58.441361 27.704677 
L 59.333923 33.337936 
L 60.524006 40.886648 
L 61.119047 43.349177 
L 61.416568 44.051582 
L 61.714088 44.354686 
L 62.011609 44.240618 
L 62.30913 43.70607 
L 62.60665 42.762406 
L 63.201692 39.763865 
L 64.094254 33.245631 
L 65.581857 21.752037 
L 66.176898 18.683328 
L 66.474419 17.716967 
L 66.77194 17.1774 
L 67.06946 17.083636 
L 67.366981 17.440117 
L 67.664502 18.236594 
L 68.259543 21.037622 
L 68.854584 25.135845 
L 70.937229 41.591226 
L 71.53227 44.487099 
L 71.829791 45.360316 
L 72.127311 45.81915 
L 72.424832 45.85815 
L 72.722353 45.486552 
L 73.019873 44.727969 
L 73.614915 42.210937 
L 74.507477 36.82551 
L 75.697559 29.771919 
L 76.292601 27.641781 
L 76.590121 27.133561 
L 76.887642 27.046779 
L 77.185163 27.402147 
L 77.482683 28.205892 
L 78.077725 31.110145 
L 78.672766 35.523666 
L 79.862849 47.015274 
L 81.052931 58.040626 
L 81.647973 61.953041 
L 82.243014 64.297352 
L 82.540535 64.835715 
L 82.838055 64.956151 
L 83.135576 64.680234 
L 83.433097 64.043249 
L 84.028138 61.888182 
L 86.110783 52.51116 
L 86.408303 51.931203 
L 86.705824 51.725449 
L 87.003345 51.930026 
L 87.300865 52.567411 
L 87.598386 53.645657 
L 88.193427 57.083661 
L 88.788468 62.02169 
L 89.978551 74.572543 
L 91.168634 86.684443 
L 91.763675 91.135231 
L 92.358716 93.997594 
L 92.656237 94.782454 
L 92.953758 95.138332 
L 93.251278 95.084841 
L 93.548799 94.65544 
L 94.14384 92.864677 
L 95.036402 88.83202 
L 95.928964 85.018327 
L 96.524006 83.587773 
L 96.821526 83.385315 
L 97.119047 83.579273 
L 97.416568 84.193984 
L 97.714088 85.239433 
L 98.30913 88.589224 
L 98.904171 93.420867 
L 100.094254 105.747109 
L 101.284336 117.640865 
L 101.879378 121.973066 
L 102.474419 124.695029 
L 102.77194 125.396923 
L 103.06946 125.658785 
L 103.366981 125.498372 
L 103.664502 124.947415 
L 104.259543 122.863639 
L 105.152105 118.251487 
L 106.044667 113.683843 
L 106.639708 111.661855 
L 106.937229 111.141041 
L 107.234749 111.003875 
L 107.53227 111.276673 
L 107.829791 111.971459 
L 108.424832 114.601889 
L 109.019873 118.702996 
L 109.912435 126.702571 
L 111.400039 140.07732 
L 111.99508 143.719729 
L 112.590121 145.744112 
L 112.887642 146.089995 
L 113.185163 145.988622 
L 113.482683 145.455989 
L 114.077725 143.230273 
L 114.672766 139.800905 
L 116.45789 128.0244 
L 117.052931 125.583985 
L 117.350452 124.906212 
L 117.647973 124.632223 
L 117.945493 124.776169 
L 118.243014 125.33755 
L 118.838055 127.638056 
L 119.433097 131.249778 
L 121.813262 148.111712 
L 122.408303 150.043687 
L 122.705824 150.375012 
L 123.003345 150.258478 
L 123.300865 149.693684 
L 123.598386 148.694886 
L 124.193427 145.522192 
L 125.085989 138.616207 
L 126.573592 126.206708 
L 127.168634 122.665862 
L 127.763675 120.605184 
L 128.061196 120.196546 
L 128.358716 120.209436 
L 128.656237 120.630841 
L 128.953758 121.43356 
L 129.548799 124.008957 
L 130.738882 131.263563 
L 131.631444 136.156751 
L 132.226485 138.070776 
L 132.524006 138.459836 
L 132.821526 138.424857 
L 133.119047 137.949011 
L 133.416568 137.030106 
L 134.011609 133.927218 
L 134.60665 129.381275 
L 135.796733 117.90567 
L 136.986816 107.305732 
L 137.581857 103.731814 
L 138.176898 101.77733 
L 138.474419 101.44375 
L 138.77194 101.529552 
L 139.06946 102.009478 
L 139.664502 103.984717 
L 140.557064 108.580464 
L 141.449626 113.346724 
L 142.044667 115.601868 
L 142.342187 116.257653 
L 142.639708 116.534698 
L 142.937229 116.400427 
L 143.234749 115.836191 
L 143.53227 114.837859 
L 144.127311 111.595554 
L 144.722353 106.924776 
L 146.209956 92.218006 
L 147.102518 84.355888 
L 147.697559 80.670605 
L 148.292601 78.63042 
L 148.590121 78.268381 
L 148.887642 78.337907 
L 149.185163 78.815578 
L 149.780204 80.835043 
L 150.672766 85.637387 
L 151.862849 92.22488 
L 152.45789 94.257814 
L 152.755411 94.751788 
L 153.052931 94.847364 
L 153.350452 94.52391 
L 153.647973 93.775283 
L 154.243014 91.05113 
L 154.838055 86.911241 
L 156.028138 76.248629 
L 156.9207 68.539463 
L 157.515741 64.652371 
L 158.110783 62.285237 
L 158.408303 61.751849 
L 158.705824 61.666741 
L 159.003345 62.022715 
L 159.300865 62.798116 
L 159.895907 65.453147 
L 160.788468 71.326532 
L 161.978551 79.577243 
L 162.573592 82.531982 
L 162.871113 83.504563 
L 163.168634 84.088049 
L 163.466154 84.259773 
L 163.763675 84.011471 
L 164.061196 83.349585 
L 164.656237 80.882493 
L 165.251278 77.183687 
L 167.333923 62.473115 
L 167.928964 60.197441 
L 168.226485 59.667102 
L 168.524006 59.577844 
L 168.821526 59.938947 
L 169.119047 60.744985 
L 169.714088 63.598227 
L 170.30913 67.81909 
L 172.689295 87.35631 
L 173.284336 90.049812 
L 173.581857 90.793438 
L 173.879378 91.116344 
L 174.176898 91.022818 
L 174.474419 90.531691 
L 175.06946 88.500323 
L 175.962022 83.670014 
L 177.152105 76.973887 
L 177.747146 74.875957 
L 178.044667 74.357596 
L 178.342187 74.24876 
L 178.639708 74.574805 
L 178.937229 75.346784 
L 179.53227 78.199427 
L 180.127311 82.606848 
L 181.019873 91.210039 
L 182.507477 105.951692 
L 183.102518 110.270348 
L 183.697559 113.051683 
L 183.99508 113.808268 
L 184.292601 114.140151 
L 184.590121 114.064133 
L 184.887642 113.610992 
L 185.482683 111.759881 
L 186.375245 107.580213 
L 187.267807 103.53931 
L 187.862849 101.923198 
L 188.160369 101.623285 
L 188.45789 101.719979 
L 188.755411 102.240411 
L 189.052931 103.197466 
L 189.647973 106.399808 
L 190.243014 111.141267 
L 191.433097 123.524213 
L 192.623179 135.826101 
L 193.218221 140.476492 
L 193.813262 143.569115 
L 194.110783 144.46893 
L 194.408303 144.933134 
L 194.705824 144.976546 
L 195.003345 144.628119 
L 195.300865 143.929956 
L 195.895907 141.709398 
L 197.68103 133.692639 
L 197.978551 132.95048 
L 198.276072 132.548319 
L 198.573592 132.528266 
L 198.871113 132.919302 
L 199.168634 133.736267 
L 199.763675 136.634295 
L 200.358716 141.051771 
L 201.251278 149.654416 
L 202.738882 164.429253 
L 203.333923 168.752259 
L 203.928964 171.50062 
L 204.226485 172.217573 
L 204.524006 172.489245 
L 204.821526 172.328643 
L 205.119047 171.762958 
L 205.714088 169.590331 
L 206.60665 164.653654 
L 207.796733 158.105674 
L 208.391774 156.169391 
L 208.689295 155.734272 
L 208.986816 155.700049 
L 209.284336 156.08364 
L 209.581857 156.887347 
L 210.176898 159.691555 
L 210.77194 163.848647 
L 213.449626 185.069134 
L 214.044667 186.998898 
L 214.342187 187.302838 
L 214.639708 187.156645 
L 214.937229 186.571557 
L 215.53227 184.200237 
L 216.127311 180.546136 
L 218.209956 165.798337 
L 218.804997 163.427385 
L 219.102518 162.819496 
L 219.400039 162.626646 
L 219.697559 162.853329 
L 219.99508 163.489301 
L 220.590121 165.877436 
L 221.185163 169.44069 
L 222.970287 181.624022 
L 223.565328 184.179882 
L 223.862849 184.89621 
L 224.160369 185.189056 
L 224.45789 185.038668 
L 224.755411 184.439815 
L 225.052931 183.401934 
L 225.647973 180.118037 
L 226.540535 172.907887 
L 228.325659 157.3196 
L 228.9207 153.918115 
L 229.515741 152.091254 
L 229.813262 151.811692 
L 230.110783 151.948807 
L 230.408303 152.480075 
L 231.003345 154.567974 
L 231.895907 159.385334 
L 233.085989 165.839191 
L 233.68103 167.735459 
L 233.978551 168.141534 
L 234.276072 168.135036 
L 234.573592 167.694452 
L 234.871113 166.8127 
L 235.466154 163.770644 
L 236.061196 159.238435 
L 237.251278 147.549701 
L 238.441361 136.376967 
L 239.036402 132.418087 
L 239.631444 130.054452 
L 239.928964 129.519158 
L 240.226485 129.41167 
L 240.524006 129.711429 
L 240.821526 130.384089 
L 241.416568 132.649283 
L 243.499212 142.860708 
L 243.796733 143.615839 
L 244.094254 144.009167 
L 244.391774 144.003712 
L 244.689295 143.576085 
L 244.986816 142.717247 
L 245.581857 139.743221 
L 246.176898 135.296722 
L 247.366981 123.790358 
L 248.557064 112.793643 
L 249.152105 108.93279 
L 249.747146 106.689522 
L 250.044667 106.22738 
L 250.342187 106.204247 
L 250.639708 106.601403 
L 250.937229 107.386233 
L 251.53227 109.925984 
L 252.722353 117.02115 
L 253.614915 121.695438 
L 254.209956 123.447791 
L 254.507477 123.764211 
L 254.804997 123.669147 
L 255.102518 123.151542 
L 255.400039 122.215018 
L 255.99508 119.171867 
L 256.887642 112.347553 
L 258.672766 97.407696 
L 259.267807 94.218354 
L 259.565328 93.218489 
L 259.862849 92.655077 
L 260.160369 92.540436 
L 260.45789 92.872217 
L 260.755411 93.633465 
L 261.350452 96.307495 
L 262.243014 102.377523 
L 263.730617 113.113062 
L 264.325659 115.905777 
L 264.623179 116.755532 
L 264.9207 117.199928 
L 265.218221 117.225784 
L 265.515741 116.834584 
L 265.813262 116.042406 
L 266.408303 113.38875 
L 267.300865 107.545208 
L 268.490948 99.314664 
L 269.085989 96.381673 
L 269.38351 95.435179 
L 269.68103 94.894586 
L 269.978551 94.788132 
L 270.276072 95.129899 
L 270.573592 95.919298 
L 271.168634 98.766006 
L 271.763675 103.043378 
L 273.251278 116.638568 
L 274.14384 123.737766 
L 274.738882 126.912706 
L 275.036402 127.907001 
L 275.333923 128.48076 
L 275.631444 128.633313 
L 275.928964 128.378635 
L 276.226485 127.744874 
L 276.821526 125.5173 
L 277.714088 120.710052 
L 278.60665 115.952536 
L 279.201692 113.819044 
L 279.499212 113.254015 
L 279.796733 113.084616 
L 280.094254 113.340779 
L 280.391774 114.038343 
L 280.986816 116.747938 
L 281.581857 121.05042 
L 282.474419 129.631373 
L 283.962022 144.792027 
L 284.557064 149.411645 
L 285.152105 152.529382 
L 285.449626 153.455846 
L 285.747146 153.952195 
L 286.044667 154.030372 
L 286.342187 153.716567 
L 286.639708 153.050334 
L 287.234749 150.877215 
L 289.019873 142.801918 
L 289.317394 142.024093 
L 289.614915 141.583018 
L 289.912435 141.523236 
L 290.209956 141.876401 
L 290.507477 142.660239 
L 291.102518 145.517782 
L 291.697559 149.947518 
L 292.590121 158.706502 
L 294.077725 174.171817 
L 294.672766 178.907202 
L 295.267807 182.12165 
L 295.565328 183.084782 
L 295.862849 183.607392 
L 296.160369 183.699528 
L 296.45789 183.385498 
L 296.755411 182.703187 
L 297.350452 180.444594 
L 299.433097 170.672444 
L 299.730617 170.02634 
L 300.028138 169.74685 
L 300.325659 169.867509 
L 300.623179 170.407977 
L 300.9207 171.373411 
L 301.515741 174.526701 
L 302.110783 179.083871 
L 303.598386 193.434089 
L 304.490948 201.040439 
L 305.085989 204.532771 
L 305.38351 205.665102 
L 305.68103 206.355569 
L 305.978551 206.597644 
L 306.276072 206.399504 
L 306.573592 205.783744 
L 307.168634 203.456809 
L 308.061196 198.107354 
L 309.251278 190.625286 
L 309.84632 188.08095 
L 310.14384 187.317943 
L 310.441361 186.945804 
L 310.738882 186.986249 
L 311.036402 187.446564 
L 311.333923 188.31932 
L 311.928964 191.201041 
L 312.821526 197.652831 
L 314.30913 209.426527 
L 314.904171 212.731751 
L 315.499212 214.516305 
L 315.796733 214.756364 
L 316.094254 214.545717 
L 316.391774 213.890772 
L 316.986816 211.345381 
L 317.581857 207.445296 
L 319.962022 189.377024 
L 320.557064 187.088139 
L 320.854584 186.548572 
L 321.152105 186.429591 
L 321.449626 186.725947 
L 321.747146 187.417848 
L 322.342187 189.841075 
L 323.234749 195.224814 
L 324.424832 202.582293 
L 325.019873 204.981327 
L 325.317394 205.64489 
L 325.614915 205.896462 
L 325.912435 205.711636 
L 326.209956 205.0803 
L 326.507477 204.007091 
L 327.102518 200.625603 
L 327.99508 193.143986 
L 329.780204 176.394693 
L 330.375245 172.453559 
L 330.970287 170.056991 
L 331.267807 169.4932 
L 331.565328 169.353035 
L 331.862849 169.618782 
L 332.160369 170.258724 
L 332.755411 172.47155 
L 333.945493 178.779686 
L 334.540535 181.650681 
L 335.135576 183.544862 
L 335.433097 183.97821 
L 335.730617 184.01232 
L 336.028138 183.620982 
L 336.325659 182.792274 
L 336.9207 179.84832 
L 337.515741 175.373565 
L 338.408303 166.703094 
L 339.895907 151.925576 
L 340.490948 147.626231 
L 341.085989 144.892269 
L 341.38351 144.172333 
L 341.68103 143.88706 
L 341.978551 144.02068 
L 342.276072 144.543305 
L 342.871113 146.572365 
L 343.763675 151.125113 
L 344.656237 155.671466 
L 345.251278 157.694922 
L 345.548799 158.217798 
L 345.84632 158.355814 
L 346.14384 158.080918 
L 346.441361 157.379224 
L 347.036402 154.713031 
L 347.631444 150.535307 
L 348.524006 142.320142 
L 348.524006 142.320142 
" style="fill:none;stroke:#1f77b4;stroke-linecap:square;stroke-width:1.5;"/>
   </g>
   <g id="patch_3">
    <path d="M 28.942188 224.64 
L 28.942188 7.2 
" style="fill:none;stroke:#000000;stroke-linecap:square;stroke-linejoin:miter;stroke-width:0.8;"/>
   </g>
   <g id="patch_4">
    <path d="M 363.742188 224.64 
L 363.742188 7.2 
" style="fill:none;stroke:#000000;stroke-linecap:square;stroke-linejoin:miter;stroke-width:0.8;"/>
   </g>
   <g id="patch_5">
    <path d="M 28.942188 224.64 
L 363.742188 224.64 
" style="fill:none;stroke:#000000;stroke-linecap:square;stroke-linejoin:miter;stroke-width:0.8;"/>
   </g>
   <g id="patch_6">
    <path d="M 28.942188 7.2 
L 363.742188 7.2 
" style="fill:none;stroke:#000000;stroke-linecap:square;stroke-linejoin:miter;stroke-width:0.8;"/>
   </g>
  </g>
 </g>
 <defs>
  <clipPath id="p0294525807">
   <rect height="217.44" width="334.8" x="28.942188" y="7.2"/>
  </clipPath>
 </defs>
</svg>
