<?xml version="1.0" encoding="utf-8" standalone="no"?>
<!DOCTYPE svg PUBLIC "-//W3C//DTD SVG 1.1//EN"
  "http://www.w3.org/Graphics/SVG/1.1/DTD/svg11.dtd">
<!-- Created with matplotlib (https://matplotlib.org/) -->
<svg height="248.518125pt" version="1.1" viewBox="0 0 386.845312 248.518125" width="386.845312pt" xmlns="http://www.w3.org/2000/svg" xmlns:xlink="http://www.w3.org/1999/xlink">
 <metadata>
  <rdf:RDF xmlns:cc="http://creativecommons.org/ns#" xmlns:dc="http://purl.org/dc/elements/1.1/" xmlns:rdf="http://www.w3.org/1999/02/22-rdf-syntax-ns#">
   <cc:Work>
    <dc:type rdf:resource="http://purl.org/dc/dcmitype/StillImage"/>
    <dc:date>2021-06-20T20:35:20.664829</dc:date>
    <dc:format>image/svg+xml</dc:format>
    <dc:creator>
     <cc:Agent>
      <dc:title>Matplotlib v3.3.4, https://matplotlib.org/</dc:title>
     </cc:Agent>
    </dc:creator>
   </cc:Work>
  </rdf:RDF>
 </metadata>
 <defs>
  <style type="text/css">*{stroke-linecap:butt;stroke-linejoin:round;}</style>
 </defs>
 <g id="figure_1">
  <g id="patch_1">
   <path d="M 0 248.518125 
L 386.845312 248.518125 
L 386.845312 0 
L 0 0 
z
" style="fill:none;"/>
  </g>
  <g id="axes_1">
   <g id="patch_2">
    <path d="M 44.845313 224.64 
L 379.645313 224.64 
L 379.645313 7.2 
L 44.845313 7.2 
z
" style="fill:#ffffff;"/>
   </g>
   <g id="matplotlib.axis_1">
    <g id="xtick_1">
     <g id="line2d_1">
      <defs>
       <path d="M 0 0 
L 0 3.5 
" id="mfe7fb9f1a5" style="stroke:#000000;stroke-width:0.8;"/>
      </defs>
      <g>
       <use style="stroke:#000000;stroke-width:0.8;" x="60.063494" xlink:href="#mfe7fb9f1a5" y="224.64"/>
      </g>
     </g>
     <g id="text_1">
      <!-- 0.0 -->
      <g transform="translate(52.111932 239.238437)scale(0.1 -0.1)">
       <defs>
        <path d="M 31.78125 66.40625 
Q 24.171875 66.40625 20.328125 58.90625 
Q 16.5 51.421875 16.5 36.375 
Q 16.5 21.390625 20.328125 13.890625 
Q 24.171875 6.390625 31.78125 6.390625 
Q 39.453125 6.390625 43.28125 13.890625 
Q 47.125 21.390625 47.125 36.375 
Q 47.125 51.421875 43.28125 58.90625 
Q 39.453125 66.40625 31.78125 66.40625 
z
M 31.78125 74.21875 
Q 44.046875 74.21875 50.515625 64.515625 
Q 56.984375 54.828125 56.984375 36.375 
Q 56.984375 17.96875 50.515625 8.265625 
Q 44.046875 -1.421875 31.78125 -1.421875 
Q 19.53125 -1.421875 13.0625 8.265625 
Q 6.59375 17.96875 6.59375 36.375 
Q 6.59375 54.828125 13.0625 64.515625 
Q 19.53125 74.21875 31.78125 74.21875 
z
" id="DejaVuSans-48"/>
        <path d="M 10.6875 12.40625 
L 21 12.40625 
L 21 0 
L 10.6875 0 
z
" id="DejaVuSans-46"/>
       </defs>
       <use xlink:href="#DejaVuSans-48"/>
       <use x="63.623047" xlink:href="#DejaVuSans-46"/>
       <use x="95.410156" xlink:href="#DejaVuSans-48"/>
      </g>
     </g>
    </g>
    <g id="xtick_2">
     <g id="line2d_2">
      <g>
       <use style="stroke:#000000;stroke-width:0.8;" x="120.966673" xlink:href="#mfe7fb9f1a5" y="224.64"/>
      </g>
     </g>
     <g id="text_2">
      <!-- 0.2 -->
      <g transform="translate(113.015111 239.238437)scale(0.1 -0.1)">
       <defs>
        <path d="M 19.1875 8.296875 
L 53.609375 8.296875 
L 53.609375 0 
L 7.328125 0 
L 7.328125 8.296875 
Q 12.9375 14.109375 22.625 23.890625 
Q 32.328125 33.6875 34.8125 36.53125 
Q 39.546875 41.84375 41.421875 45.53125 
Q 43.3125 49.21875 43.3125 52.78125 
Q 43.3125 58.59375 39.234375 62.25 
Q 35.15625 65.921875 28.609375 65.921875 
Q 23.96875 65.921875 18.8125 64.3125 
Q 13.671875 62.703125 7.8125 59.421875 
L 7.8125 69.390625 
Q 13.765625 71.78125 18.9375 73 
Q 24.125 74.21875 28.421875 74.21875 
Q 39.75 74.21875 46.484375 68.546875 
Q 53.21875 62.890625 53.21875 53.421875 
Q 53.21875 48.921875 51.53125 44.890625 
Q 49.859375 40.875 45.40625 35.40625 
Q 44.1875 33.984375 37.640625 27.21875 
Q 31.109375 20.453125 19.1875 8.296875 
z
" id="DejaVuSans-50"/>
       </defs>
       <use xlink:href="#DejaVuSans-48"/>
       <use x="63.623047" xlink:href="#DejaVuSans-46"/>
       <use x="95.410156" xlink:href="#DejaVuSans-50"/>
      </g>
     </g>
    </g>
    <g id="xtick_3">
     <g id="line2d_3">
      <g>
       <use style="stroke:#000000;stroke-width:0.8;" x="181.869852" xlink:href="#mfe7fb9f1a5" y="224.64"/>
      </g>
     </g>
     <g id="text_3">
      <!-- 0.4 -->
      <g transform="translate(173.91829 239.238437)scale(0.1 -0.1)">
       <defs>
        <path d="M 37.796875 64.3125 
L 12.890625 25.390625 
L 37.796875 25.390625 
z
M 35.203125 72.90625 
L 47.609375 72.90625 
L 47.609375 25.390625 
L 58.015625 25.390625 
L 58.015625 17.1875 
L 47.609375 17.1875 
L 47.609375 0 
L 37.796875 0 
L 37.796875 17.1875 
L 4.890625 17.1875 
L 4.890625 26.703125 
z
" id="DejaVuSans-52"/>
       </defs>
       <use xlink:href="#DejaVuSans-48"/>
       <use x="63.623047" xlink:href="#DejaVuSans-46"/>
       <use x="95.410156" xlink:href="#DejaVuSans-52"/>
      </g>
     </g>
    </g>
    <g id="xtick_4">
     <g id="line2d_4">
      <g>
       <use style="stroke:#000000;stroke-width:0.8;" x="242.773031" xlink:href="#mfe7fb9f1a5" y="224.64"/>
      </g>
     </g>
     <g id="text_4">
      <!-- 0.6 -->
      <g transform="translate(234.821468 239.238437)scale(0.1 -0.1)">
       <defs>
        <path d="M 33.015625 40.375 
Q 26.375 40.375 22.484375 35.828125 
Q 18.609375 31.296875 18.609375 23.390625 
Q 18.609375 15.53125 22.484375 10.953125 
Q 26.375 6.390625 33.015625 6.390625 
Q 39.65625 6.390625 43.53125 10.953125 
Q 47.40625 15.53125 47.40625 23.390625 
Q 47.40625 31.296875 43.53125 35.828125 
Q 39.65625 40.375 33.015625 40.375 
z
M 52.59375 71.296875 
L 52.59375 62.3125 
Q 48.875 64.0625 45.09375 64.984375 
Q 41.3125 65.921875 37.59375 65.921875 
Q 27.828125 65.921875 22.671875 59.328125 
Q 17.53125 52.734375 16.796875 39.40625 
Q 19.671875 43.65625 24.015625 45.921875 
Q 28.375 48.1875 33.59375 48.1875 
Q 44.578125 48.1875 50.953125 41.515625 
Q 57.328125 34.859375 57.328125 23.390625 
Q 57.328125 12.15625 50.6875 5.359375 
Q 44.046875 -1.421875 33.015625 -1.421875 
Q 20.359375 -1.421875 13.671875 8.265625 
Q 6.984375 17.96875 6.984375 36.375 
Q 6.984375 53.65625 15.1875 63.9375 
Q 23.390625 74.21875 37.203125 74.21875 
Q 40.921875 74.21875 44.703125 73.484375 
Q 48.484375 72.75 52.59375 71.296875 
z
" id="DejaVuSans-54"/>
       </defs>
       <use xlink:href="#DejaVuSans-48"/>
       <use x="63.623047" xlink:href="#DejaVuSans-46"/>
       <use x="95.410156" xlink:href="#DejaVuSans-54"/>
      </g>
     </g>
    </g>
    <g id="xtick_5">
     <g id="line2d_5">
      <g>
       <use style="stroke:#000000;stroke-width:0.8;" x="303.67621" xlink:href="#mfe7fb9f1a5" y="224.64"/>
      </g>
     </g>
     <g id="text_5">
      <!-- 0.8 -->
      <g transform="translate(295.724647 239.238437)scale(0.1 -0.1)">
       <defs>
        <path d="M 31.78125 34.625 
Q 24.75 34.625 20.71875 30.859375 
Q 16.703125 27.09375 16.703125 20.515625 
Q 16.703125 13.921875 20.71875 10.15625 
Q 24.75 6.390625 31.78125 6.390625 
Q 38.8125 6.390625 42.859375 10.171875 
Q 46.921875 13.96875 46.921875 20.515625 
Q 46.921875 27.09375 42.890625 30.859375 
Q 38.875 34.625 31.78125 34.625 
z
M 21.921875 38.8125 
Q 15.578125 40.375 12.03125 44.71875 
Q 8.5 49.078125 8.5 55.328125 
Q 8.5 64.0625 14.71875 69.140625 
Q 20.953125 74.21875 31.78125 74.21875 
Q 42.671875 74.21875 48.875 69.140625 
Q 55.078125 64.0625 55.078125 55.328125 
Q 55.078125 49.078125 51.53125 44.71875 
Q 48 40.375 41.703125 38.8125 
Q 48.828125 37.15625 52.796875 32.3125 
Q 56.78125 27.484375 56.78125 20.515625 
Q 56.78125 9.90625 50.3125 4.234375 
Q 43.84375 -1.421875 31.78125 -1.421875 
Q 19.734375 -1.421875 13.25 4.234375 
Q 6.78125 9.90625 6.78125 20.515625 
Q 6.78125 27.484375 10.78125 32.3125 
Q 14.796875 37.15625 21.921875 38.8125 
z
M 18.3125 54.390625 
Q 18.3125 48.734375 21.84375 45.5625 
Q 25.390625 42.390625 31.78125 42.390625 
Q 38.140625 42.390625 41.71875 45.5625 
Q 45.3125 48.734375 45.3125 54.390625 
Q 45.3125 60.0625 41.71875 63.234375 
Q 38.140625 66.40625 31.78125 66.40625 
Q 25.390625 66.40625 21.84375 63.234375 
Q 18.3125 60.0625 18.3125 54.390625 
z
" id="DejaVuSans-56"/>
       </defs>
       <use xlink:href="#DejaVuSans-48"/>
       <use x="63.623047" xlink:href="#DejaVuSans-46"/>
       <use x="95.410156" xlink:href="#DejaVuSans-56"/>
      </g>
     </g>
    </g>
    <g id="xtick_6">
     <g id="line2d_6">
      <g>
       <use style="stroke:#000000;stroke-width:0.8;" x="364.579389" xlink:href="#mfe7fb9f1a5" y="224.64"/>
      </g>
     </g>
     <g id="text_6">
      <!-- 1.0 -->
      <g transform="translate(356.627826 239.238437)scale(0.1 -0.1)">
       <defs>
        <path d="M 12.40625 8.296875 
L 28.515625 8.296875 
L 28.515625 63.921875 
L 10.984375 60.40625 
L 10.984375 69.390625 
L 28.421875 72.90625 
L 38.28125 72.90625 
L 38.28125 8.296875 
L 54.390625 8.296875 
L 54.390625 0 
L 12.40625 0 
z
" id="DejaVuSans-49"/>
       </defs>
       <use xlink:href="#DejaVuSans-49"/>
       <use x="63.623047" xlink:href="#DejaVuSans-46"/>
       <use x="95.410156" xlink:href="#DejaVuSans-48"/>
      </g>
     </g>
    </g>
   </g>
   <g id="matplotlib.axis_2">
    <g id="ytick_1">
     <g id="line2d_7">
      <defs>
       <path d="M 0 0 
L -3.5 0 
" id="mbc86bf0ed4" style="stroke:#000000;stroke-width:0.8;"/>
      </defs>
      <g>
       <use style="stroke:#000000;stroke-width:0.8;" x="44.845313" xlink:href="#mbc86bf0ed4" y="214.756641"/>
      </g>
     </g>
     <g id="text_7">
      <!-- −1.00 -->
      <g transform="translate(7.2 218.555859)scale(0.1 -0.1)">
       <defs>
        <path d="M 10.59375 35.5 
L 73.1875 35.5 
L 73.1875 27.203125 
L 10.59375 27.203125 
z
" id="DejaVuSans-8722"/>
       </defs>
       <use xlink:href="#DejaVuSans-8722"/>
       <use x="83.789062" xlink:href="#DejaVuSans-49"/>
       <use x="147.412109" xlink:href="#DejaVuSans-46"/>
       <use x="179.199219" xlink:href="#DejaVuSans-48"/>
       <use x="242.822266" xlink:href="#DejaVuSans-48"/>
      </g>
     </g>
    </g>
    <g id="ytick_2">
     <g id="line2d_8">
      <g>
       <use style="stroke:#000000;stroke-width:0.8;" x="44.845313" xlink:href="#mbc86bf0ed4" y="190.047511"/>
      </g>
     </g>
     <g id="text_8">
      <!-- −0.75 -->
      <g transform="translate(7.2 193.84673)scale(0.1 -0.1)">
       <defs>
        <path d="M 8.203125 72.90625 
L 55.078125 72.90625 
L 55.078125 68.703125 
L 28.609375 0 
L 18.3125 0 
L 43.21875 64.59375 
L 8.203125 64.59375 
z
" id="DejaVuSans-55"/>
        <path d="M 10.796875 72.90625 
L 49.515625 72.90625 
L 49.515625 64.59375 
L 19.828125 64.59375 
L 19.828125 46.734375 
Q 21.96875 47.46875 24.109375 47.828125 
Q 26.265625 48.1875 28.421875 48.1875 
Q 40.625 48.1875 47.75 41.5 
Q 54.890625 34.8125 54.890625 23.390625 
Q 54.890625 11.625 47.5625 5.09375 
Q 40.234375 -1.421875 26.90625 -1.421875 
Q 22.3125 -1.421875 17.546875 -0.640625 
Q 12.796875 0.140625 7.71875 1.703125 
L 7.71875 11.625 
Q 12.109375 9.234375 16.796875 8.0625 
Q 21.484375 6.890625 26.703125 6.890625 
Q 35.15625 6.890625 40.078125 11.328125 
Q 45.015625 15.765625 45.015625 23.390625 
Q 45.015625 31 40.078125 35.4375 
Q 35.15625 39.890625 26.703125 39.890625 
Q 22.75 39.890625 18.8125 39.015625 
Q 14.890625 38.140625 10.796875 36.28125 
z
" id="DejaVuSans-53"/>
       </defs>
       <use xlink:href="#DejaVuSans-8722"/>
       <use x="83.789062" xlink:href="#DejaVuSans-48"/>
       <use x="147.412109" xlink:href="#DejaVuSans-46"/>
       <use x="179.199219" xlink:href="#DejaVuSans-55"/>
       <use x="242.822266" xlink:href="#DejaVuSans-53"/>
      </g>
     </g>
    </g>
    <g id="ytick_3">
     <g id="line2d_9">
      <g>
       <use style="stroke:#000000;stroke-width:0.8;" x="44.845313" xlink:href="#mbc86bf0ed4" y="165.338382"/>
      </g>
     </g>
     <g id="text_9">
      <!-- −0.50 -->
      <g transform="translate(7.2 169.137601)scale(0.1 -0.1)">
       <use xlink:href="#DejaVuSans-8722"/>
       <use x="83.789062" xlink:href="#DejaVuSans-48"/>
       <use x="147.412109" xlink:href="#DejaVuSans-46"/>
       <use x="179.199219" xlink:href="#DejaVuSans-53"/>
       <use x="242.822266" xlink:href="#DejaVuSans-48"/>
      </g>
     </g>
    </g>
    <g id="ytick_4">
     <g id="line2d_10">
      <g>
       <use style="stroke:#000000;stroke-width:0.8;" x="44.845313" xlink:href="#mbc86bf0ed4" y="140.629253"/>
      </g>
     </g>
     <g id="text_10">
      <!-- −0.25 -->
      <g transform="translate(7.2 144.428472)scale(0.1 -0.1)">
       <use xlink:href="#DejaVuSans-8722"/>
       <use x="83.789062" xlink:href="#DejaVuSans-48"/>
       <use x="147.412109" xlink:href="#DejaVuSans-46"/>
       <use x="179.199219" xlink:href="#DejaVuSans-50"/>
       <use x="242.822266" xlink:href="#DejaVuSans-53"/>
      </g>
     </g>
    </g>
    <g id="ytick_5">
     <g id="line2d_11">
      <g>
       <use style="stroke:#000000;stroke-width:0.8;" x="44.845313" xlink:href="#mbc86bf0ed4" y="115.920124"/>
      </g>
     </g>
     <g id="text_11">
      <!-- 0.00 -->
      <g transform="translate(15.579688 119.719342)scale(0.1 -0.1)">
       <use xlink:href="#DejaVuSans-48"/>
       <use x="63.623047" xlink:href="#DejaVuSans-46"/>
       <use x="95.410156" xlink:href="#DejaVuSans-48"/>
       <use x="159.033203" xlink:href="#DejaVuSans-48"/>
      </g>
     </g>
    </g>
    <g id="ytick_6">
     <g id="line2d_12">
      <g>
       <use style="stroke:#000000;stroke-width:0.8;" x="44.845313" xlink:href="#mbc86bf0ed4" y="91.210995"/>
      </g>
     </g>
     <g id="text_12">
      <!-- 0.25 -->
      <g transform="translate(15.579688 95.010213)scale(0.1 -0.1)">
       <use xlink:href="#DejaVuSans-48"/>
       <use x="63.623047" xlink:href="#DejaVuSans-46"/>
       <use x="95.410156" xlink:href="#DejaVuSans-50"/>
       <use x="159.033203" xlink:href="#DejaVuSans-53"/>
      </g>
     </g>
    </g>
    <g id="ytick_7">
     <g id="line2d_13">
      <g>
       <use style="stroke:#000000;stroke-width:0.8;" x="44.845313" xlink:href="#mbc86bf0ed4" y="66.501865"/>
      </g>
     </g>
     <g id="text_13">
      <!-- 0.50 -->
      <g transform="translate(15.579688 70.301084)scale(0.1 -0.1)">
       <use xlink:href="#DejaVuSans-48"/>
       <use x="63.623047" xlink:href="#DejaVuSans-46"/>
       <use x="95.410156" xlink:href="#DejaVuSans-53"/>
       <use x="159.033203" xlink:href="#DejaVuSans-48"/>
      </g>
     </g>
    </g>
    <g id="ytick_8">
     <g id="line2d_14">
      <g>
       <use style="stroke:#000000;stroke-width:0.8;" x="44.845313" xlink:href="#mbc86bf0ed4" y="41.792736"/>
      </g>
     </g>
     <g id="text_14">
      <!-- 0.75 -->
      <g transform="translate(15.579688 45.591955)scale(0.1 -0.1)">
       <use xlink:href="#DejaVuSans-48"/>
       <use x="63.623047" xlink:href="#DejaVuSans-46"/>
       <use x="95.410156" xlink:href="#DejaVuSans-55"/>
       <use x="159.033203" xlink:href="#DejaVuSans-53"/>
      </g>
     </g>
    </g>
    <g id="ytick_9">
     <g id="line2d_15">
      <g>
       <use style="stroke:#000000;stroke-width:0.8;" x="44.845313" xlink:href="#mbc86bf0ed4" y="17.083607"/>
      </g>
     </g>
     <g id="text_15">
      <!-- 1.00 -->
      <g transform="translate(15.579688 20.882826)scale(0.1 -0.1)">
       <use xlink:href="#DejaVuSans-49"/>
       <use x="63.623047" xlink:href="#DejaVuSans-46"/>
       <use x="95.410156" xlink:href="#DejaVuSans-48"/>
       <use x="159.033203" xlink:href="#DejaVuSans-48"/>
      </g>
     </g>
    </g>
   </g>
   <g id="line2d_16">
    <path clip-path="url(#pa52c95c40e)" d="M 60.063494 115.920124 
L 60.215752 18.821492 
L 60.36801 79.6631 
L 60.520268 199.480236 
L 60.672526 183.378833 
L 60.824784 57.549361 
L 60.977042 26.665536 
L 61.281558 214.525768 
L 61.586074 21.712062 
L 61.738332 68.965444 
L 61.89059 192.595118 
L 62.042848 191.505557 
L 62.347364 22.242857 
L 62.651879 214.627749 
L 62.956395 25.945005 
L 63.108653 58.936842 
L 63.260911 184.617452 
L 63.413169 198.555266 
L 63.717685 19.154988 
L 64.022201 213.323238 
L 64.174459 150.582298 
L 64.326717 31.460008 
L 64.478975 49.720198 
L 64.631233 175.660918 
L 64.783491 204.4275 
L 65.088007 17.445922 
L 65.392522 210.630827 
L 65.54478 161.364365 
L 65.697038 38.178484 
L 65.849296 41.446839 
L 66.153812 209.0386 
L 66.458328 17.14002 
L 66.762844 206.588886 
L 66.915102 171.498892 
L 67.06736 46.004701 
L 67.219618 34.234653 
L 67.524134 212.322844 
L 67.82865 18.241641 
L 67.980908 82.863154 
L 68.133166 201.254999 
L 68.285423 180.841483 
L 68.437681 54.827141 
L 68.589939 28.186398 
L 68.894455 214.233451 
L 69.198971 20.735079 
L 69.351229 71.999905 
L 69.503487 194.70518 
L 69.655745 189.259003 
L 69.960261 23.388267 
L 70.264777 214.743185 
L 70.569293 24.584811 
L 70.721551 61.762475 
L 70.873809 187.032751 
L 71.026067 196.631516 
L 71.330582 19.908627 
L 71.635098 213.84479 
L 71.787356 147.362006 
L 71.939614 29.735985 
L 72.091872 52.296736 
L 72.24413 178.347031 
L 72.396388 202.853972 
L 72.700904 17.79705 
L 73.00542 211.551061 
L 73.157678 158.303197 
L 73.309936 36.115197 
L 73.462194 43.73757 
L 73.76671 207.837708 
L 74.071225 17.083636 
L 74.375741 207.894687 
L 74.527999 168.64047 
L 74.680257 43.631554 
L 74.832515 36.206934 
L 75.137031 211.511702 
L 75.441547 17.778546 
L 75.746063 202.927764 
L 75.898321 178.226529 
L 76.050579 52.177948 
L 76.202837 29.812134 
L 76.507353 213.823617 
L 76.811869 19.871872 
L 76.964126 75.086864 
L 77.116384 196.721067 
L 77.268642 186.924784 
L 77.573158 24.644282 
L 77.877674 214.740499 
L 78.18219 23.333798 
L 78.334448 64.652839 
L 78.486706 189.36304 
L 78.638964 194.611294 
L 78.94348 20.77703 
L 79.247996 214.249292 
L 79.552512 28.11498 
L 79.70477 54.949317 
L 79.857027 180.958522 
L 80.009285 201.176529 
L 80.313801 18.265471 
L 80.618317 212.356983 
L 80.770575 155.191369 
L 80.922833 34.147305 
L 81.075091 46.114576 
L 81.379607 206.526947 
L 81.684123 17.145393 
L 81.988639 209.090548 
L 82.140897 165.719031 
L 82.293155 41.344811 
L 82.445413 38.274497 
L 82.749928 210.586302 
L 83.054444 17.432756 
L 83.35896 204.496527 
L 83.511218 175.537105 
L 83.663476 49.604944 
L 83.815734 31.540787 
L 84.12025 213.296757 
L 84.424766 19.12347 
L 84.577024 78.222628 
L 84.729282 198.640381 
L 84.88154 184.505698 
L 85.033798 58.810001 
L 85.186056 26.009401 
L 85.490571 214.619696 
L 85.795087 22.193443 
L 85.947345 67.604482 
L 86.099603 191.605546 
L 86.251861 192.497008 
L 86.556377 21.759156 
L 86.860893 214.53626 
L 87.165409 26.598931 
L 87.317667 57.674783 
L 87.469925 183.492273 
L 87.622183 199.397177 
L 87.926699 18.850612 
L 88.231215 213.04764 
L 88.383472 152.0326 
L 88.53573 32.277153 
L 88.687988 48.575024 
L 88.840246 174.416161 
L 88.992504 205.107883 
L 89.29702 17.325213 
L 89.601536 210.175049 
L 89.753794 162.738064 
L 89.906052 39.147207 
L 90.05831 40.434863 
L 90.362826 209.547746 
L 90.667342 17.204693 
L 90.971858 205.959414 
L 91.124116 172.776416 
L 91.276373 47.111206 
L 91.428631 33.370303 
L 91.733147 212.653506 
L 92.037663 18.490771 
L 92.189921 81.403457 
L 92.342179 200.460812 
L 92.494437 182.004625 
L 92.646695 56.055657 
L 92.798953 27.481985 
L 93.103469 214.380911 
L 93.407985 21.165125 
L 93.560243 70.613876 
L 93.712501 193.757589 
L 93.864759 190.291191 
L 94.169274 22.853831 
L 94.47379 214.705352 
L 94.778306 25.189646 
L 94.930564 60.469864 
L 95.082822 185.945251 
L 95.23508 197.518047 
L 95.539596 19.551778 
L 95.844112 213.622194 
L 95.99637 148.830667 
L 96.148628 30.506985 
L 96.300886 51.115968 
L 96.453144 177.135129 
L 96.605402 203.582214 
L 96.909918 17.62288 
L 97.214433 211.146883 
L 97.366691 159.701138 
L 97.518949 37.041375 
L 97.671207 42.685464 
L 97.975723 208.397276 
L 98.280239 17.094623 
L 98.584755 207.314677 
L 98.737013 169.947773 
L 98.889271 44.699713 
L 99.041529 35.298482 
L 99.346045 211.894631 
L 99.650561 17.974532 
L 99.802819 84.62554 
L 99.955076 202.180193 
L 100.107334 179.424564 
L 100.259592 53.372872 
L 100.41185 29.060286 
L 100.716366 214.024446 
L 101.020882 20.250064 
L 101.17314 73.677427 
L 101.325398 195.816586 
L 101.477656 187.996484 
L 101.782172 24.059748 
L 102.086688 214.756364 
L 102.391204 23.888806 
L 102.543462 63.331232 
L 102.69572 188.314534 
L 102.847977 195.541383 
L 103.152493 20.368139 
L 103.457009 214.079969 
L 103.761525 28.838904 
L 103.913783 53.734375 
L 104.066041 179.780935 
L 104.218299 201.951759 
L 104.522815 18.038044 
L 104.827331 212.004889 
L 104.979589 156.611882 
L 105.131847 35.029824 
L 105.284105 45.023601 
L 105.588621 207.136265 
L 105.893136 17.102676 
L 106.197652 208.560701 
L 106.34991 167.054547 
L 106.502168 42.373353 
L 106.654426 37.323035 
L 106.958942 211.021037 
L 107.263458 17.575362 
L 107.567974 203.796468 
L 107.720232 176.768601 
L 107.87249 50.764846 
L 108.024748 30.742406 
L 108.329264 213.550712 
L 108.633779 19.449361 
L 108.786037 76.791467 
L 108.938295 197.780089 
L 109.090553 185.615619 
L 109.395069 25.37547 
L 109.699585 214.68924 
L 110.004101 22.697975 
L 110.156359 66.255452 
L 110.308617 190.597282 
L 110.460875 193.469548 
L 110.765391 21.298706 
L 111.069907 214.420411 
L 111.374423 27.274913 
L 111.52668 56.427109 
L 111.678938 182.350398 
L 111.831196 200.218475 
L 112.135712 18.570206 
L 112.440228 212.748053 
L 112.592486 153.473985 
L 112.744744 33.114958 
L 112.897002 47.446481 
L 113.04926 173.156953 
L 113.201518 205.766227 
L 113.506034 17.228846 
L 113.81055 209.695984 
L 113.962808 164.100202 
L 114.115066 40.1349 
L 114.267324 39.441539 
L 114.571839 210.033769 
L 114.876355 17.293743 
L 115.180871 205.307704 
L 115.333129 174.039901 
L 115.485387 48.2347 
L 115.637645 32.526335 
L 115.942161 212.960274 
L 116.246677 18.763971 
L 116.398935 79.95228 
L 116.551193 199.645741 
L 116.703451 183.151448 
L 116.855709 57.298953 
L 117.007967 26.799417 
L 117.312482 214.504059 
L 117.616998 21.618576 
L 117.769256 69.23904 
L 117.921514 192.790768 
L 118.073772 191.305017 
L 118.378288 22.342382 
L 118.682804 214.643119 
L 118.98732 25.816885 
L 119.139578 59.190956 
L 119.291836 184.840466 
L 119.444094 198.384429 
L 119.74861 19.21873 
L 120.053125 213.375474 
L 120.205383 150.291198 
L 120.357641 31.299075 
L 120.509899 49.951206 
L 120.662157 175.908115 
L 120.814415 204.2888 
L 121.118931 17.472986 
L 121.423447 210.719182 
L 121.575705 161.088266 
L 121.727963 37.987034 
L 121.880221 41.651449 
L 122.184737 208.934003 
L 122.489253 17.130017 
L 122.793769 206.712098 
L 122.946026 171.241733 
L 123.098284 45.785463 
L 123.250542 34.409949 
L 123.555058 212.253853 
L 123.859574 18.194707 
L 124.011832 83.156087 
L 124.16409 201.41132 
L 124.316348 180.606916 
L 124.468606 54.583243 
L 124.620864 28.329888 
L 124.92538 214.201044 
L 125.229896 20.651891 
L 125.382154 72.278422 
L 125.534412 194.892371 
L 125.68667 189.050381 
L 125.991185 23.497906 
L 126.295701 214.747822 
L 126.600217 24.466547 
L 126.752475 62.022609 
L 126.904733 187.248148 
L 127.056991 196.451808 
L 127.361507 19.982843 
L 127.666023 213.886405 
L 127.818281 147.067332 
L 127.970539 29.584336 
L 128.122797 52.534785 
L 128.275055 178.587572 
L 128.427313 202.705739 
L 128.731828 17.834795 
L 129.036344 211.629065 
L 129.188602 158.022341 
L 129.34086 35.932319 
L 129.493118 43.950139 
L 129.797634 207.723061 
L 130.10215 17.084367 
L 130.406666 208.007967 
L 130.558924 168.377438 
L 130.711182 43.420057 
L 130.86344 36.39099 
L 131.167956 211.432284 
L 131.472472 17.742257 
L 131.776987 203.074706 
L 131.929245 177.985064 
L 132.081503 51.940842 
L 132.233761 29.965061 
L 132.538277 213.780547 
L 132.842793 19.799075 
L 132.995051 75.369971 
L 133.147309 196.89958 
L 133.299567 186.708333 
L 133.604083 24.763901 
L 133.908599 214.734396 
L 134.213115 23.225531 
L 134.365373 64.918687 
L 134.51763 189.570572 
L 134.669888 194.422937 
L 134.974404 20.861632 
L 135.27892 214.280238 
L 135.583436 27.972792 
L 135.735694 55.194128 
L 135.887952 181.192122 
L 136.04021 201.018948 
L 136.344726 18.313849 
L 136.649242 212.424548 
L 136.8015 154.906091 
L 136.953758 33.973217 
L 137.106016 46.334851 
L 137.410531 206.402391 
L 137.715047 17.156863 
L 138.019563 209.19376 
L 138.171821 165.450437 
L 138.324079 41.141302 
L 138.476337 38.467095 
L 138.780853 210.496545 
L 139.085369 17.407153 
L 139.389885 204.633919 
L 139.542143 175.28903 
L 139.694401 49.37492 
L 139.846659 31.70297 
L 140.151175 213.243077 
L 140.45569 19.06116 
L 140.607948 78.509991 
L 140.760206 198.809992 
L 140.912464 184.28167 
L 141.064722 58.556736 
L 141.21698 26.138858 
L 141.521496 214.602859 
L 141.826012 22.095314 
L 141.97827 67.875729 
L 142.130528 191.804967 
L 142.282786 192.300227 
L 142.587302 21.854038 
L 142.891818 214.556508 
L 143.196333 26.466375 
L 143.348591 57.926057 
L 143.500849 183.718651 
L 143.653107 199.230441 
L 143.957623 18.90957 
L 144.262139 213.104677 
L 144.414397 151.743243 
L 144.566655 32.112066 
L 144.718913 48.802739 
L 144.871171 174.66628 
L 145.023429 204.97356 
L 145.327945 17.347405 
L 145.632461 210.26807 
L 145.784719 162.464239 
L 145.936977 38.95194 
L 146.089234 40.63578 
L 146.39375 209.447762 
L 146.698266 17.189806 
L 147.002782 206.087092 
L 147.15504 172.522026 
L 147.307298 46.888533 
L 147.459556 33.541546 
L 147.764072 212.589281 
L 148.068588 18.439017 
L 148.220846 81.694725 
L 148.373104 200.621327 
L 148.525362 181.773292 
L 148.67762 55.80876 
L 148.829878 27.621128 
L 149.134393 214.353364 
L 149.438909 21.077241 
L 149.591167 70.890198 
L 149.743425 193.948649 
L 149.895683 190.086216 
L 150.200199 22.958887 
L 150.504715 214.714867 
L 150.809231 25.066881 
L 150.961489 60.7273 
L 151.113747 186.164147 
L 151.266005 197.342344 
L 151.570521 19.621246 
L 151.875036 213.668646 
L 152.027294 148.537575 
L 152.179552 30.351088 
L 152.33181 51.350853 
L 152.484068 177.378732 
L 152.636326 203.438288 
L 152.940842 17.655776 
L 153.245358 211.2296 
L 153.397616 159.422403 
L 153.549874 36.854573 
L 153.702132 42.894445 
L 154.006648 208.287182 
L 154.311164 17.09047 
L 154.61568 207.432488 
L 154.767937 169.687369 
L 154.920195 44.484664 
L 155.072453 35.478591 
L 155.376969 211.819937 
L 155.681485 17.933394 
L 155.833743 84.92037 
L 155.986001 202.331418 
L 156.138259 179.186203 
L 156.290517 53.132639 
L 156.442775 29.208942 
L 156.747291 213.986212 
L 157.051807 20.172537 
L 157.204065 73.958489 
L 157.356323 195.99907 
L 157.50858 187.783562 
L 157.813096 24.174849 
L 158.117612 214.755144 
L 158.422128 23.775985 
L 158.574386 63.594523 
L 158.726644 188.525671 
L 158.878902 195.356932 
L 159.183418 20.448029 
L 159.487934 214.115776 
L 159.79245 28.692392 
L 159.944708 53.97614 
L 160.096966 180.017722 
L 160.249224 201.798407 
L 160.553739 18.081597 
L 160.858255 212.077208 
L 161.010513 156.328572 
L 161.162771 34.851712 
L 161.315029 45.240405 
L 161.619545 207.016198 
L 161.924061 17.109269 
L 162.228577 208.668503 
L 162.380835 166.788445 
L 162.533093 42.16618 
L 162.685351 37.51178 
L 162.989867 210.935963 
L 163.294382 17.544899 
L 163.598898 203.93822 
L 163.751156 176.523495 
L 163.903414 50.53157 
L 164.055672 30.900405 
L 164.360188 213.501845 
L 164.664704 19.382273 
L 164.816962 77.076939 
L 164.96922 197.953771 
L 165.121478 185.395003 
L 165.425994 25.500473 
L 165.73051 214.677281 
L 166.035026 22.595223 
L 166.187283 66.524287 
L 166.339541 190.800419 
L 166.491799 193.276567 
L 166.796315 21.388928 
L 167.100831 214.445531 
L 167.405347 27.137962 
L 167.557605 56.675479 
L 167.709863 182.580098 
L 167.862121 200.055874 
L 168.166637 18.624369 
L 168.471153 212.809886 
L 168.623411 153.186437 
L 168.775669 32.945759 
L 168.927927 47.670844 
L 169.080184 173.409935 
L 169.232442 205.636328 
L 169.536958 17.246172 
L 169.841474 209.793653 
L 169.993732 163.828716 
L 170.14599 39.935857 
L 170.298248 39.638697 
L 170.602764 209.938421 
L 170.90728 17.273984 
L 171.211796 205.439818 
L 171.364054 173.788345 
L 171.516312 48.008658 
L 171.66857 32.69349 
L 171.973085 212.900839 
L 172.277601 18.70741 
L 172.429859 80.241817 
L 172.582117 199.810415 
L 172.734375 182.923403 
L 172.886633 57.049129 
L 173.038891 26.934176 
L 173.343407 214.481378 
L 173.647923 21.526015 
L 173.800181 69.513094 
L 173.952439 192.985658 
L 174.104697 191.103735 
L 174.409213 22.442825 
L 174.713729 214.657517 
L 175.018244 25.689649 
L 175.170502 59.445629 
L 175.32276 185.062791 
L 175.475018 198.212774 
L 175.779534 19.283432 
L 176.08405 213.426745 
L 176.236308 149.999761 
L 176.388566 31.138978 
L 176.540824 50.182863 
L 176.693082 176.154712 
L 176.84534 204.149222 
L 177.149856 17.501022 
L 177.454372 210.8066 
L 177.60663 160.811723 
L 177.758887 37.796357 
L 177.911145 41.856796 
L 178.215661 208.828493 
L 178.520177 17.120986 
L 178.824693 206.83441 
L 178.976951 170.984021 
L 179.129209 45.566915 
L 179.281467 34.586052 
L 179.585983 212.183908 
L 179.890499 18.148738 
L 180.042757 83.449341 
L 180.195015 201.566786 
L 180.347273 180.371719 
L 180.499531 54.339946 
L 180.651788 28.474244 
L 180.956304 214.167664 
L 181.26082 20.569639 
L 181.413078 72.557372 
L 181.565336 195.078783 
L 181.717594 188.84104 
L 182.02211 23.608453 
L 182.326626 214.751486 
L 182.631142 24.34919 
L 182.7834 62.283279 
L 182.935658 187.462843 
L 183.087916 196.27131 
L 183.392432 20.058008 
L 183.696947 213.927054 
L 183.849205 146.772346 
L 184.001463 29.433535 
L 184.153721 52.773457 
L 184.305979 178.827487 
L 184.458237 202.556653 
L 184.762753 17.873511 
L 185.067269 211.706127 
L 185.219527 157.74107 
L 185.371785 35.750231 
L 185.524043 44.163415 
L 185.828559 207.607513 
L 186.133075 17.086081 
L 186.43759 208.120334 
L 186.589848 168.113887 
L 186.742106 43.209272 
L 186.894364 36.575835 
L 187.19888 211.351917 
L 187.503396 17.706934 
L 187.807912 203.220788 
L 187.96017 177.742992 
L 188.112428 51.704367 
L 188.264686 30.118837 
L 188.569202 213.736511 
L 188.873718 19.727233 
L 189.025976 75.653481 
L 189.178234 197.077285 
L 189.330491 186.49118 
L 189.635007 24.884416 
L 189.939523 214.72732 
L 190.244039 23.118183 
L 190.396297 65.185042 
L 190.548555 189.77738 
L 190.700813 194.233803 
L 191.005329 20.947171 
L 191.309845 214.310218 
L 191.614361 27.831476 
L 191.766619 55.439535 
L 191.918877 181.425074 
L 192.071135 200.86053 
L 192.37565 18.363193 
L 192.680166 212.491159 
L 192.832424 154.620428 
L 192.984682 33.799942 
L 193.13694 46.555809 
L 193.441456 206.276939 
L 193.745972 17.169311 
L 194.050488 209.296054 
L 194.202746 165.18136 
L 194.355004 40.938536 
L 194.507262 38.660459 
L 194.811778 210.405857 
L 195.116293 17.382528 
L 195.420809 204.770434 
L 195.573067 175.040366 
L 195.725325 49.145549 
L 195.877583 31.865983 
L 196.182099 213.188443 
L 196.486615 18.999804 
L 196.638873 78.797722 
L 196.791131 198.978784 
L 196.943389 184.056966 
L 197.095647 58.304036 
L 197.247905 26.269199 
L 197.552421 214.58505 
L 197.856936 21.998105 
L 198.009194 68.147454 
L 198.161452 192.003633 
L 198.31371 192.102686 
L 198.618226 21.949851 
L 198.922742 214.575777 
L 199.227258 26.334702 
L 199.379516 58.177896 
L 199.531774 183.944363 
L 199.684032 199.062874 
L 199.988548 18.969488 
L 200.293064 213.160761 
L 200.445322 151.45353 
L 200.59758 31.947804 
L 200.749837 49.031114 
L 200.902095 174.915816 
L 201.054353 204.838364 
L 201.358869 17.370575 
L 201.663385 210.36016 
L 201.815643 162.189952 
L 201.967901 38.757427 
L 202.120159 40.837433 
L 202.424675 209.346853 
L 202.729191 17.175897 
L 203.033707 206.213881 
L 203.185965 172.267076 
L 203.338223 46.666544 
L 203.490481 33.713607 
L 203.794996 212.524102 
L 204.099512 18.38823 
L 204.25177 81.986332 
L 204.404028 200.781006 
L 204.556286 181.541312 
L 204.708544 55.562459 
L 204.860802 27.761142 
L 205.165318 214.324845 
L 205.469834 20.990294 
L 205.622092 71.166963 
L 205.77435 194.138944 
L 205.926608 189.88051 
L 206.231124 23.064856 
L 206.535639 214.723415 
L 206.840155 24.945012 
L 206.992413 60.985283 
L 207.144671 186.382342 
L 207.296929 197.16584 
L 207.601445 19.691669 
L 207.905961 213.714131 
L 208.058219 148.244159 
L 208.210477 30.19604 
L 208.362735 51.586368 
L 208.514993 177.621723 
L 208.667251 203.293502 
L 208.971767 17.689638 
L 209.276283 211.311381 
L 209.42854 159.143241 
L 209.580798 36.668556 
L 209.733056 43.104151 
L 210.037572 208.176182 
L 210.342088 17.087301 
L 210.646604 207.549397 
L 210.798862 169.426433 
L 210.95112 44.270321 
L 211.103378 35.65949 
L 211.407894 211.744301 
L 211.71241 17.893229 
L 211.864668 85.215506 
L 212.016926 202.481789 
L 212.169184 178.947218 
L 212.321441 52.893029 
L 212.473699 29.445105 
L 212.778215 213.652645 
L 213.082731 20.575548 
L 213.234989 74.4903 
L 213.387247 195.618374 
L 213.539505 186.996155 
L 213.844021 25.208062 
L 214.148537 213.565769 
L 214.453053 24.956941 
L 214.605311 64.640043 
L 214.757569 187.569873 
L 214.909827 193.823068 
L 215.214342 22.343112 
L 215.518858 212.085703 
L 215.823374 30.558344 
L 215.975632 55.700847 
L 216.12789 178.643926 
L 216.280148 199.413154 
L 216.584664 20.867087 
L 216.88918 209.258839 
L 217.041438 154.799751 
L 217.193696 37.276872 
L 217.345954 47.785485 
L 217.65047 203.707924 
L 217.954986 20.776211 
L 218.259501 205.150411 
L 218.411759 164.495743 
L 218.564017 44.995146 
L 218.716275 40.989783 
L 219.020791 206.668864 
L 219.325307 22.046548 
L 219.629823 199.84324 
L 219.782081 173.317303 
L 219.934339 53.583279 
L 220.086597 35.391479 
L 220.391113 208.277651 
L 220.695629 24.634686 
L 220.847887 79.524167 
L 221.000144 193.436175 
L 221.152402 181.152976 
L 221.30466 62.900968 
L 221.456918 31.049415 
L 221.761434 208.536076 
L 222.06595 28.478691 
L 222.218208 69.990033 
L 222.370466 186.042395 
L 222.522724 187.90774 
L 222.82724 28.002972 
L 223.131756 207.465649 
L 223.436272 33.499412 
L 223.58853 61.294484 
L 223.740788 177.787434 
L 223.893045 193.504159 
L 224.197561 26.27185 
L 224.502077 205.10694 
L 224.654335 149.900275 
L 224.806593 39.601907 
L 224.958851 53.54755 
L 225.111109 168.807147 
L 225.263367 197.88316 
L 225.567883 25.856102 
L 225.872399 201.518668 
L 226.024657 159.265166 
L 226.176915 46.677113 
L 226.329173 46.843307 
L 226.633689 201.004633 
L 226.938204 26.736512 
L 227.24272 196.776461 
L 227.394978 167.826507 
L 227.547236 54.603786 
L 227.699494 41.258783 
L 228.00401 202.847656 
L 228.308526 28.875199 
L 228.460784 84.28663 
L 228.613042 190.971468 
L 228.7653 175.475825 
L 228.917558 63.250441 
L 229.069816 36.85313 
L 229.374332 203.410464 
L 229.678847 32.216545 
L 229.831105 75.098157 
L 229.983363 184.208697 
L 230.135621 182.120085 
L 230.440137 33.66705 
L 230.744653 202.710128 
L 231.049169 36.68832 
L 231.201427 66.679023 
L 231.353685 176.605223 
L 231.505943 187.682806 
L 231.810459 31.722552 
L 232.114975 200.78196 
L 232.267233 145.277346 
L 232.41949 42.20307 
L 232.571748 59.13605 
L 232.724006 168.288205 
L 232.876264 192.104901 
L 233.18078 31.022964 
L 233.485296 197.678621 
L 233.637554 154.282437 
L 233.789812 48.659727 
L 233.94207 52.561094 
L 234.246586 195.345209 
L 234.551102 31.553217 
L 234.855618 193.469065 
L 235.007876 162.551558 
L 235.160134 55.945322 
L 235.312391 47.029961 
L 235.616907 197.380766 
L 235.921423 33.280457 
L 236.073681 88.76759 
L 236.225939 188.237124 
L 236.378197 169.979633 
L 236.530455 63.936933 
L 236.682713 42.601551 
L 236.987229 198.206848 
L 237.291745 36.154815 
L 237.444003 79.952622 
L 237.596261 182.080072 
L 237.748519 176.476107 
L 238.053035 39.317348 
L 238.35755 197.836626 
L 238.662066 40.110534 
L 238.814324 71.841139 
L 238.966582 175.106835 
L 239.11884 181.965991 
L 239.423356 37.201095 
L 239.727872 196.300677 
L 239.88013 140.940719 
L 240.032388 45.06723 
L 240.184646 64.53633 
L 240.336904 167.436173 
L 240.489162 186.390678 
L 240.793678 36.258834 
L 241.098193 193.646164 
L 241.250451 149.559026 
L 241.402709 50.931376 
L 241.554967 58.127356 
L 241.859483 189.708513 
L 242.163999 36.479097 
L 242.468515 189.935786 
L 242.620773 157.505464 
L 242.773031 57.597992 
L 242.925289 52.688283 
L 243.229805 191.895083 
L 243.534321 37.833488 
L 243.838837 185.246588 
L 243.991094 164.678804 
L 244.143352 64.952396 
L 244.29561 48.277264 
L 244.600126 192.94323 
L 244.904642 40.277412 
L 245.0569 84.542281 
L 245.209158 179.66845 
L 245.361416 170.991408 
L 245.665932 44.935994 
L 245.970448 192.862799 
L 246.274964 43.751061 
L 246.427222 76.7681 
L 246.57948 173.302522 
L 246.731738 176.37025 
L 247.036253 42.689417 
L 247.340769 191.680175 
L 247.645285 48.180667 
L 247.797543 69.734241 
L 247.949801 166.25947 
L 248.102059 180.757758 
L 248.406575 41.545704 
L 248.711091 189.437528 
L 248.863349 145.105735 
L 249.015607 53.479855 
L 249.167865 63.526728 
L 249.320123 158.65758 
L 249.472381 184.112324 
L 249.776896 41.496442 
L 250.081412 186.191847 
L 250.23367 152.700658 
L 250.385928 59.551233 
L 250.538186 58.217402 
L 250.842702 186.408616 
L 251.147218 42.517149 
L 251.451734 182.013785 
L 251.603992 159.587195 
L 251.75625 66.288065 
L 251.908508 53.863143 
L 252.213024 187.637609 
L 252.51754 44.567946 
L 252.669797 88.856681 
L 252.822055 176.986313 
L 252.974313 165.681074 
L 253.126571 73.576111 
L 253.278829 50.505337 
L 253.583345 187.806395 
L 253.887861 47.594519 
L 254.040119 81.447808 
L 254.192377 171.203158 
L 254.344635 170.911737 
L 254.649151 48.169562 
L 254.953667 186.937709 
L 255.258183 51.529218 
L 255.410441 74.716216 
L 255.562698 164.767206 
L 255.714956 175.22312 
L 256.019472 46.865558 
L 256.323988 185.06926 
L 256.476246 140.932666 
L 256.628504 56.292385 
L 256.780762 68.744345 
L 256.93302 157.788711 
L 257.085278 178.574199 
L 257.389794 46.587433 
L 257.69431 182.252823 
L 257.846568 148.148914 
L 257.998826 61.793845 
L 258.151084 63.601357 
L 258.455599 180.939275 
L 258.760115 47.314049 
L 259.064631 178.553156 
L 259.216889 154.718109 
L 259.369147 67.93447 
L 259.521405 59.342363 
L 259.825921 182.308017 
L 260.130437 49.009735 
L 260.282695 92.886065 
L 260.434953 174.046717 
L 260.587211 160.559757 
L 260.739469 74.607914 
L 260.891727 56.007903 
L 261.196243 182.68529 
L 261.500758 51.62512 
L 261.653016 85.868804 
L 261.805274 168.820249 
L 261.957532 165.606216 
L 262.262048 53.623663 
L 262.566564 182.090759 
L 262.87108 55.098221 
L 263.023338 79.469247 
L 263.175596 162.969188 
L 263.327854 169.803435 
L 263.63237 52.200411 
L 263.936886 180.558191 
L 264.089144 137.049221 
L 264.241401 59.355648 
L 264.393659 73.765846 
L 264.545917 156.596055 
L 264.698175 173.111479 
L 265.002691 51.734176 
L 265.307207 178.134674 
L 265.459465 143.861357 
L 265.611723 64.314029 
L 265.763981 68.824635 
L 266.068497 175.504821 
L 266.373013 52.206661 
L 266.677529 174.87955 
L 266.829787 150.084234 
L 266.982045 69.881486 
L 267.134302 64.698459 
L 267.438818 176.972387 
L 267.743334 53.585824 
L 268.04785 170.863241 
L 268.200108 155.641535 
L 268.352366 75.959268 
L 268.504624 61.426516 
L 268.80914 177.517386 
L 269.113656 55.826746 
L 269.265914 90.020309 
L 269.418172 166.165884 
L 269.57043 160.468963 
L 269.874945 59.034063 
L 270.179461 177.156914 
L 270.483977 58.8726 
L 270.636235 83.980946 
L 270.788493 160.875871 
L 270.940751 164.514966 
L 271.245267 57.532336 
L 271.549783 175.921376 
L 271.854299 62.655815 
L 272.006557 78.577406 
L 272.158815 155.088268 
L 272.311073 167.741209 
L 272.615589 56.918764 
L 272.920104 173.853683 
L 273.072362 139.848431 
L 273.22462 67.099392 
L 273.376878 73.872149 
L 273.681394 170.122857 
L 273.98591 57.177302 
L 274.290426 171.008263 
L 274.442684 145.697656 
L 274.594942 72.118328 
L 274.7472 69.915316 
L 275.051716 171.648627 
L 275.356232 58.279035 
L 275.660747 167.44997 
L 275.813005 150.939957 
L 275.965263 77.621134 
L 276.117521 66.744249 
L 276.422037 172.320603 
L 276.726553 60.182949 
L 276.878811 93.892215 
L 277.031069 163.252762 
L 277.183327 155.51482 
L 277.335585 83.511427 
L 277.487843 64.383243 
L 277.792359 172.153908 
L 278.096875 62.836867 
L 278.249133 88.239548 
L 278.401391 158.498358 
L 278.553648 159.373634 
L 278.858164 62.8435 
L 279.16268 171.176106 
L 279.467196 66.178561 
L 279.619454 83.165757 
L 279.771712 153.274744 
L 279.92397 162.480157 
L 280.228486 62.123264 
L 280.533002 169.426445 
L 280.68526 136.119891 
L 280.837518 70.136978 
L 280.989776 78.729341 
L 281.142034 147.674632 
L 281.294292 164.810759 
L 281.598807 62.20822 
L 281.903323 166.954975 
L 282.055581 141.569805 
L 282.207839 74.633584 
L 282.360097 74.977251 
L 282.664613 166.354476 
L 282.969129 63.072017 
L 283.273645 163.821438 
L 283.425903 146.467993 
L 283.578161 79.583806 
L 283.730419 71.94452 
L 284.034935 167.112845 
L 284.33945 64.67701 
L 284.491708 97.475134 
L 284.643966 160.094085 
L 284.796224 150.758101 
L 284.948482 84.898535 
L 285.10074 69.653971 
L 285.405256 167.099531 
L 285.709772 66.975169 
L 285.86203 92.233945 
L 286.014288 155.848361 
L 286.166546 154.394911 
L 286.471062 68.116219 
L 286.775578 166.339807 
L 287.080094 69.909122 
L 287.232351 87.518237 
L 287.384609 151.165516 
L 287.536867 157.344736 
L 287.841383 67.329809 
L 288.145899 164.869818 
L 288.298157 132.684764 
L 288.450415 73.413304 
L 288.602673 83.382129 
L 288.754931 146.131154 
L 288.907189 159.585667 
L 289.211705 67.28159 
L 289.516221 162.735717 
L 289.668479 137.711472 
L 289.820737 77.415239 
L 289.972995 79.869004 
L 290.27751 161.107577 
L 290.582026 67.947227 
L 290.886542 159.992651 
L 291.0388 142.238025 
L 291.191058 81.83691 
L 291.343316 77.011076 
L 291.647832 161.911977 
L 291.952348 69.291933 
L 292.104606 100.76039 
L 292.256864 156.703606 
L 292.409122 146.212617 
L 292.56138 86.596148 
L 292.713638 74.829225 
L 293.018153 162.011634 
L 293.322669 71.271298 
L 293.474927 95.953694 
L 293.627185 152.938188 
L 293.779443 149.593828 
L 294.083959 73.332952 
L 294.388475 161.430081 
L 294.692991 73.832292 
L 294.845249 91.622766 
L 294.997507 148.771287 
L 295.149765 152.351006 
L 295.454281 72.520574 
L 295.758797 160.200888 
L 296.063312 76.914377 
L 296.21557 87.817005 
L 296.367828 144.281733 
L 296.520086 154.464429 
L 296.824602 72.379555 
L 297.129118 158.366848 
L 297.281376 134.132747 
L 297.433634 80.450713 
L 297.585892 84.575775 
L 297.890408 155.925343 
L 298.194924 72.887042 
L 298.49944 155.979005 
L 298.651698 138.261795 
L 298.803955 84.36943 
L 298.956213 81.928063 
L 299.260729 156.735745 
L 299.565245 74.01054 
L 299.869761 153.095557 
L 300.022019 141.891595 
L 300.174277 88.594974 
L 300.326535 79.892303 
L 300.631051 156.90806 
L 300.935567 75.708748 
L 301.087825 99.389045 
L 301.240083 149.780706 
L 301.392341 144.984938 
L 301.696856 78.476388 
L 302.001372 156.464613 
L 302.305888 77.932473 
L 302.458146 95.467917 
L 302.610404 146.103389 
L 302.762662 147.514618 
L 303.067178 77.677862 
L 303.371694 155.436943 
L 303.67621 80.625726 
L 303.828468 92.021004 
L 303.980726 142.136 
L 304.132984 149.463602 
L 304.4375 77.48428 
L 304.742015 153.865016 
L 304.894273 130.843031 
L 305.046531 83.726851 
L 305.198789 89.083274 
L 305.351047 137.953074 
L 305.503305 150.824983 
L 305.807821 77.873724 
L 306.112337 151.796275 
L 306.264595 134.550413 
L 306.416853 87.169728 
L 306.569111 86.680037 
L 306.873627 151.601791 
L 307.178143 78.815457 
L 307.482658 149.28463 
L 307.634916 137.807708 
L 307.787174 90.885036 
L 307.939432 84.826828 
L 308.243948 151.806628 
L 308.548464 80.270739 
L 308.700722 102.530956 
L 308.85298 146.389323 
L 309.005238 140.58228 
L 309.157496 94.801526 
L 309.309754 83.529431 
L 309.61427 151.461162 
L 309.918786 82.193711 
L 310.071044 99.042917 
L 310.223301 143.173752 
L 310.375559 142.850807 
L 310.680075 82.78411 
L 310.984591 150.595439 
L 311.289107 84.532446 
L 311.441365 95.981769 
L 311.593623 139.704262 
L 311.745881 144.599391 
L 312.050397 82.577974 
L 312.354913 149.247124 
L 312.507171 127.851004 
L 312.659429 87.229994 
L 312.811687 93.377717 
L 312.963945 136.048891 
L 313.116202 145.823464 
L 313.420718 82.889496 
L 313.725234 147.460596 
L 313.877492 131.114322 
L 314.02975 90.22557 
L 314.182008 91.251992 
L 314.486524 146.527597 
L 314.79104 83.689159 
L 315.095556 145.285956 
L 315.247814 133.973005 
L 315.400072 93.455711 
L 315.55233 89.616773 
L 315.856846 146.725102 
L 316.161361 84.94025 
L 316.313619 105.37111 
L 316.465877 142.777961 
L 316.618135 136.39936 
L 316.770393 96.855486 
L 316.922651 88.475261 
L 317.227167 146.437516 
L 317.531683 86.599724 
L 317.683941 102.337662 
L 317.836199 139.994908 
L 317.988457 138.374343 
L 318.292973 87.82193 
L 318.597489 145.693948 
L 318.902004 88.619195 
L 319.054262 99.68755 
L 319.20652 136.997469 
L 319.358778 139.88762 
L 319.663294 87.642926 
L 319.96781 144.530302 
L 320.120068 125.164617 
L 320.272326 90.945974 
L 320.424584 97.445874 
L 320.576842 133.847547 
L 320.7291 140.937453 
L 321.033616 87.916562 
L 321.338132 142.988403 
L 321.49039 127.963277 
L 321.642648 93.524153 
L 321.794905 95.629397 
L 322.099421 141.53044 
L 322.403937 88.614014 
L 322.708453 141.115061 
L 322.860711 130.398923 
L 323.012969 96.29573 
L 323.165227 94.24651 
L 323.469743 141.681129 
L 323.774259 89.70005 
L 324.078775 138.961022 
L 324.231033 132.449127 
L 324.383291 99.201739 
L 324.535549 93.297364 
L 324.840064 141.411469 
L 325.14458 91.133915 
L 325.296838 105.342744 
L 325.449096 136.579924 
L 325.601354 134.099508 
L 325.90587 92.774156 
L 326.210386 140.750153 
L 326.514902 92.870263 
L 326.66716 103.127238 
L 326.819418 134.027192 
L 326.971676 135.343719 
L 327.276192 92.661536 
L 327.580707 139.73187 
L 327.885223 94.860162 
L 328.037481 101.275092 
L 328.189739 131.358952 
L 328.341997 136.1833 
L 328.646513 92.937155 
L 328.951029 138.396424 
L 329.103287 125.106333 
L 329.255545 97.052136 
L 329.407803 99.798223 
L 329.712319 136.62738 
L 330.016835 93.572314 
L 330.321351 136.787841 
L 330.473608 127.096242 
L 330.625866 99.393219 
L 330.778124 98.700825 
L 331.08264 136.692241 
L 331.387156 94.532746 
L 331.691672 134.953358 
L 331.84393 128.743944 
L 331.996188 101.830035 
L 332.148446 97.979558 
L 332.452962 136.400768 
L 332.757478 95.77944 
L 332.909736 108.049465 
L 333.061994 132.942409 
L 333.214252 130.040072 
L 333.366509 104.30983 
L 333.518767 97.623852 
L 333.823283 135.781787 
L 334.127799 97.269577 
L 334.280057 106.290383 
L 334.432315 130.805606 
L 334.584573 130.982678 
L 334.889089 97.616365 
L 335.193605 134.869296 
L 335.498121 98.957486 
L 335.650379 104.853305 
L 335.802637 128.593676 
L 335.954895 131.577015 
L 336.25941 97.933547 
L 336.563926 133.701625 
L 336.716184 122.551825 
L 336.868442 100.795652 
L 337.0207 103.744962 
L 337.172958 126.356476 
L 337.325216 131.835211 
L 337.629732 98.54631 
L 337.934248 132.320533 
L 338.086506 124.075074 
L 338.238764 102.735714 
L 338.391022 102.964961 
L 338.695538 131.775789 
L 339.000054 99.420796 
L 339.304569 130.770243 
L 339.456827 125.295559 
L 339.609085 104.729484 
L 339.761343 102.506029 
L 340.065859 131.42309 
L 340.370375 100.519215 
L 340.522633 110.449861 
L 340.674891 129.096477 
L 340.827149 126.209265 
L 340.979407 106.729919 
L 341.131665 102.354368 
L 341.436181 130.806603 
L 341.740697 101.800744 
L 341.892955 109.167217 
L 342.045212 127.345456 
L 342.19747 126.819019 
L 342.501986 102.490152 
L 342.806502 129.960176 
L 343.111018 103.222471 
L 343.263276 108.169079 
L 343.415534 125.562933 
L 343.567792 127.134213 
L 343.872308 102.888116 
L 344.176824 128.921193 
L 344.329082 120.307348 
L 344.48134 104.740355 
L 344.633598 107.456669 
L 344.785855 123.793231 
L 344.938113 127.170433 
L 345.242629 103.518246 
L 345.547145 127.729677 
L 345.699403 121.344844 
L 345.851661 106.310191 
L 346.003919 107.024635 
L 346.308435 126.948926 
L 346.612951 104.346566 
L 346.917467 126.427352 
L 347.069725 122.115096 
L 347.221983 107.888566 
L 347.374241 106.861359 
L 347.678756 126.496007 
L 347.983272 105.335962 
L 348.13553 112.536706 
L 348.287788 125.056707 
L 348.440046 122.619751 
L 348.592304 109.433771 
L 348.744562 106.949367 
L 349.049078 125.842345 
L 349.353594 106.447084 
L 349.505852 111.748665 
L 349.65811 123.660044 
L 349.810368 122.866773 
L 350.114884 107.26586 
L 350.4194 125.022182 
L 350.723915 107.63926 
L 350.876173 111.211617 
L 351.028431 122.278547 
L 351.180689 122.870102 
L 351.485205 107.783357 
L 351.789721 124.072492 
L 352.094237 108.871434 
L 352.246495 110.920972 
L 352.398753 120.951403 
L 352.551011 122.649216 
L 352.855527 108.470399 
L 353.160043 123.032087 
L 353.312301 118.914268 
L 353.464558 110.103086 
L 353.616816 110.866073 
L 353.921332 122.228569 
L 354.225848 109.292351 
L 354.530364 121.940715 
L 354.682622 119.213018 
L 354.83488 111.295149 
L 354.987138 111.03056 
L 355.291654 121.636943 
L 355.59617 110.212243 
L 355.900686 120.83813 
L 356.052944 119.283601 
L 356.205202 112.410861 
L 356.357459 111.392848 
L 356.661975 120.906713 
L 356.966491 111.191662 
L 357.118749 114.026371 
L 357.271007 119.763184 
L 357.423265 119.139452 
L 357.575523 113.416576 
L 357.727781 111.926705 
L 358.032297 120.073041 
L 358.336813 112.191656 
L 358.489071 113.970787 
L 358.641329 118.752941 
L 358.793587 118.799444 
L 359.098103 112.601931 
L 359.402618 119.173025 
L 359.707134 113.173648 
L 359.859392 114.126106 
L 360.01165 117.841843 
L 360.163908 118.287374 
L 360.468424 113.385108 
L 360.77294 118.244812 
L 360.925198 116.791339 
L 361.077456 114.100331 
L 361.229714 114.476036 
L 361.381972 117.06093 
L 361.53423 117.631362 
L 361.838746 114.240414 
L 362.143261 117.326689 
L 362.295519 116.599118 
L 362.447777 114.93653 
L 362.600035 114.999103 
L 362.904551 116.863147 
L 363.209067 115.130489 
L 363.513583 116.456187 
L 363.665841 116.21227 
L 363.818099 115.650019 
L 363.970357 115.669192 
L 364.122615 115.99271 
L 364.274873 116.01732 
L 364.427131 115.920124 
L 364.427131 115.920124 
" style="fill:none;stroke:#1f77b4;stroke-linecap:square;stroke-width:1.5;"/>
   </g>
   <g id="line2d_17">
    <path clip-path="url(#pa52c95c40e)" d="M 60.063494 115.920124 
L 60.215752 18.821492 
L 60.36801 79.6631 
L 60.520268 199.480236 
L 60.672526 183.378833 
L 60.824784 57.549361 
L 60.977042 26.665536 
L 61.281558 214.525768 
L 61.586074 21.712062 
L 61.738332 68.965444 
L 61.89059 192.595118 
L 62.042848 191.505557 
L 62.347364 22.242857 
L 62.651879 214.627749 
L 62.956395 25.945005 
L 63.108653 58.936842 
L 63.260911 184.617452 
L 63.413169 198.555266 
L 63.717685 19.154988 
L 64.022201 213.323238 
L 64.174459 150.582298 
L 64.326717 31.460008 
L 64.478975 49.720198 
L 64.631233 175.660918 
L 64.783491 204.4275 
L 65.088007 17.445922 
L 65.392522 210.630827 
L 65.54478 161.364365 
L 65.697038 38.178484 
L 65.849296 41.446839 
L 66.153812 209.0386 
L 66.458328 17.14002 
L 66.762844 206.588886 
L 66.915102 171.498892 
L 67.06736 46.004701 
L 67.219618 34.234653 
L 67.524134 212.322844 
L 67.82865 18.241641 
L 67.980908 82.863154 
L 68.133166 201.254999 
L 68.285423 180.841483 
L 68.437681 54.827141 
L 68.589939 28.186398 
L 68.894455 214.233451 
L 69.198971 20.735079 
L 69.351229 71.999905 
L 69.503487 194.70518 
L 69.655745 189.259003 
L 69.960261 23.388267 
L 70.264777 214.743185 
L 70.569293 24.584811 
L 70.721551 61.762475 
L 70.873809 187.032751 
L 71.026067 196.631516 
L 71.330582 19.908627 
L 71.635098 213.84479 
L 71.787356 147.362006 
L 71.939614 29.735985 
L 72.091872 52.296736 
L 72.24413 178.347031 
L 72.396388 202.853972 
L 72.700904 17.79705 
L 73.00542 211.551061 
L 73.157678 158.303197 
L 73.309936 36.115197 
L 73.462194 43.73757 
L 73.76671 207.837708 
L 74.071225 17.083636 
L 74.375741 207.894687 
L 74.527999 168.64047 
L 74.680257 43.631554 
L 74.832515 36.206934 
L 75.137031 211.511702 
L 75.441547 17.778546 
L 75.746063 202.927764 
L 75.898321 178.226529 
L 76.050579 52.177948 
L 76.202837 29.812134 
L 76.507353 213.823617 
L 76.811869 19.871872 
L 76.964126 75.086864 
L 77.116384 196.721067 
L 77.268642 186.924784 
L 77.573158 24.644282 
L 77.877674 214.740499 
L 78.18219 23.333798 
L 78.334448 64.652839 
L 78.486706 189.36304 
L 78.638964 194.611294 
L 78.94348 20.77703 
L 79.247996 214.249292 
L 79.552512 28.11498 
L 79.70477 54.949317 
L 79.857027 180.958522 
L 80.009285 201.176529 
L 80.313801 18.265471 
L 80.618317 212.356983 
L 80.770575 155.191369 
L 80.922833 34.147305 
L 81.075091 46.114576 
L 81.379607 206.526947 
L 81.684123 17.145393 
L 81.988639 209.090548 
L 82.140897 165.719031 
L 82.293155 41.344811 
L 82.445413 38.274497 
L 82.749928 210.586302 
L 83.054444 17.432756 
L 83.35896 204.496527 
L 83.511218 175.537105 
L 83.663476 49.604944 
L 83.815734 31.540787 
L 84.12025 213.296757 
L 84.424766 19.12347 
L 84.577024 78.222628 
L 84.729282 198.640381 
L 84.88154 184.505698 
L 85.033798 58.810001 
L 85.186056 26.009401 
L 85.490571 214.619696 
L 85.795087 22.193443 
L 85.947345 67.604482 
L 86.099603 191.605546 
L 86.251861 192.497008 
L 86.556377 21.759156 
L 86.860893 214.53626 
L 87.165409 26.598931 
L 87.317667 57.674783 
L 87.469925 183.492273 
L 87.622183 199.397177 
L 87.926699 18.850612 
L 88.231215 213.04764 
L 88.383472 152.0326 
L 88.53573 32.277153 
L 88.687988 48.575024 
L 88.840246 174.416161 
L 88.992504 205.107883 
L 89.29702 17.325213 
L 89.601536 210.175049 
L 89.753794 162.738064 
L 89.906052 39.147207 
L 90.05831 40.434863 
L 90.362826 209.547746 
L 90.667342 17.204693 
L 90.971858 205.959414 
L 91.124116 172.776416 
L 91.276373 47.111206 
L 91.428631 33.370303 
L 91.733147 212.653506 
L 92.037663 18.490771 
L 92.189921 81.403457 
L 92.342179 200.460812 
L 92.494437 182.004625 
L 92.646695 56.055657 
L 92.798953 27.481985 
L 93.103469 214.380911 
L 93.407985 21.165125 
L 93.560243 70.613876 
L 93.712501 193.757589 
L 93.864759 190.291191 
L 94.169274 22.853831 
L 94.47379 214.705352 
L 94.778306 25.189646 
L 94.930564 60.469864 
L 95.082822 185.945251 
L 95.23508 197.518047 
L 95.539596 19.551778 
L 95.844112 213.622194 
L 95.99637 148.830667 
L 96.148628 30.506985 
L 96.300886 51.115968 
L 96.453144 177.135129 
L 96.605402 203.582214 
L 96.909918 17.62288 
L 97.214433 211.146883 
L 97.366691 159.701138 
L 97.518949 37.041375 
L 97.671207 42.685464 
L 97.975723 208.397276 
L 98.280239 17.094623 
L 98.584755 207.314677 
L 98.737013 169.947773 
L 98.889271 44.699713 
L 99.041529 35.298482 
L 99.346045 211.894631 
L 99.650561 17.974532 
L 99.802819 84.62554 
L 99.955076 202.180193 
L 100.107334 179.424564 
L 100.259592 53.372872 
L 100.41185 29.060286 
L 100.716366 214.024446 
L 101.020882 20.250064 
L 101.17314 73.677427 
L 101.325398 195.816586 
L 101.477656 187.996484 
L 101.782172 24.059748 
L 102.086688 214.756364 
L 102.391204 23.888806 
L 102.543462 63.331232 
L 102.69572 188.314534 
L 102.847977 195.541383 
L 103.152493 20.368139 
L 103.457009 214.079969 
L 103.761525 28.838904 
L 103.913783 53.734375 
L 104.066041 179.780935 
L 104.218299 201.951759 
L 104.522815 18.038044 
L 104.827331 212.004889 
L 104.979589 156.611882 
L 105.131847 35.029824 
L 105.284105 45.023601 
L 105.588621 207.136265 
L 105.893136 17.102676 
L 106.197652 208.560701 
L 106.34991 167.054547 
L 106.502168 42.373353 
L 106.654426 37.323035 
L 106.958942 211.021037 
L 107.263458 17.575362 
L 107.567974 203.796468 
L 107.720232 176.768601 
L 107.87249 50.764846 
L 108.024748 30.742406 
L 108.329264 213.550712 
L 108.633779 19.449361 
L 108.786037 76.791467 
L 108.938295 197.780089 
L 109.090553 185.615619 
L 109.395069 25.37547 
L 109.699585 214.68924 
L 110.004101 22.697975 
L 110.156359 66.255452 
L 110.308617 190.597282 
L 110.460875 193.469548 
L 110.765391 21.298706 
L 111.069907 214.420411 
L 111.374423 27.274913 
L 111.52668 56.427109 
L 111.678938 182.350398 
L 111.831196 200.218475 
L 112.135712 18.570206 
L 112.440228 212.748053 
L 112.592486 153.473985 
L 112.744744 33.114958 
L 112.897002 47.446481 
L 113.04926 173.156953 
L 113.201518 205.766227 
L 113.506034 17.228846 
L 113.81055 209.695984 
L 113.962808 164.100202 
L 114.115066 40.1349 
L 114.267324 39.441539 
L 114.571839 210.033769 
L 114.876355 17.293743 
L 115.180871 205.307704 
L 115.333129 174.039901 
L 115.485387 48.2347 
L 115.637645 32.526335 
L 115.942161 212.960274 
L 116.246677 18.763971 
L 116.398935 79.95228 
L 116.551193 199.645741 
L 116.703451 183.151448 
L 116.855709 57.298953 
L 117.007967 26.799417 
L 117.312482 214.504059 
L 117.616998 21.618576 
L 117.769256 69.23904 
L 117.921514 192.790768 
L 118.073772 191.305017 
L 118.378288 22.342382 
L 118.682804 214.643119 
L 118.98732 25.816885 
L 119.139578 59.190956 
L 119.291836 184.840466 
L 119.444094 198.384429 
L 119.74861 19.21873 
L 120.053125 213.375474 
L 120.205383 150.291198 
L 120.357641 31.299075 
L 120.509899 49.951206 
L 120.662157 175.908115 
L 120.814415 204.2888 
L 121.118931 17.472986 
L 121.423447 210.719182 
L 121.575705 161.088266 
L 121.727963 37.987034 
L 121.880221 41.651449 
L 122.184737 208.934003 
L 122.489253 17.130017 
L 122.793769 206.712098 
L 122.946026 171.241733 
L 123.098284 45.785463 
L 123.250542 34.409949 
L 123.555058 212.253853 
L 123.859574 18.194707 
L 124.011832 83.156087 
L 124.16409 201.41132 
L 124.316348 180.606916 
L 124.468606 54.583243 
L 124.620864 28.329888 
L 124.92538 214.201044 
L 125.229896 20.651891 
L 125.382154 72.278422 
L 125.534412 194.892371 
L 125.68667 189.050381 
L 125.991185 23.497906 
L 126.295701 214.747822 
L 126.600217 24.466547 
L 126.752475 62.022609 
L 126.904733 187.248148 
L 127.056991 196.451808 
L 127.361507 19.982843 
L 127.666023 213.886405 
L 127.818281 147.067332 
L 127.970539 29.584336 
L 128.122797 52.534785 
L 128.275055 178.587572 
L 128.427313 202.705739 
L 128.731828 17.834795 
L 129.036344 211.629065 
L 129.188602 158.022341 
L 129.34086 35.932319 
L 129.493118 43.950139 
L 129.797634 207.723061 
L 130.10215 17.084367 
L 130.406666 208.007967 
L 130.558924 168.377438 
L 130.711182 43.420057 
L 130.86344 36.39099 
L 131.167956 211.432284 
L 131.472472 17.742257 
L 131.776987 203.074706 
L 131.929245 177.985064 
L 132.081503 51.940842 
L 132.233761 29.965061 
L 132.538277 213.780547 
L 132.842793 19.799075 
L 132.995051 75.369971 
L 133.147309 196.89958 
L 133.299567 186.708333 
L 133.604083 24.763901 
L 133.908599 214.734396 
L 134.213115 23.225531 
L 134.365373 64.918687 
L 134.51763 189.570572 
L 134.669888 194.422937 
L 134.974404 20.861632 
L 135.27892 214.280238 
L 135.583436 27.972792 
L 135.735694 55.194128 
L 135.887952 181.192122 
L 136.04021 201.018948 
L 136.344726 18.313849 
L 136.649242 212.424548 
L 136.8015 154.906091 
L 136.953758 33.973217 
L 137.106016 46.334851 
L 137.410531 206.402391 
L 137.715047 17.156863 
L 138.019563 209.19376 
L 138.171821 165.450437 
L 138.324079 41.141302 
L 138.476337 38.467095 
L 138.780853 210.496545 
L 139.085369 17.407153 
L 139.389885 204.633919 
L 139.542143 175.28903 
L 139.694401 49.37492 
L 139.846659 31.70297 
L 140.151175 213.243077 
L 140.45569 19.06116 
L 140.607948 78.509991 
L 140.760206 198.809992 
L 140.912464 184.28167 
L 141.064722 58.556736 
L 141.21698 26.138858 
L 141.521496 214.602859 
L 141.826012 22.095314 
L 141.97827 67.875729 
L 142.130528 191.804967 
L 142.282786 192.300227 
L 142.587302 21.854038 
L 142.891818 214.556508 
L 143.196333 26.466375 
L 143.348591 57.926057 
L 143.500849 183.718651 
L 143.653107 199.230441 
L 143.957623 18.90957 
L 144.262139 213.104677 
L 144.414397 151.743243 
L 144.566655 32.112066 
L 144.718913 48.802739 
L 144.871171 174.66628 
L 145.023429 204.97356 
L 145.327945 17.347405 
L 145.632461 210.26807 
L 145.784719 162.464239 
L 145.936977 38.95194 
L 146.089234 40.63578 
L 146.39375 209.447762 
L 146.698266 17.189806 
L 147.002782 206.087092 
L 147.15504 172.522026 
L 147.307298 46.888533 
L 147.459556 33.541546 
L 147.764072 212.589281 
L 148.068588 18.439017 
L 148.220846 81.694725 
L 148.373104 200.621327 
L 148.525362 181.773292 
L 148.67762 55.80876 
L 148.829878 27.621128 
L 149.134393 214.353364 
L 149.438909 21.077241 
L 149.591167 70.890198 
L 149.743425 193.948649 
L 149.895683 190.086216 
L 150.200199 22.958887 
L 150.504715 214.714867 
L 150.809231 25.066881 
L 150.961489 60.7273 
L 151.113747 186.164147 
L 151.266005 197.342344 
L 151.570521 19.621246 
L 151.875036 213.668646 
L 152.027294 148.537575 
L 152.179552 30.351088 
L 152.33181 51.350853 
L 152.484068 177.378732 
L 152.636326 203.438288 
L 152.940842 17.655776 
L 153.245358 211.2296 
L 153.397616 159.422403 
L 153.549874 36.854573 
L 153.702132 42.894445 
L 154.006648 208.287182 
L 154.311164 17.09047 
L 154.61568 207.432488 
L 154.767937 169.687369 
L 154.920195 44.484664 
L 155.072453 35.478591 
L 155.376969 211.819937 
L 155.681485 17.933394 
L 155.833743 84.92037 
L 155.986001 202.331418 
L 156.138259 179.186203 
L 156.290517 53.132639 
L 156.442775 29.208942 
L 156.747291 213.986212 
L 157.051807 20.172537 
L 157.204065 73.958489 
L 157.356323 195.99907 
L 157.50858 187.783562 
L 157.813096 24.174849 
L 158.117612 214.755144 
L 158.422128 23.775985 
L 158.574386 63.594523 
L 158.726644 188.525671 
L 158.878902 195.356932 
L 159.183418 20.448029 
L 159.487934 214.115776 
L 159.79245 28.692392 
L 159.944708 53.97614 
L 160.096966 180.017722 
L 160.249224 201.798407 
L 160.553739 18.081597 
L 160.858255 212.077208 
L 161.010513 156.328572 
L 161.162771 34.851712 
L 161.315029 45.240405 
L 161.619545 207.016198 
L 161.924061 17.109269 
L 162.228577 208.668503 
L 162.380835 166.788445 
L 162.533093 42.16618 
L 162.685351 37.51178 
L 162.989867 210.935963 
L 163.294382 17.544899 
L 163.598898 203.93822 
L 163.751156 176.523495 
L 163.903414 50.53157 
L 164.055672 30.900405 
L 164.360188 213.501845 
L 164.664704 19.382273 
L 164.816962 77.076939 
L 164.96922 197.953771 
L 165.121478 185.395003 
L 165.425994 25.500473 
L 165.73051 214.677281 
L 166.035026 22.595223 
L 166.187283 66.524287 
L 166.339541 190.800419 
L 166.491799 193.276567 
L 166.796315 21.388928 
L 167.100831 214.445531 
L 167.405347 27.137962 
L 167.557605 56.675479 
L 167.709863 182.580098 
L 167.862121 200.055874 
L 168.166637 18.624369 
L 168.471153 212.809886 
L 168.623411 153.186437 
L 168.775669 32.945759 
L 168.927927 47.670844 
L 169.080184 173.409935 
L 169.232442 205.636328 
L 169.536958 17.246172 
L 169.841474 209.793653 
L 169.993732 163.828716 
L 170.14599 39.935857 
L 170.298248 39.638697 
L 170.602764 209.938421 
L 170.90728 17.273984 
L 171.211796 205.439818 
L 171.364054 173.788345 
L 171.516312 48.008658 
L 171.66857 32.69349 
L 171.973085 212.900839 
L 172.277601 18.70741 
L 172.429859 80.241817 
L 172.582117 199.810415 
L 172.734375 182.923403 
L 172.886633 57.049129 
L 173.038891 26.934176 
L 173.343407 214.481378 
L 173.647923 21.526015 
L 173.800181 69.513094 
L 173.952439 192.985658 
L 174.104697 191.103735 
L 174.409213 22.442825 
L 174.713729 214.657517 
L 175.018244 25.689649 
L 175.170502 59.445629 
L 175.32276 185.062791 
L 175.475018 198.212774 
L 175.779534 19.283432 
L 176.08405 213.426745 
L 176.236308 149.999761 
L 176.388566 31.138978 
L 176.540824 50.182863 
L 176.693082 176.154712 
L 176.84534 204.149222 
L 177.149856 17.501022 
L 177.454372 210.8066 
L 177.60663 160.811723 
L 177.758887 37.796357 
L 177.911145 41.856796 
L 178.215661 208.828493 
L 178.520177 17.120986 
L 178.824693 206.83441 
L 178.976951 170.984021 
L 179.129209 45.566915 
L 179.281467 34.586052 
L 179.585983 212.183908 
L 179.890499 18.148738 
L 180.042757 83.449341 
L 180.195015 201.566786 
L 180.347273 180.371719 
L 180.499531 54.339946 
L 180.651788 28.474244 
L 180.956304 214.167664 
L 181.26082 20.569639 
L 181.413078 72.557372 
L 181.565336 195.078783 
L 181.717594 188.84104 
L 182.02211 23.608453 
L 182.326626 214.751486 
L 182.631142 24.34919 
L 182.7834 62.283279 
L 182.935658 187.462843 
L 183.087916 196.27131 
L 183.392432 20.058008 
L 183.696947 213.927054 
L 183.849205 146.772346 
L 184.001463 29.433535 
L 184.153721 52.773457 
L 184.305979 178.827487 
L 184.458237 202.556653 
L 184.762753 17.873511 
L 185.067269 211.706127 
L 185.219527 157.74107 
L 185.371785 35.750231 
L 185.524043 44.163415 
L 185.828559 207.607513 
L 186.133075 17.086081 
L 186.43759 208.120334 
L 186.589848 168.113887 
L 186.742106 43.209272 
L 186.894364 36.575835 
L 187.19888 211.351917 
L 187.503396 17.706934 
L 187.807912 203.220788 
L 187.96017 177.742992 
L 188.112428 51.704367 
L 188.264686 30.118837 
L 188.569202 213.736511 
L 188.873718 19.727233 
L 189.025976 75.653481 
L 189.178234 197.077285 
L 189.330491 186.49118 
L 189.635007 24.884416 
L 189.939523 214.72732 
L 190.244039 23.118183 
L 190.396297 65.185042 
L 190.548555 189.77738 
L 190.700813 194.233803 
L 191.005329 20.947171 
L 191.309845 214.310218 
L 191.614361 27.831476 
L 191.766619 55.439535 
L 191.918877 181.425074 
L 192.071135 200.86053 
L 192.37565 18.363193 
L 192.680166 212.491159 
L 192.832424 154.620428 
L 192.984682 33.799942 
L 193.13694 46.555809 
L 193.441456 206.276939 
L 193.745972 17.169311 
L 194.050488 209.296054 
L 194.202746 165.18136 
L 194.355004 40.938536 
L 194.507262 38.660459 
L 194.811778 210.405857 
L 195.116293 17.382528 
L 195.420809 204.770434 
L 195.573067 175.040366 
L 195.725325 49.145549 
L 195.877583 31.865983 
L 196.182099 213.188443 
L 196.486615 18.999804 
L 196.638873 78.797722 
L 196.791131 198.978784 
L 196.943389 184.056966 
L 197.095647 58.304036 
L 197.247905 26.269199 
L 197.552421 214.58505 
L 197.856936 21.998105 
L 198.009194 68.147454 
L 198.161452 192.003633 
L 198.31371 192.102686 
L 198.618226 21.949851 
L 198.922742 214.575777 
L 199.227258 26.334702 
L 199.379516 58.177896 
L 199.531774 183.944363 
L 199.684032 199.062874 
L 199.988548 18.969488 
L 200.293064 213.160761 
L 200.445322 151.45353 
L 200.59758 31.947804 
L 200.749837 49.031114 
L 200.902095 174.915816 
L 201.054353 204.838364 
L 201.358869 17.370575 
L 201.663385 210.36016 
L 201.815643 162.189952 
L 201.967901 38.757427 
L 202.120159 40.837433 
L 202.424675 209.346853 
L 202.729191 17.175897 
L 203.033707 206.213881 
L 203.185965 172.267076 
L 203.338223 46.666544 
L 203.490481 33.713607 
L 203.794996 212.524102 
L 204.099512 18.38823 
L 204.25177 81.986332 
L 204.404028 200.781006 
L 204.556286 181.541312 
L 204.708544 55.562459 
L 204.860802 27.761142 
L 205.165318 214.324845 
L 205.469834 20.990294 
L 205.622092 71.166963 
L 205.77435 194.138944 
L 205.926608 189.88051 
L 206.231124 23.064856 
L 206.535639 214.723415 
L 206.840155 24.945012 
L 206.992413 60.985283 
L 207.144671 186.382342 
L 207.296929 197.16584 
L 207.601445 19.691669 
L 207.905961 213.714131 
L 208.058219 148.244159 
L 208.210477 30.19604 
L 208.362735 51.586368 
L 208.514993 177.621723 
L 208.667251 203.293502 
L 208.971767 17.689638 
L 209.276283 211.311381 
L 209.42854 159.143241 
L 209.580798 36.668556 
L 209.733056 43.104151 
L 210.037572 208.176182 
L 210.342088 17.087301 
L 210.646604 207.549397 
L 210.798862 169.426433 
L 210.95112 44.270321 
L 211.103378 35.65949 
L 211.407894 211.744301 
L 211.71241 17.893229 
L 211.864668 85.215506 
L 212.016926 202.481789 
L 212.169184 178.947218 
L 212.321441 52.893029 
L 212.473699 29.445105 
L 212.778215 213.652645 
L 213.082731 20.575548 
L 213.234989 74.4903 
L 213.387247 195.618374 
L 213.539505 186.996155 
L 213.844021 25.208062 
L 214.148537 213.565769 
L 214.453053 24.956941 
L 214.605311 64.640043 
L 214.757569 187.569873 
L 214.909827 193.823068 
L 215.214342 22.343112 
L 215.518858 212.085703 
L 215.823374 30.558344 
L 215.975632 55.700847 
L 216.12789 178.643926 
L 216.280148 199.413154 
L 216.584664 20.867087 
L 216.88918 209.258839 
L 217.041438 154.799751 
L 217.193696 37.276872 
L 217.345954 47.785485 
L 217.65047 203.707924 
L 217.954986 20.776211 
L 218.259501 205.150411 
L 218.411759 164.495743 
L 218.564017 44.995146 
L 218.716275 40.989783 
L 219.020791 206.668864 
L 219.325307 22.046548 
L 219.629823 199.84324 
L 219.782081 173.317303 
L 219.934339 53.583279 
L 220.086597 35.391479 
L 220.391113 208.277651 
L 220.695629 24.634686 
L 220.847887 79.524167 
L 221.000144 193.436175 
L 221.152402 181.152976 
L 221.30466 62.900968 
L 221.456918 31.049415 
L 221.761434 208.536076 
L 222.06595 28.478691 
L 222.218208 69.990033 
L 222.370466 186.042395 
L 222.522724 187.90774 
L 222.82724 28.002972 
L 223.131756 207.465649 
L 223.436272 33.499412 
L 223.58853 61.294484 
L 223.740788 177.787434 
L 223.893045 193.504159 
L 224.197561 26.27185 
L 224.502077 205.10694 
L 224.654335 149.900275 
L 224.806593 39.601907 
L 224.958851 53.54755 
L 225.111109 168.807147 
L 225.263367 197.88316 
L 225.567883 25.856102 
L 225.872399 201.518668 
L 226.024657 159.265166 
L 226.176915 46.677113 
L 226.329173 46.843307 
L 226.633689 201.004633 
L 226.938204 26.736512 
L 227.24272 196.776461 
L 227.394978 167.826507 
L 227.547236 54.603786 
L 227.699494 41.258783 
L 228.00401 202.847656 
L 228.308526 28.875199 
L 228.460784 84.28663 
L 228.613042 190.971468 
L 228.7653 175.475825 
L 228.917558 63.250441 
L 229.069816 36.85313 
L 229.374332 203.410464 
L 229.678847 32.216545 
L 229.831105 75.098157 
L 229.983363 184.208697 
L 230.135621 182.120085 
L 230.440137 33.66705 
L 230.744653 202.710128 
L 231.049169 36.68832 
L 231.201427 66.679023 
L 231.353685 176.605223 
L 231.505943 187.682806 
L 231.810459 31.722552 
L 232.114975 200.78196 
L 232.267233 145.277346 
L 232.41949 42.20307 
L 232.571748 59.13605 
L 232.724006 168.288205 
L 232.876264 192.104901 
L 233.18078 31.022964 
L 233.485296 197.678621 
L 233.637554 154.282437 
L 233.789812 48.659727 
L 233.94207 52.561094 
L 234.246586 195.345209 
L 234.551102 31.553217 
L 234.855618 193.469065 
L 235.007876 162.551558 
L 235.160134 55.945322 
L 235.312391 47.029961 
L 235.616907 197.380766 
L 235.921423 33.280457 
L 236.073681 88.76759 
L 236.225939 188.237124 
L 236.378197 169.979633 
L 236.530455 63.936933 
L 236.682713 42.601551 
L 236.987229 198.206848 
L 237.291745 36.154815 
L 237.444003 79.952622 
L 237.596261 182.080072 
L 237.748519 176.476107 
L 238.053035 39.317348 
L 238.35755 197.836626 
L 238.662066 40.110534 
L 238.814324 71.841139 
L 238.966582 175.106835 
L 239.11884 181.965991 
L 239.423356 37.201095 
L 239.727872 196.300677 
L 239.88013 140.940719 
L 240.032388 45.06723 
L 240.184646 64.53633 
L 240.336904 167.436173 
L 240.489162 186.390678 
L 240.793678 36.258834 
L 241.098193 193.646164 
L 241.250451 149.559026 
L 241.402709 50.931376 
L 241.554967 58.127356 
L 241.859483 189.708513 
L 242.163999 36.479097 
L 242.468515 189.935786 
L 242.620773 157.505464 
L 242.773031 57.597992 
L 242.925289 52.688283 
L 243.229805 191.895083 
L 243.534321 37.833488 
L 243.838837 185.246588 
L 243.991094 164.678804 
L 244.143352 64.952396 
L 244.29561 48.277264 
L 244.600126 192.94323 
L 244.904642 40.277412 
L 245.0569 84.542281 
L 245.209158 179.66845 
L 245.361416 170.991408 
L 245.665932 44.935994 
L 245.970448 192.862799 
L 246.274964 43.751061 
L 246.427222 76.7681 
L 246.57948 173.302522 
L 246.731738 176.37025 
L 247.036253 42.689417 
L 247.340769 191.680175 
L 247.645285 48.180667 
L 247.797543 69.734241 
L 247.949801 166.25947 
L 248.102059 180.757758 
L 248.406575 41.545704 
L 248.711091 189.437528 
L 248.863349 145.105735 
L 249.015607 53.479855 
L 249.167865 63.526728 
L 249.320123 158.65758 
L 249.472381 184.112324 
L 249.776896 41.496442 
L 250.081412 186.191847 
L 250.23367 152.700658 
L 250.385928 59.551233 
L 250.538186 58.217402 
L 250.842702 186.408616 
L 251.147218 42.517149 
L 251.451734 182.013785 
L 251.603992 159.587195 
L 251.75625 66.288065 
L 251.908508 53.863143 
L 252.213024 187.637609 
L 252.51754 44.567946 
L 252.669797 88.856681 
L 252.822055 176.986313 
L 252.974313 165.681074 
L 253.126571 73.576111 
L 253.278829 50.505337 
L 253.583345 187.806395 
L 253.887861 47.594519 
L 254.040119 81.447808 
L 254.192377 171.203158 
L 254.344635 170.911737 
L 254.649151 48.169562 
L 254.953667 186.937709 
L 255.258183 51.529218 
L 255.410441 74.716216 
L 255.562698 164.767206 
L 255.714956 175.22312 
L 256.019472 46.865558 
L 256.323988 185.06926 
L 256.476246 140.932666 
L 256.628504 56.292385 
L 256.780762 68.744345 
L 256.93302 157.788711 
L 257.085278 178.574199 
L 257.389794 46.587433 
L 257.69431 182.252823 
L 257.846568 148.148914 
L 257.998826 61.793845 
L 258.151084 63.601357 
L 258.455599 180.939275 
L 258.760115 47.314049 
L 259.064631 178.553156 
L 259.216889 154.718109 
L 259.369147 67.93447 
L 259.521405 59.342363 
L 259.825921 182.308017 
L 260.130437 49.009735 
L 260.282695 92.886065 
L 260.434953 174.046717 
L 260.587211 160.559757 
L 260.739469 74.607914 
L 260.891727 56.007903 
L 261.196243 182.68529 
L 261.500758 51.62512 
L 261.653016 85.868804 
L 261.805274 168.820249 
L 261.957532 165.606216 
L 262.262048 53.623663 
L 262.566564 182.090759 
L 262.87108 55.098221 
L 263.023338 79.469247 
L 263.175596 162.969188 
L 263.327854 169.803435 
L 263.63237 52.200411 
L 263.936886 180.558191 
L 264.089144 137.049221 
L 264.241401 59.355648 
L 264.393659 73.765846 
L 264.545917 156.596055 
L 264.698175 173.111479 
L 265.002691 51.734176 
L 265.307207 178.134674 
L 265.459465 143.861357 
L 265.611723 64.314029 
L 265.763981 68.824635 
L 266.068497 175.504821 
L 266.373013 52.206661 
L 266.677529 174.87955 
L 266.829787 150.084234 
L 266.982045 69.881486 
L 267.134302 64.698459 
L 267.438818 176.972387 
L 267.743334 53.585824 
L 268.04785 170.863241 
L 268.200108 155.641535 
L 268.352366 75.959268 
L 268.504624 61.426516 
L 268.80914 177.517386 
L 269.113656 55.826746 
L 269.265914 90.020309 
L 269.418172 166.165884 
L 269.57043 160.468963 
L 269.874945 59.034063 
L 270.179461 177.156914 
L 270.483977 58.8726 
L 270.636235 83.980946 
L 270.788493 160.875871 
L 270.940751 164.514966 
L 271.245267 57.532336 
L 271.549783 175.921376 
L 271.854299 62.655815 
L 272.006557 78.577406 
L 272.158815 155.088268 
L 272.311073 167.741209 
L 272.615589 56.918764 
L 272.920104 173.853683 
L 273.072362 139.848431 
L 273.22462 67.099392 
L 273.376878 73.872149 
L 273.681394 170.122857 
L 273.98591 57.177302 
L 274.290426 171.008263 
L 274.442684 145.697656 
L 274.594942 72.118328 
L 274.7472 69.915316 
L 275.051716 171.648627 
L 275.356232 58.279035 
L 275.660747 167.44997 
L 275.813005 150.939957 
L 275.965263 77.621134 
L 276.117521 66.744249 
L 276.422037 172.320603 
L 276.726553 60.182949 
L 276.878811 93.892215 
L 277.031069 163.252762 
L 277.183327 155.51482 
L 277.335585 83.511427 
L 277.487843 64.383243 
L 277.792359 172.153908 
L 278.096875 62.836867 
L 278.249133 88.239548 
L 278.401391 158.498358 
L 278.553648 159.373634 
L 278.858164 62.8435 
L 279.16268 171.176106 
L 279.467196 66.178561 
L 279.619454 83.165757 
L 279.771712 153.274744 
L 279.92397 162.480157 
L 280.228486 62.123264 
L 280.533002 169.426445 
L 280.68526 136.119891 
L 280.837518 70.136978 
L 280.989776 78.729341 
L 281.142034 147.674632 
L 281.294292 164.810759 
L 281.598807 62.20822 
L 281.903323 166.954975 
L 282.055581 141.569805 
L 282.207839 74.633584 
L 282.360097 74.977251 
L 282.664613 166.354476 
L 282.969129 63.072017 
L 283.273645 163.821438 
L 283.425903 146.467993 
L 283.578161 79.583806 
L 283.730419 71.94452 
L 284.034935 167.112845 
L 284.33945 64.67701 
L 284.491708 97.475134 
L 284.643966 160.094085 
L 284.796224 150.758101 
L 284.948482 84.898535 
L 285.10074 69.653971 
L 285.405256 167.099531 
L 285.709772 66.975169 
L 285.86203 92.233945 
L 286.014288 155.848361 
L 286.166546 154.394911 
L 286.471062 68.116219 
L 286.775578 166.339807 
L 287.080094 69.909122 
L 287.232351 87.518237 
L 287.384609 151.165516 
L 287.536867 157.344736 
L 287.841383 67.329809 
L 288.145899 164.869818 
L 288.298157 132.684764 
L 288.450415 73.413304 
L 288.602673 83.382129 
L 288.754931 146.131154 
L 288.907189 159.585667 
L 289.211705 67.28159 
L 289.516221 162.735717 
L 289.668479 137.711472 
L 289.820737 77.415239 
L 289.972995 79.869004 
L 290.27751 161.107577 
L 290.582026 67.947227 
L 290.886542 159.992651 
L 291.0388 142.238025 
L 291.191058 81.83691 
L 291.343316 77.011076 
L 291.647832 161.911977 
L 291.952348 69.291933 
L 292.104606 100.76039 
L 292.256864 156.703606 
L 292.409122 146.212617 
L 292.56138 86.596148 
L 292.713638 74.829225 
L 293.018153 162.011634 
L 293.322669 71.271298 
L 293.474927 95.953694 
L 293.627185 152.938188 
L 293.779443 149.593828 
L 294.083959 73.332952 
L 294.388475 161.430081 
L 294.692991 73.832292 
L 294.845249 91.622766 
L 294.997507 148.771287 
L 295.149765 152.351006 
L 295.454281 72.520574 
L 295.758797 160.200888 
L 296.063312 76.914377 
L 296.21557 87.817005 
L 296.367828 144.281733 
L 296.520086 154.464429 
L 296.824602 72.379555 
L 297.129118 158.366848 
L 297.281376 134.132747 
L 297.433634 80.450713 
L 297.585892 84.575775 
L 297.890408 155.925343 
L 298.194924 72.887042 
L 298.49944 155.979005 
L 298.651698 138.261795 
L 298.803955 84.36943 
L 298.956213 81.928063 
L 299.260729 156.735745 
L 299.565245 74.01054 
L 299.869761 153.095557 
L 300.022019 141.891595 
L 300.174277 88.594974 
L 300.326535 79.892303 
L 300.631051 156.90806 
L 300.935567 75.708748 
L 301.087825 99.389045 
L 301.240083 149.780706 
L 301.392341 144.984938 
L 301.696856 78.476388 
L 302.001372 156.464613 
L 302.305888 77.932473 
L 302.458146 95.467917 
L 302.610404 146.103389 
L 302.762662 147.514618 
L 303.067178 77.677862 
L 303.371694 155.436943 
L 303.67621 80.625726 
L 303.828468 92.021004 
L 303.980726 142.136 
L 304.132984 149.463602 
L 304.4375 77.48428 
L 304.742015 153.865016 
L 304.894273 130.843031 
L 305.046531 83.726851 
L 305.198789 89.083274 
L 305.351047 137.953074 
L 305.503305 150.824983 
L 305.807821 77.873724 
L 306.112337 151.796275 
L 306.264595 134.550413 
L 306.416853 87.169728 
L 306.569111 86.680037 
L 306.873627 151.601791 
L 307.178143 78.815457 
L 307.482658 149.28463 
L 307.634916 137.807708 
L 307.787174 90.885036 
L 307.939432 84.826828 
L 308.243948 151.806628 
L 308.548464 80.270739 
L 308.700722 102.530956 
L 308.85298 146.389323 
L 309.005238 140.58228 
L 309.157496 94.801526 
L 309.309754 83.529431 
L 309.61427 151.461162 
L 309.918786 82.193711 
L 310.071044 99.042917 
L 310.223301 143.173752 
L 310.375559 142.850807 
L 310.680075 82.78411 
L 310.984591 150.595439 
L 311.289107 84.532446 
L 311.441365 95.981769 
L 311.593623 139.704262 
L 311.745881 144.599391 
L 312.050397 82.577974 
L 312.354913 149.247124 
L 312.507171 127.851004 
L 312.659429 87.229994 
L 312.811687 93.377717 
L 312.963945 136.048891 
L 313.116202 145.823464 
L 313.420718 82.889496 
L 313.725234 147.460596 
L 313.877492 131.114322 
L 314.02975 90.22557 
L 314.182008 91.251992 
L 314.486524 146.527597 
L 314.79104 83.689159 
L 315.095556 145.285956 
L 315.247814 133.973005 
L 315.400072 93.455711 
L 315.55233 89.616773 
L 315.856846 146.725102 
L 316.161361 84.94025 
L 316.313619 105.37111 
L 316.465877 142.777961 
L 316.618135 136.39936 
L 316.770393 96.855486 
L 316.922651 88.475261 
L 317.227167 146.437516 
L 317.531683 86.599724 
L 317.683941 102.337662 
L 317.836199 139.994908 
L 317.988457 138.374343 
L 318.292973 87.82193 
L 318.597489 145.693948 
L 318.902004 88.619195 
L 319.054262 99.68755 
L 319.20652 136.997469 
L 319.358778 139.88762 
L 319.663294 87.642926 
L 319.96781 144.530302 
L 320.120068 125.164617 
L 320.272326 90.945974 
L 320.424584 97.445874 
L 320.576842 133.847547 
L 320.7291 140.937453 
L 321.033616 87.916562 
L 321.338132 142.988403 
L 321.49039 127.963277 
L 321.642648 93.524153 
L 321.794905 95.629397 
L 322.099421 141.53044 
L 322.403937 88.614014 
L 322.708453 141.115061 
L 322.860711 130.398923 
L 323.012969 96.29573 
L 323.165227 94.24651 
L 323.469743 141.681129 
L 323.774259 89.70005 
L 324.078775 138.961022 
L 324.231033 132.449127 
L 324.383291 99.201739 
L 324.535549 93.297364 
L 324.840064 141.411469 
L 325.14458 91.133915 
L 325.296838 105.342744 
L 325.449096 136.579924 
L 325.601354 134.099508 
L 325.90587 92.774156 
L 326.210386 140.750153 
L 326.514902 92.870263 
L 326.66716 103.127238 
L 326.819418 134.027192 
L 326.971676 135.343719 
L 327.276192 92.661536 
L 327.580707 139.73187 
L 327.885223 94.860162 
L 328.037481 101.275092 
L 328.189739 131.358952 
L 328.341997 136.1833 
L 328.646513 92.937155 
L 328.951029 138.396424 
L 329.103287 125.106333 
L 329.255545 97.052136 
L 329.407803 99.798223 
L 329.712319 136.62738 
L 330.016835 93.572314 
L 330.321351 136.787841 
L 330.473608 127.096242 
L 330.625866 99.393219 
L 330.778124 98.700825 
L 331.08264 136.692241 
L 331.387156 94.532746 
L 331.691672 134.953358 
L 331.84393 128.743944 
L 331.996188 101.830035 
L 332.148446 97.979558 
L 332.452962 136.400768 
L 332.757478 95.77944 
L 332.909736 108.049465 
L 333.061994 132.942409 
L 333.214252 130.040072 
L 333.366509 104.30983 
L 333.518767 97.623852 
L 333.823283 135.781787 
L 334.127799 97.269577 
L 334.280057 106.290383 
L 334.432315 130.805606 
L 334.584573 130.982678 
L 334.889089 97.616365 
L 335.193605 134.869296 
L 335.498121 98.957486 
L 335.650379 104.853305 
L 335.802637 128.593676 
L 335.954895 131.577015 
L 336.25941 97.933547 
L 336.563926 133.701625 
L 336.716184 122.551825 
L 336.868442 100.795652 
L 337.0207 103.744962 
L 337.172958 126.356476 
L 337.325216 131.835211 
L 337.629732 98.54631 
L 337.934248 132.320533 
L 338.086506 124.075074 
L 338.238764 102.735714 
L 338.391022 102.964961 
L 338.695538 131.775789 
L 339.000054 99.420796 
L 339.304569 130.770243 
L 339.456827 125.295559 
L 339.609085 104.729484 
L 339.761343 102.506029 
L 340.065859 131.42309 
L 340.370375 100.519215 
L 340.522633 110.449861 
L 340.674891 129.096477 
L 340.827149 126.209265 
L 340.979407 106.729919 
L 341.131665 102.354368 
L 341.436181 130.806603 
L 341.740697 101.800744 
L 341.892955 109.167217 
L 342.045212 127.345456 
L 342.19747 126.819019 
L 342.501986 102.490152 
L 342.806502 129.960176 
L 343.111018 103.222471 
L 343.263276 108.169079 
L 343.415534 125.562933 
L 343.567792 127.134213 
L 343.872308 102.888116 
L 344.176824 128.921193 
L 344.329082 120.307348 
L 344.48134 104.740355 
L 344.633598 107.456669 
L 344.785855 123.793231 
L 344.938113 127.170433 
L 345.242629 103.518246 
L 345.547145 127.729677 
L 345.699403 121.344844 
L 345.851661 106.310191 
L 346.003919 107.024635 
L 346.308435 126.948926 
L 346.612951 104.346566 
L 346.917467 126.427352 
L 347.069725 122.115096 
L 347.221983 107.888566 
L 347.374241 106.861359 
L 347.678756 126.496007 
L 347.983272 105.335962 
L 348.13553 112.536706 
L 348.287788 125.056707 
L 348.440046 122.619751 
L 348.592304 109.433771 
L 348.744562 106.949367 
L 349.049078 125.842345 
L 349.353594 106.447084 
L 349.505852 111.748665 
L 349.65811 123.660044 
L 349.810368 122.866773 
L 350.114884 107.26586 
L 350.4194 125.022182 
L 350.723915 107.63926 
L 350.876173 111.211617 
L 351.028431 122.278547 
L 351.180689 122.870102 
L 351.485205 107.783357 
L 351.789721 124.072492 
L 352.094237 108.871434 
L 352.246495 110.920972 
L 352.398753 120.951403 
L 352.551011 122.649216 
L 352.855527 108.470399 
L 353.160043 123.032087 
L 353.312301 118.914268 
L 353.464558 110.103086 
L 353.616816 110.866073 
L 353.921332 122.228569 
L 354.225848 109.292351 
L 354.530364 121.940715 
L 354.682622 119.213018 
L 354.83488 111.295149 
L 354.987138 111.03056 
L 355.291654 121.636943 
L 355.59617 110.212243 
L 355.900686 120.83813 
L 356.052944 119.283601 
L 356.205202 112.410861 
L 356.357459 111.392848 
L 356.661975 120.906713 
L 356.966491 111.191662 
L 357.118749 114.026371 
L 357.271007 119.763184 
L 357.423265 119.139452 
L 357.575523 113.416576 
L 357.727781 111.926705 
L 358.032297 120.073041 
L 358.336813 112.191656 
L 358.489071 113.970787 
L 358.641329 118.752941 
L 358.793587 118.799444 
L 359.098103 112.601931 
L 359.402618 119.173025 
L 359.707134 113.173648 
L 359.859392 114.126106 
L 360.01165 117.841843 
L 360.163908 118.287374 
L 360.468424 113.385108 
L 360.77294 118.244812 
L 360.925198 116.791339 
L 361.077456 114.100331 
L 361.229714 114.476036 
L 361.381972 117.06093 
L 361.53423 117.631362 
L 361.838746 114.240414 
L 362.143261 117.326689 
L 362.295519 116.599118 
L 362.447777 114.93653 
L 362.600035 114.999103 
L 362.904551 116.863147 
L 363.209067 115.130489 
L 363.513583 116.456187 
L 363.665841 116.21227 
L 363.818099 115.650019 
L 363.970357 115.669192 
L 364.122615 115.99271 
L 364.274873 116.01732 
L 364.427131 115.920124 
L 364.427131 115.920124 
" style="fill:none;stroke:#ff7f0e;stroke-linecap:square;stroke-width:1.5;"/>
   </g>
   <g id="patch_3">
    <path d="M 44.845313 224.64 
L 44.845313 7.2 
" style="fill:none;stroke:#000000;stroke-linecap:square;stroke-linejoin:miter;stroke-width:0.8;"/>
   </g>
   <g id="patch_4">
    <path d="M 379.645313 224.64 
L 379.645313 7.2 
" style="fill:none;stroke:#000000;stroke-linecap:square;stroke-linejoin:miter;stroke-width:0.8;"/>
   </g>
   <g id="patch_5">
    <path d="M 44.845313 224.64 
L 379.645313 224.64 
" style="fill:none;stroke:#000000;stroke-linecap:square;stroke-linejoin:miter;stroke-width:0.8;"/>
   </g>
   <g id="patch_6">
    <path d="M 44.845313 7.2 
L 379.645313 7.2 
" style="fill:none;stroke:#000000;stroke-linecap:square;stroke-linejoin:miter;stroke-width:0.8;"/>
   </g>
  </g>
 </g>
 <defs>
  <clipPath id="pa52c95c40e">
   <rect height="217.44" width="334.8" x="44.845313" y="7.2"/>
  </clipPath>
 </defs>
</svg>
