<?xml version="1.0" encoding="utf-8" standalone="no"?>
<!DOCTYPE svg PUBLIC "-//W3C//DTD SVG 1.1//EN"
  "http://www.w3.org/Graphics/SVG/1.1/DTD/svg11.dtd">
<svg height="248.518125pt" version="1.1" viewBox="0 0 370.942187 248.518125" width="370.942187pt" xmlns="http://www.w3.org/2000/svg" xmlns:xlink="http://www.w3.org/1999/xlink">
 <metadata>
  <rdf:RDF xmlns:cc="http://creativecommons.org/ns#" xmlns:dc="http://purl.org/dc/elements/1.1/" xmlns:rdf="http://www.w3.org/1999/02/22-rdf-syntax-ns#">
   <cc:Work>
    <dc:type rdf:resource="http://purl.org/dc/dcmitype/StillImage"/>
    <dc:date>2021-07-19T15:38:44.023040</dc:date>
    <dc:format>image/svg+xml</dc:format>
    <dc:creator>
     <cc:Agent>
      <dc:title>Matplotlib v3.4.2, https://matplotlib.org/</dc:title>
     </cc:Agent>
    </dc:creator>
   </cc:Work>
  </rdf:RDF>
 </metadata>
 <defs>
  <style type="text/css">*{stroke-linecap:butt;stroke-linejoin:round;}</style>
 </defs>
 <g id="figure_1">
  <g id="patch_1">
   <path d="M 0 248.518125 
L 370.942187 248.518125 
L 370.942187 0 
L 0 0 
z
" style="fill:none;"/>
  </g>
  <g id="axes_1">
   <g id="patch_2">
    <path d="M 28.942188 224.64 
L 363.742188 224.64 
L 363.742188 7.2 
L 28.942188 7.2 
z
" style="fill:#ffffff;"/>
   </g>
   <g id="matplotlib.axis_1">
    <g id="xtick_1">
     <g id="line2d_1">
      <defs>
       <path d="M 0 0 
L 0 3.5 
" id="m3933fc86f0" style="stroke:#000000;stroke-width:0.8;"/>
      </defs>
      <g>
       <use style="stroke:#000000;stroke-width:0.8;" x="44.160369" xlink:href="#m3933fc86f0" y="224.64"/>
      </g>
     </g>
     <g id="text_1">
      <!-- 0 -->
      <g transform="translate(40.979119 239.238437)scale(0.1 -0.1)">
       <defs>
        <path d="M 2034 4250 
Q 1547 4250 1301 3770 
Q 1056 3291 1056 2328 
Q 1056 1369 1301 889 
Q 1547 409 2034 409 
Q 2525 409 2770 889 
Q 3016 1369 3016 2328 
Q 3016 3291 2770 3770 
Q 2525 4250 2034 4250 
z
M 2034 4750 
Q 2819 4750 3233 4129 
Q 3647 3509 3647 2328 
Q 3647 1150 3233 529 
Q 2819 -91 2034 -91 
Q 1250 -91 836 529 
Q 422 1150 422 2328 
Q 422 3509 836 4129 
Q 1250 4750 2034 4750 
z
" id="DejaVuSans-30" transform="scale(0.015625)"/>
       </defs>
       <use xlink:href="#DejaVuSans-30"/>
      </g>
     </g>
    </g>
    <g id="xtick_2">
     <g id="line2d_2">
      <g>
       <use style="stroke:#000000;stroke-width:0.8;" x="105.155086" xlink:href="#m3933fc86f0" y="224.64"/>
      </g>
     </g>
     <g id="text_2">
      <!-- 100 -->
      <g transform="translate(95.611336 239.238437)scale(0.1 -0.1)">
       <defs>
        <path d="M 794 531 
L 1825 531 
L 1825 4091 
L 703 3866 
L 703 4441 
L 1819 4666 
L 2450 4666 
L 2450 531 
L 3481 531 
L 3481 0 
L 794 0 
L 794 531 
z
" id="DejaVuSans-31" transform="scale(0.015625)"/>
       </defs>
       <use xlink:href="#DejaVuSans-31"/>
       <use x="63.623047" xlink:href="#DejaVuSans-30"/>
       <use x="127.246094" xlink:href="#DejaVuSans-30"/>
      </g>
     </g>
    </g>
    <g id="xtick_3">
     <g id="line2d_3">
      <g>
       <use style="stroke:#000000;stroke-width:0.8;" x="166.149803" xlink:href="#m3933fc86f0" y="224.64"/>
      </g>
     </g>
     <g id="text_3">
      <!-- 200 -->
      <g transform="translate(156.606053 239.238437)scale(0.1 -0.1)">
       <defs>
        <path d="M 1228 531 
L 3431 531 
L 3431 0 
L 469 0 
L 469 531 
Q 828 903 1448 1529 
Q 2069 2156 2228 2338 
Q 2531 2678 2651 2914 
Q 2772 3150 2772 3378 
Q 2772 3750 2511 3984 
Q 2250 4219 1831 4219 
Q 1534 4219 1204 4116 
Q 875 4013 500 3803 
L 500 4441 
Q 881 4594 1212 4672 
Q 1544 4750 1819 4750 
Q 2544 4750 2975 4387 
Q 3406 4025 3406 3419 
Q 3406 3131 3298 2873 
Q 3191 2616 2906 2266 
Q 2828 2175 2409 1742 
Q 1991 1309 1228 531 
z
" id="DejaVuSans-32" transform="scale(0.015625)"/>
       </defs>
       <use xlink:href="#DejaVuSans-32"/>
       <use x="63.623047" xlink:href="#DejaVuSans-30"/>
       <use x="127.246094" xlink:href="#DejaVuSans-30"/>
      </g>
     </g>
    </g>
    <g id="xtick_4">
     <g id="line2d_4">
      <g>
       <use style="stroke:#000000;stroke-width:0.8;" x="227.144519" xlink:href="#m3933fc86f0" y="224.64"/>
      </g>
     </g>
     <g id="text_4">
      <!-- 300 -->
      <g transform="translate(217.600769 239.238437)scale(0.1 -0.1)">
       <defs>
        <path d="M 2597 2516 
Q 3050 2419 3304 2112 
Q 3559 1806 3559 1356 
Q 3559 666 3084 287 
Q 2609 -91 1734 -91 
Q 1441 -91 1130 -33 
Q 819 25 488 141 
L 488 750 
Q 750 597 1062 519 
Q 1375 441 1716 441 
Q 2309 441 2620 675 
Q 2931 909 2931 1356 
Q 2931 1769 2642 2001 
Q 2353 2234 1838 2234 
L 1294 2234 
L 1294 2753 
L 1863 2753 
Q 2328 2753 2575 2939 
Q 2822 3125 2822 3475 
Q 2822 3834 2567 4026 
Q 2313 4219 1838 4219 
Q 1578 4219 1281 4162 
Q 984 4106 628 3988 
L 628 4550 
Q 988 4650 1302 4700 
Q 1616 4750 1894 4750 
Q 2613 4750 3031 4423 
Q 3450 4097 3450 3541 
Q 3450 3153 3228 2886 
Q 3006 2619 2597 2516 
z
" id="DejaVuSans-33" transform="scale(0.015625)"/>
       </defs>
       <use xlink:href="#DejaVuSans-33"/>
       <use x="63.623047" xlink:href="#DejaVuSans-30"/>
       <use x="127.246094" xlink:href="#DejaVuSans-30"/>
      </g>
     </g>
    </g>
    <g id="xtick_5">
     <g id="line2d_5">
      <g>
       <use style="stroke:#000000;stroke-width:0.8;" x="288.139236" xlink:href="#m3933fc86f0" y="224.64"/>
      </g>
     </g>
     <g id="text_5">
      <!-- 400 -->
      <g transform="translate(278.595486 239.238437)scale(0.1 -0.1)">
       <defs>
        <path d="M 2419 4116 
L 825 1625 
L 2419 1625 
L 2419 4116 
z
M 2253 4666 
L 3047 4666 
L 3047 1625 
L 3713 1625 
L 3713 1100 
L 3047 1100 
L 3047 0 
L 2419 0 
L 2419 1100 
L 313 1100 
L 313 1709 
L 2253 4666 
z
" id="DejaVuSans-34" transform="scale(0.015625)"/>
       </defs>
       <use xlink:href="#DejaVuSans-34"/>
       <use x="63.623047" xlink:href="#DejaVuSans-30"/>
       <use x="127.246094" xlink:href="#DejaVuSans-30"/>
      </g>
     </g>
    </g>
    <g id="xtick_6">
     <g id="line2d_6">
      <g>
       <use style="stroke:#000000;stroke-width:0.8;" x="349.133953" xlink:href="#m3933fc86f0" y="224.64"/>
      </g>
     </g>
     <g id="text_6">
      <!-- 500 -->
      <g transform="translate(339.590203 239.238437)scale(0.1 -0.1)">
       <defs>
        <path d="M 691 4666 
L 3169 4666 
L 3169 4134 
L 1269 4134 
L 1269 2991 
Q 1406 3038 1543 3061 
Q 1681 3084 1819 3084 
Q 2600 3084 3056 2656 
Q 3513 2228 3513 1497 
Q 3513 744 3044 326 
Q 2575 -91 1722 -91 
Q 1428 -91 1123 -41 
Q 819 9 494 109 
L 494 744 
Q 775 591 1075 516 
Q 1375 441 1709 441 
Q 2250 441 2565 725 
Q 2881 1009 2881 1497 
Q 2881 1984 2565 2268 
Q 2250 2553 1709 2553 
Q 1456 2553 1204 2497 
Q 953 2441 691 2322 
L 691 4666 
z
" id="DejaVuSans-35" transform="scale(0.015625)"/>
       </defs>
       <use xlink:href="#DejaVuSans-35"/>
       <use x="63.623047" xlink:href="#DejaVuSans-30"/>
       <use x="127.246094" xlink:href="#DejaVuSans-30"/>
      </g>
     </g>
    </g>
   </g>
   <g id="matplotlib.axis_2">
    <g id="ytick_1">
     <g id="line2d_7">
      <defs>
       <path d="M 0 0 
L -3.5 0 
" id="mb5135d2ec6" style="stroke:#000000;stroke-width:0.8;"/>
      </defs>
      <g>
       <use style="stroke:#000000;stroke-width:0.8;" x="28.942188" xlink:href="#mb5135d2ec6" y="188.640092"/>
      </g>
     </g>
     <g id="text_7">
      <!-- −2 -->
      <g transform="translate(7.2 192.439311)scale(0.1 -0.1)">
       <defs>
        <path d="M 678 2272 
L 4684 2272 
L 4684 1741 
L 678 1741 
L 678 2272 
z
" id="DejaVuSans-2212" transform="scale(0.015625)"/>
       </defs>
       <use xlink:href="#DejaVuSans-2212"/>
       <use x="83.789062" xlink:href="#DejaVuSans-32"/>
      </g>
     </g>
    </g>
    <g id="ytick_2">
     <g id="line2d_8">
      <g>
       <use style="stroke:#000000;stroke-width:0.8;" x="28.942188" xlink:href="#mb5135d2ec6" y="152.280046"/>
      </g>
     </g>
     <g id="text_8">
      <!-- −1 -->
      <g transform="translate(7.2 156.079265)scale(0.1 -0.1)">
       <use xlink:href="#DejaVuSans-2212"/>
       <use x="83.789062" xlink:href="#DejaVuSans-31"/>
      </g>
     </g>
    </g>
    <g id="ytick_3">
     <g id="line2d_9">
      <g>
       <use style="stroke:#000000;stroke-width:0.8;" x="28.942188" xlink:href="#mb5135d2ec6" y="115.92"/>
      </g>
     </g>
     <g id="text_9">
      <!-- 0 -->
      <g transform="translate(15.579688 119.719219)scale(0.1 -0.1)">
       <use xlink:href="#DejaVuSans-30"/>
      </g>
     </g>
    </g>
    <g id="ytick_4">
     <g id="line2d_10">
      <g>
       <use style="stroke:#000000;stroke-width:0.8;" x="28.942188" xlink:href="#mb5135d2ec6" y="79.559954"/>
      </g>
     </g>
     <g id="text_10">
      <!-- 1 -->
      <g transform="translate(15.579688 83.359173)scale(0.1 -0.1)">
       <use xlink:href="#DejaVuSans-31"/>
      </g>
     </g>
    </g>
    <g id="ytick_5">
     <g id="line2d_11">
      <g>
       <use style="stroke:#000000;stroke-width:0.8;" x="28.942188" xlink:href="#mb5135d2ec6" y="43.199908"/>
      </g>
     </g>
     <g id="text_11">
      <!-- 2 -->
      <g transform="translate(15.579688 46.999127)scale(0.1 -0.1)">
       <use xlink:href="#DejaVuSans-32"/>
      </g>
     </g>
    </g>
   </g>
   <g id="line2d_12">
    <path clip-path="url(#pa7b0f44557)" d="M 44.160369 115.92 
L 47.820052 91.670816 
L 49.649894 80.822514 
L 51.479735 71.425651 
L 52.69963 66.147203 
L 53.919524 61.756032 
L 55.139418 58.312806 
L 56.359313 55.855945 
L 56.96926 55.003211 
L 57.579207 54.40122 
L 58.189154 54.048425 
L 58.799101 53.941954 
L 59.409048 54.077605 
L 60.018996 54.449909 
L 60.628943 55.052199 
L 61.23889 55.87666 
L 62.458784 58.155547 
L 63.678679 61.204052 
L 64.898573 64.926521 
L 66.728414 71.540315 
L 69.168203 81.678911 
L 75.267675 107.986242 
L 77.097516 114.780793 
L 78.927358 120.626026 
L 80.147252 123.917307 
L 81.367147 126.68693 
L 82.587041 128.915547 
L 83.806935 130.593862 
L 85.02683 131.721393 
L 85.636777 132.080538 
L 86.246724 132.305104 
L 86.856671 132.396892 
L 87.466618 132.358 
L 88.076565 132.190769 
L 89.29646 131.481693 
L 90.516354 130.292008 
L 91.736248 128.64586 
L 92.956143 126.568446 
L 94.176037 124.085498 
L 96.005879 119.657737 
L 97.83572 114.465909 
L 99.665562 108.604581 
L 102.10535 99.930801 
L 105.155086 88.136532 
L 110.644611 66.708875 
L 112.474452 60.384437 
L 114.304294 54.931974 
L 115.524188 51.929601 
L 116.744082 49.536652 
L 117.963977 47.838386 
L 118.573924 47.274912 
L 119.183871 46.914367 
L 119.793818 46.765379 
L 120.403765 46.835914 
L 121.013712 47.133179 
L 121.62366 47.663552 
L 122.233607 48.43251 
L 122.843554 49.444553 
L 124.063448 52.210703 
L 125.283343 55.976339 
L 126.503237 60.736806 
L 127.723131 66.467325 
L 128.943026 73.122425 
L 130.772867 84.688345 
L 132.602709 97.873788 
L 135.042497 117.273687 
L 141.751916 172.012372 
L 143.581758 184.769142 
L 145.411599 195.662664 
L 146.631493 201.700135 
L 147.851388 206.653958 
L 149.071282 210.460433 
L 149.681229 211.920026 
L 150.291176 213.07977 
L 150.901124 213.938556 
L 151.511071 214.496773 
L 152.121018 214.756364 
L 152.730965 214.720769 
L 153.340912 214.394879 
L 153.950859 213.784978 
L 154.560807 212.898746 
L 155.170754 211.745131 
L 156.390648 208.67762 
L 157.610542 204.677013 
L 158.830437 199.853267 
L 160.660278 191.343752 
L 162.49012 181.703962 
L 166.75975 157.393871 
L 169.199539 143.982798 
L 171.02938 134.799259 
L 172.859222 126.651592 
L 174.689063 119.711916 
L 175.908957 115.805932 
L 177.128852 112.489441 
L 178.348746 109.758724 
L 179.56864 107.598438 
L 180.788535 105.983364 
L 182.008429 104.880295 
L 183.228323 104.249968 
L 184.448218 104.048939 
L 185.668112 104.231333 
L 186.888006 104.750447 
L 188.107901 105.560049 
L 189.327795 106.615441 
L 191.157637 108.567297 
L 193.597425 111.656815 
L 197.867055 117.651349 
L 200.916791 121.782548 
L 202.746633 123.965809 
L 204.576474 125.780268 
L 205.796369 126.718224 
L 207.016263 127.388286 
L 208.236157 127.744877 
L 209.456052 127.741379 
L 210.675946 127.331322 
L 211.89584 126.469839 
L 213.115735 125.115339 
L 214.335629 123.231355 
L 215.555523 120.788435 
L 216.775418 117.766059 
L 217.995312 114.154496 
L 219.215206 109.956437 
L 221.045048 102.599889 
L 222.874889 94.083858 
L 225.314678 81.280269 
L 229.584308 56.962025 
L 232.024097 43.606675 
L 233.853938 34.669536 
L 235.073833 29.479355 
L 236.293727 25.052593 
L 237.513621 21.505682 
L 238.733516 18.941254 
L 239.343463 18.055022 
L 239.95341 17.445121 
L 240.563357 17.119231 
L 241.173304 17.083636 
L 241.783251 17.343227 
L 242.393199 17.901444 
L 243.003146 18.76023 
L 243.613093 19.919974 
L 244.22304 21.379567 
L 245.442934 25.186042 
L 246.662829 30.139865 
L 247.882723 36.177336 
L 249.102617 43.21214 
L 250.932459 55.395271 
L 252.7623 69.142763 
L 255.812036 94.146243 
L 260.081666 129.277699 
L 261.911508 142.918524 
L 263.741349 155.063195 
L 265.571191 165.372675 
L 266.791085 171.103194 
L 268.01098 175.863661 
L 269.230874 179.629297 
L 270.450768 182.395447 
L 271.060715 183.40749 
L 271.670663 184.176448 
L 272.28061 184.706821 
L 272.890557 185.004086 
L 273.500504 185.074621 
L 274.110451 184.925633 
L 274.720398 184.565088 
L 275.330346 184.001614 
L 275.940293 183.244449 
L 277.160187 181.188483 
L 278.380081 178.479912 
L 279.599976 175.205881 
L 281.429817 169.429665 
L 283.259659 162.879796 
L 286.309395 151.002407 
L 291.188972 131.909199 
L 293.628761 123.235419 
L 295.458602 117.374091 
L 297.288444 112.182263 
L 299.118285 107.754502 
L 300.338179 105.271554 
L 301.558074 103.19414 
L 302.777968 101.547992 
L 303.997862 100.358307 
L 305.217757 99.649231 
L 305.827704 99.482 
L 306.437651 99.443108 
L 307.047598 99.534896 
L 307.657545 99.759462 
L 308.267493 100.118607 
L 309.487387 101.246138 
L 310.707281 102.924453 
L 311.927176 105.15307 
L 313.14707 107.922693 
L 314.366964 111.213974 
L 316.196806 117.059207 
L 318.026647 123.853758 
L 320.466436 134.009096 
L 326.565908 160.299685 
L 328.395749 166.913479 
L 329.615644 170.635948 
L 330.835538 173.684453 
L 332.055432 175.96334 
L 332.665379 176.787801 
L 333.275327 177.390091 
L 333.885274 177.762395 
L 334.495221 177.898046 
L 335.105168 177.791575 
L 335.715115 177.43878 
L 336.325062 176.836789 
L 336.93501 175.984055 
L 337.544957 174.880437 
L 338.764851 171.927005 
L 339.984745 168.003594 
L 341.20464 163.159849 
L 342.424534 157.467193 
L 344.254376 147.542556 
L 346.084217 136.304063 
L 348.524006 120.074647 
L 348.524006 120.074647 
" style="fill:none;stroke:#1f77b4;stroke-linecap:square;stroke-width:1.5;"/>
   </g>
   <g id="patch_3">
    <path d="M 28.942188 224.64 
L 28.942188 7.2 
" style="fill:none;stroke:#000000;stroke-linecap:square;stroke-linejoin:miter;stroke-width:0.8;"/>
   </g>
   <g id="patch_4">
    <path d="M 363.742188 224.64 
L 363.742188 7.2 
" style="fill:none;stroke:#000000;stroke-linecap:square;stroke-linejoin:miter;stroke-width:0.8;"/>
   </g>
   <g id="patch_5">
    <path d="M 28.942188 224.64 
L 363.742188 224.64 
" style="fill:none;stroke:#000000;stroke-linecap:square;stroke-linejoin:miter;stroke-width:0.8;"/>
   </g>
   <g id="patch_6">
    <path d="M 28.942188 7.2 
L 363.742188 7.2 
" style="fill:none;stroke:#000000;stroke-linecap:square;stroke-linejoin:miter;stroke-width:0.8;"/>
   </g>
  </g>
 </g>
 <defs>
  <clipPath id="pa7b0f44557">
   <rect height="217.44" width="334.8" x="28.942188" y="7.2"/>
  </clipPath>
 </defs>
</svg>
