<?xml version="1.0" encoding="utf-8" standalone="no"?>
<!DOCTYPE svg PUBLIC "-//W3C//DTD SVG 1.1//EN"
  "http://www.w3.org/Graphics/SVG/1.1/DTD/svg11.dtd">
<svg xmlns:xlink="http://www.w3.org/1999/xlink" width="393.262187pt" height="297.190125pt" viewBox="0 0 393.262187 297.190125" xmlns="http://www.w3.org/2000/svg" version="1.1">
 <metadata>
  <rdf:RDF xmlns:dc="http://purl.org/dc/elements/1.1/" xmlns:cc="http://creativecommons.org/ns#" xmlns:rdf="http://www.w3.org/1999/02/22-rdf-syntax-ns#">
   <cc:Work>
    <dc:type rdf:resource="http://purl.org/dc/dcmitype/StillImage"/>
    <dc:date>2023-08-22T14:04:15.913397</dc:date>
    <dc:format>image/svg+xml</dc:format>
    <dc:creator>
     <cc:Agent>
      <dc:title>Matplotlib v3.7.2, https://matplotlib.org/</dc:title>
     </cc:Agent>
    </dc:creator>
   </cc:Work>
  </rdf:RDF>
 </metadata>
 <defs>
  <style type="text/css">*{stroke-linejoin: round; stroke-linecap: butt}</style>
 </defs>
 <g id="figure_1">
  <g id="patch_1">
   <path d="M 0 297.190125 
L 393.262187 297.190125 
L 393.262187 0 
L 0 0 
z
" style="fill: #ffffff"/>
  </g>
  <g id="axes_1">
   <g id="patch_2">
    <path d="M 28.942188 273.312 
L 386.062188 273.312 
L 386.062188 7.2 
L 28.942188 7.2 
z
" style="fill: #ffffff"/>
   </g>
   <g id="matplotlib.axis_1">
    <g id="xtick_1">
     <g id="line2d_1">
      <defs>
       <path id="m22489e0a58" d="M 0 0 
L 0 3.5 
" style="stroke: #000000; stroke-width: 0.8"/>
      </defs>
      <g>
       <use xlink:href="#m22489e0a58" x="45.174915" y="273.312" style="stroke: #000000; stroke-width: 0.8"/>
      </g>
     </g>
     <g id="text_1">
      <!-- 0 -->
      <g transform="translate(41.993665 287.910437) scale(0.1 -0.1)">
       <defs>
        <path id="DejaVuSans-30" d="M 2034 4250 
Q 1547 4250 1301 3770 
Q 1056 3291 1056 2328 
Q 1056 1369 1301 889 
Q 1547 409 2034 409 
Q 2525 409 2770 889 
Q 3016 1369 3016 2328 
Q 3016 3291 2770 3770 
Q 2525 4250 2034 4250 
z
M 2034 4750 
Q 2819 4750 3233 4129 
Q 3647 3509 3647 2328 
Q 3647 1150 3233 529 
Q 2819 -91 2034 -91 
Q 1250 -91 836 529 
Q 422 1150 422 2328 
Q 422 3509 836 4129 
Q 1250 4750 2034 4750 
z
" transform="scale(0.015625)"/>
       </defs>
       <use xlink:href="#DejaVuSans-30"/>
      </g>
     </g>
    </g>
    <g id="xtick_2">
     <g id="line2d_2">
      <g>
       <use xlink:href="#m22489e0a58" x="108.645989" y="273.312" style="stroke: #000000; stroke-width: 0.8"/>
      </g>
     </g>
     <g id="text_2">
      <!-- 200 -->
      <g transform="translate(99.102239 287.910437) scale(0.1 -0.1)">
       <defs>
        <path id="DejaVuSans-32" d="M 1228 531 
L 3431 531 
L 3431 0 
L 469 0 
L 469 531 
Q 828 903 1448 1529 
Q 2069 2156 2228 2338 
Q 2531 2678 2651 2914 
Q 2772 3150 2772 3378 
Q 2772 3750 2511 3984 
Q 2250 4219 1831 4219 
Q 1534 4219 1204 4116 
Q 875 4013 500 3803 
L 500 4441 
Q 881 4594 1212 4672 
Q 1544 4750 1819 4750 
Q 2544 4750 2975 4387 
Q 3406 4025 3406 3419 
Q 3406 3131 3298 2873 
Q 3191 2616 2906 2266 
Q 2828 2175 2409 1742 
Q 1991 1309 1228 531 
z
" transform="scale(0.015625)"/>
       </defs>
       <use xlink:href="#DejaVuSans-32"/>
       <use xlink:href="#DejaVuSans-30" x="63.623047"/>
       <use xlink:href="#DejaVuSans-30" x="127.246094"/>
      </g>
     </g>
    </g>
    <g id="xtick_3">
     <g id="line2d_3">
      <g>
       <use xlink:href="#m22489e0a58" x="172.117064" y="273.312" style="stroke: #000000; stroke-width: 0.8"/>
      </g>
     </g>
     <g id="text_3">
      <!-- 400 -->
      <g transform="translate(162.573314 287.910437) scale(0.1 -0.1)">
       <defs>
        <path id="DejaVuSans-34" d="M 2419 4116 
L 825 1625 
L 2419 1625 
L 2419 4116 
z
M 2253 4666 
L 3047 4666 
L 3047 1625 
L 3713 1625 
L 3713 1100 
L 3047 1100 
L 3047 0 
L 2419 0 
L 2419 1100 
L 313 1100 
L 313 1709 
L 2253 4666 
z
" transform="scale(0.015625)"/>
       </defs>
       <use xlink:href="#DejaVuSans-34"/>
       <use xlink:href="#DejaVuSans-30" x="63.623047"/>
       <use xlink:href="#DejaVuSans-30" x="127.246094"/>
      </g>
     </g>
    </g>
    <g id="xtick_4">
     <g id="line2d_4">
      <g>
       <use xlink:href="#m22489e0a58" x="235.588138" y="273.312" style="stroke: #000000; stroke-width: 0.8"/>
      </g>
     </g>
     <g id="text_4">
      <!-- 600 -->
      <g transform="translate(226.044388 287.910437) scale(0.1 -0.1)">
       <defs>
        <path id="DejaVuSans-36" d="M 2113 2584 
Q 1688 2584 1439 2293 
Q 1191 2003 1191 1497 
Q 1191 994 1439 701 
Q 1688 409 2113 409 
Q 2538 409 2786 701 
Q 3034 994 3034 1497 
Q 3034 2003 2786 2293 
Q 2538 2584 2113 2584 
z
M 3366 4563 
L 3366 3988 
Q 3128 4100 2886 4159 
Q 2644 4219 2406 4219 
Q 1781 4219 1451 3797 
Q 1122 3375 1075 2522 
Q 1259 2794 1537 2939 
Q 1816 3084 2150 3084 
Q 2853 3084 3261 2657 
Q 3669 2231 3669 1497 
Q 3669 778 3244 343 
Q 2819 -91 2113 -91 
Q 1303 -91 875 529 
Q 447 1150 447 2328 
Q 447 3434 972 4092 
Q 1497 4750 2381 4750 
Q 2619 4750 2861 4703 
Q 3103 4656 3366 4563 
z
" transform="scale(0.015625)"/>
       </defs>
       <use xlink:href="#DejaVuSans-36"/>
       <use xlink:href="#DejaVuSans-30" x="63.623047"/>
       <use xlink:href="#DejaVuSans-30" x="127.246094"/>
      </g>
     </g>
    </g>
    <g id="xtick_5">
     <g id="line2d_5">
      <g>
       <use xlink:href="#m22489e0a58" x="299.059212" y="273.312" style="stroke: #000000; stroke-width: 0.8"/>
      </g>
     </g>
     <g id="text_5">
      <!-- 800 -->
      <g transform="translate(289.515462 287.910437) scale(0.1 -0.1)">
       <defs>
        <path id="DejaVuSans-38" d="M 2034 2216 
Q 1584 2216 1326 1975 
Q 1069 1734 1069 1313 
Q 1069 891 1326 650 
Q 1584 409 2034 409 
Q 2484 409 2743 651 
Q 3003 894 3003 1313 
Q 3003 1734 2745 1975 
Q 2488 2216 2034 2216 
z
M 1403 2484 
Q 997 2584 770 2862 
Q 544 3141 544 3541 
Q 544 4100 942 4425 
Q 1341 4750 2034 4750 
Q 2731 4750 3128 4425 
Q 3525 4100 3525 3541 
Q 3525 3141 3298 2862 
Q 3072 2584 2669 2484 
Q 3125 2378 3379 2068 
Q 3634 1759 3634 1313 
Q 3634 634 3220 271 
Q 2806 -91 2034 -91 
Q 1263 -91 848 271 
Q 434 634 434 1313 
Q 434 1759 690 2068 
Q 947 2378 1403 2484 
z
M 1172 3481 
Q 1172 3119 1398 2916 
Q 1625 2713 2034 2713 
Q 2441 2713 2670 2916 
Q 2900 3119 2900 3481 
Q 2900 3844 2670 4047 
Q 2441 4250 2034 4250 
Q 1625 4250 1398 4047 
Q 1172 3844 1172 3481 
z
" transform="scale(0.015625)"/>
       </defs>
       <use xlink:href="#DejaVuSans-38"/>
       <use xlink:href="#DejaVuSans-30" x="63.623047"/>
       <use xlink:href="#DejaVuSans-30" x="127.246094"/>
      </g>
     </g>
    </g>
    <g id="xtick_6">
     <g id="line2d_6">
      <g>
       <use xlink:href="#m22489e0a58" x="362.530287" y="273.312" style="stroke: #000000; stroke-width: 0.8"/>
      </g>
     </g>
     <g id="text_6">
      <!-- 1000 -->
      <g transform="translate(349.805287 287.910437) scale(0.1 -0.1)">
       <defs>
        <path id="DejaVuSans-31" d="M 794 531 
L 1825 531 
L 1825 4091 
L 703 3866 
L 703 4441 
L 1819 4666 
L 2450 4666 
L 2450 531 
L 3481 531 
L 3481 0 
L 794 0 
L 794 531 
z
" transform="scale(0.015625)"/>
       </defs>
       <use xlink:href="#DejaVuSans-31"/>
       <use xlink:href="#DejaVuSans-30" x="63.623047"/>
       <use xlink:href="#DejaVuSans-30" x="127.246094"/>
       <use xlink:href="#DejaVuSans-30" x="190.869141"/>
      </g>
     </g>
    </g>
   </g>
   <g id="matplotlib.axis_2">
    <g id="ytick_1">
     <g id="line2d_7">
      <defs>
       <path id="m6c618bca26" d="M 0 0 
L -3.5 0 
" style="stroke: #000000; stroke-width: 0.8"/>
      </defs>
      <g>
       <use xlink:href="#m6c618bca26" x="28.942188" y="248.221585" style="stroke: #000000; stroke-width: 0.8"/>
      </g>
     </g>
     <g id="text_7">
      <!-- −2 -->
      <g transform="translate(7.2 252.020804) scale(0.1 -0.1)">
       <defs>
        <path id="DejaVuSans-2212" d="M 678 2272 
L 4684 2272 
L 4684 1741 
L 678 1741 
L 678 2272 
z
" transform="scale(0.015625)"/>
       </defs>
       <use xlink:href="#DejaVuSans-2212"/>
       <use xlink:href="#DejaVuSans-32" x="83.789062"/>
      </g>
     </g>
    </g>
    <g id="ytick_2">
     <g id="line2d_8">
      <g>
       <use xlink:href="#m6c618bca26" x="28.942188" y="201.687905" style="stroke: #000000; stroke-width: 0.8"/>
      </g>
     </g>
     <g id="text_8">
      <!-- −1 -->
      <g transform="translate(7.2 205.487124) scale(0.1 -0.1)">
       <use xlink:href="#DejaVuSans-2212"/>
       <use xlink:href="#DejaVuSans-31" x="83.789062"/>
      </g>
     </g>
    </g>
    <g id="ytick_3">
     <g id="line2d_9">
      <g>
       <use xlink:href="#m6c618bca26" x="28.942188" y="155.154225" style="stroke: #000000; stroke-width: 0.8"/>
      </g>
     </g>
     <g id="text_9">
      <!-- 0 -->
      <g transform="translate(15.579688 158.953443) scale(0.1 -0.1)">
       <use xlink:href="#DejaVuSans-30"/>
      </g>
     </g>
    </g>
    <g id="ytick_4">
     <g id="line2d_10">
      <g>
       <use xlink:href="#m6c618bca26" x="28.942188" y="108.620544" style="stroke: #000000; stroke-width: 0.8"/>
      </g>
     </g>
     <g id="text_10">
      <!-- 1 -->
      <g transform="translate(15.579688 112.419763) scale(0.1 -0.1)">
       <use xlink:href="#DejaVuSans-31"/>
      </g>
     </g>
    </g>
    <g id="ytick_5">
     <g id="line2d_11">
      <g>
       <use xlink:href="#m6c618bca26" x="28.942188" y="62.086864" style="stroke: #000000; stroke-width: 0.8"/>
      </g>
     </g>
     <g id="text_11">
      <!-- 2 -->
      <g transform="translate(15.579688 65.886083) scale(0.1 -0.1)">
       <use xlink:href="#DejaVuSans-32"/>
      </g>
     </g>
    </g>
    <g id="ytick_6">
     <g id="line2d_12">
      <g>
       <use xlink:href="#m6c618bca26" x="28.942188" y="15.553184" style="stroke: #000000; stroke-width: 0.8"/>
      </g>
     </g>
     <g id="text_12">
      <!-- 3 -->
      <g transform="translate(15.579688 19.352402) scale(0.1 -0.1)">
       <defs>
        <path id="DejaVuSans-33" d="M 2597 2516 
Q 3050 2419 3304 2112 
Q 3559 1806 3559 1356 
Q 3559 666 3084 287 
Q 2609 -91 1734 -91 
Q 1441 -91 1130 -33 
Q 819 25 488 141 
L 488 750 
Q 750 597 1062 519 
Q 1375 441 1716 441 
Q 2309 441 2620 675 
Q 2931 909 2931 1356 
Q 2931 1769 2642 2001 
Q 2353 2234 1838 2234 
L 1294 2234 
L 1294 2753 
L 1863 2753 
Q 2328 2753 2575 2939 
Q 2822 3125 2822 3475 
Q 2822 3834 2567 4026 
Q 2313 4219 1838 4219 
Q 1578 4219 1281 4162 
Q 984 4106 628 3988 
L 628 4550 
Q 988 4650 1302 4700 
Q 1616 4750 1894 4750 
Q 2613 4750 3031 4423 
Q 3450 4097 3450 3541 
Q 3450 3153 3228 2886 
Q 3006 2619 2597 2516 
z
" transform="scale(0.015625)"/>
       </defs>
       <use xlink:href="#DejaVuSans-33"/>
      </g>
     </g>
    </g>
   </g>
   <g id="line2d_13">
    <path d="M 45.174915 155.154225 
L 369.82946 155.154225 
L 369.82946 155.154225 
" clip-path="url(#pe8e0077b9d)" style="fill: none; stroke: #1f77b4; stroke-width: 1.5; stroke-linecap: square"/>
   </g>
   <g id="line2d_14">
    <path d="M 45.174915 155.154225 
L 45.809626 155.154225 
L 49.61789 103.143659 
L 51.522022 79.77096 
L 53.108799 62.547979 
L 54.695576 47.84362 
L 55.964997 38.125808 
L 57.234419 30.365265 
L 58.186485 25.878696 
L 59.138551 22.554486 
L 59.773262 20.985192 
L 60.407973 19.929828 
L 61.042683 19.38216 
L 61.360039 19.296 
L 61.677394 19.333155 
L 62.312105 19.771133 
L 62.946816 20.681758 
L 63.581526 22.048322 
L 64.216237 23.851788 
L 65.168303 27.329334 
L 66.120369 31.662234 
L 67.389791 38.616695 
L 68.976568 48.878603 
L 70.8807 62.861698 
L 78.497229 121.013915 
L 80.084006 130.824071 
L 81.670783 139.192743 
L 82.940204 144.755588 
L 84.209626 149.274725 
L 85.161692 151.977591 
L 86.113758 154.103166 
L 87.065824 155.670933 
L 88.01789 156.708259 
L 88.652601 157.121818 
L 89.287311 157.326442 
L 89.922022 157.334839 
L 90.556733 157.16062 
L 91.508799 156.588395 
L 92.460865 155.68837 
L 93.730287 154.069339 
L 95.317064 151.549191 
L 97.855907 146.927883 
L 100.712105 141.793587 
L 102.616237 138.851271 
L 104.203014 136.844349 
L 105.472435 135.567178 
L 106.741857 134.588756 
L 108.011278 133.899306 
L 109.2807 133.476131 
L 110.550121 133.286221 
L 112.136898 133.314953 
L 114.04103 133.624136 
L 117.53194 134.510203 
L 120.705493 135.227471 
L 126.735245 136.431632 
L 128.322022 137.09275 
L 129.591444 137.880784 
L 130.860865 138.975444 
L 132.130287 140.447469 
L 133.399708 142.36446 
L 134.66913 144.7876 
L 135.938551 147.768486 
L 137.207973 151.346144 
L 138.477394 155.544456 
L 140.064171 161.673329 
L 141.650948 168.751646 
L 143.55508 178.385292 
L 145.776568 190.896271 
L 149.584832 213.97985 
L 152.44103 230.801416 
L 154.345163 240.829989 
L 155.93194 248.029012 
L 157.201361 252.831492 
L 158.153427 255.791336 
L 159.105493 258.147784 
L 160.057559 259.859421 
L 160.69227 260.624774 
L 161.326981 261.079349 
L 161.961692 261.216 
L 162.596402 261.029202 
L 163.231113 260.514928 
L 163.865824 259.670814 
L 164.500535 258.496118 
L 165.452601 256.116704 
L 166.404667 253.006008 
L 167.356733 249.182457 
L 168.626154 243.022605 
L 169.895576 235.72822 
L 171.482353 225.180973 
L 172.434419 218.18773 
L 172.751774 155.154225 
L 369.82946 155.154225 
L 369.82946 155.154225 
" clip-path="url(#pe8e0077b9d)" style="fill: none; stroke: #ff7f0e; stroke-width: 1.5; stroke-linecap: square"/>
   </g>
   <g id="line2d_15">
    <path d="M 45.174915 155.154225 
L 45.809626 155.154225 
L 49.61789 103.143659 
L 51.522022 79.77096 
L 53.108799 62.547979 
L 54.695576 47.84362 
L 55.964997 38.125808 
L 57.234419 30.365265 
L 58.186485 25.878696 
L 59.138551 22.554486 
L 59.773262 20.985192 
L 60.407973 19.929828 
L 61.042683 19.38216 
L 61.360039 19.296 
L 61.677394 19.333155 
L 62.312105 19.771133 
L 62.946816 20.681758 
L 63.581526 22.048322 
L 64.216237 23.851788 
L 65.168303 27.329334 
L 66.120369 31.662234 
L 67.389791 38.616695 
L 68.976568 48.878603 
L 70.8807 62.861698 
L 78.497229 121.013915 
L 80.084006 130.824071 
L 81.670783 139.192743 
L 82.940204 144.755588 
L 84.209626 149.274725 
L 85.161692 151.977591 
L 86.113758 154.103166 
L 87.065824 155.670933 
L 88.01789 156.708259 
L 88.652601 157.121818 
L 89.287311 157.326442 
L 89.922022 157.334839 
L 90.556733 157.16062 
L 91.508799 156.588395 
L 92.460865 155.68837 
L 93.730287 154.069339 
L 95.317064 151.549191 
L 97.855907 146.927883 
L 100.712105 141.793587 
L 102.616237 138.851271 
L 104.203014 136.844349 
L 105.472435 135.567178 
L 106.741857 134.588756 
L 108.011278 133.899306 
L 109.2807 133.476131 
L 110.550121 133.286221 
L 112.136898 133.314953 
L 114.04103 133.624136 
L 117.53194 134.510203 
L 120.705493 135.227471 
L 124.196402 135.823112 
L 124.513758 155.154225 
L 128.322022 103.143659 
L 130.226154 79.77096 
L 131.812931 62.547979 
L 133.399708 47.84362 
L 134.66913 38.125808 
L 135.938551 30.365265 
L 136.890617 25.878696 
L 137.842683 22.554486 
L 138.477394 20.985192 
L 139.112105 19.929828 
L 139.746816 19.38216 
L 140.064171 19.296 
L 140.381526 19.333155 
L 141.016237 19.771133 
L 141.650948 20.681758 
L 142.285659 22.048322 
L 142.920369 23.851788 
L 143.872435 27.329334 
L 144.824502 31.662234 
L 146.093923 38.616695 
L 147.6807 48.878603 
L 149.584832 62.861698 
L 157.201361 121.013915 
L 158.788138 130.824071 
L 160.374915 139.192743 
L 161.644336 144.755588 
L 162.913758 149.274725 
L 163.865824 151.977591 
L 164.81789 154.103166 
L 165.769956 155.670933 
L 166.722022 156.708259 
L 167.356733 157.121818 
L 167.991444 157.326442 
L 168.626154 157.334839 
L 169.260865 157.16062 
L 170.212931 156.588395 
L 171.164997 155.68837 
L 172.434419 154.069339 
L 174.021196 151.549191 
L 176.560039 146.927883 
L 179.416237 141.793587 
L 181.320369 138.851271 
L 182.907146 136.844349 
L 184.176568 135.567178 
L 185.445989 134.588756 
L 186.715411 133.899306 
L 187.984832 133.476131 
L 189.254254 133.286221 
L 190.84103 133.314953 
L 192.745163 133.624136 
L 196.236072 134.510203 
L 199.409626 135.227471 
L 205.439378 136.431632 
L 207.026154 137.09275 
L 208.295576 137.880784 
L 209.564997 138.975444 
L 210.834419 140.447469 
L 212.10384 142.36446 
L 213.373262 144.7876 
L 214.642683 147.768486 
L 215.912105 151.346144 
L 217.181526 155.544456 
L 218.768303 161.673329 
L 220.35508 168.751646 
L 222.259212 178.385292 
L 224.4807 190.896271 
L 228.288964 213.97985 
L 231.145163 230.801416 
L 233.049295 240.829989 
L 234.636072 248.029012 
L 235.905493 252.831492 
L 236.857559 255.791336 
L 237.809626 258.147784 
L 238.761692 259.859421 
L 239.396402 260.624774 
L 240.031113 261.079349 
L 240.665824 261.216 
L 241.300535 261.029202 
L 241.935245 260.514928 
L 242.569956 259.670814 
L 243.204667 258.496118 
L 244.156733 256.116704 
L 245.108799 253.006008 
L 246.060865 249.182457 
L 247.330287 243.022605 
L 248.599708 235.72822 
L 250.186485 225.180973 
L 251.138551 218.18773 
L 251.455907 155.154225 
L 369.82946 155.154225 
L 369.82946 155.154225 
" clip-path="url(#pe8e0077b9d)" style="fill: none; stroke: #2ca02c; stroke-width: 1.5; stroke-linecap: square"/>
   </g>
   <g id="patch_3">
    <path d="M 28.942188 273.312 
L 28.942188 7.2 
" style="fill: none; stroke: #000000; stroke-width: 0.8; stroke-linejoin: miter; stroke-linecap: square"/>
   </g>
   <g id="patch_4">
    <path d="M 386.062188 273.312 
L 386.062188 7.2 
" style="fill: none; stroke: #000000; stroke-width: 0.8; stroke-linejoin: miter; stroke-linecap: square"/>
   </g>
   <g id="patch_5">
    <path d="M 28.942188 273.312 
L 386.062187 273.312 
" style="fill: none; stroke: #000000; stroke-width: 0.8; stroke-linejoin: miter; stroke-linecap: square"/>
   </g>
   <g id="patch_6">
    <path d="M 28.942188 7.2 
L 386.062187 7.2 
" style="fill: none; stroke: #000000; stroke-width: 0.8; stroke-linejoin: miter; stroke-linecap: square"/>
   </g>
  </g>
 </g>
 <defs>
  <clipPath id="pe8e0077b9d">
   <rect x="28.942188" y="7.2" width="357.12" height="266.112"/>
  </clipPath>
 </defs>
</svg>
