<?xml version="1.0" encoding="utf-8" standalone="no"?>
<!DOCTYPE svg PUBLIC "-//W3C//DTD SVG 1.1//EN"
  "http://www.w3.org/Graphics/SVG/1.1/DTD/svg11.dtd">
<!-- Created with matplotlib (https://matplotlib.org/) -->
<svg height="139.798125pt" version="1.1" viewBox="0 0 877.4875 139.798125" width="877.4875pt" xmlns="http://www.w3.org/2000/svg" xmlns:xlink="http://www.w3.org/1999/xlink">
 <metadata>
  <rdf:RDF xmlns:cc="http://creativecommons.org/ns#" xmlns:dc="http://purl.org/dc/elements/1.1/" xmlns:rdf="http://www.w3.org/1999/02/22-rdf-syntax-ns#">
   <cc:Work>
    <dc:type rdf:resource="http://purl.org/dc/dcmitype/StillImage"/>
    <dc:date>2021-06-23T19:53:42.412398</dc:date>
    <dc:format>image/svg+xml</dc:format>
    <dc:creator>
     <cc:Agent>
      <dc:title>Matplotlib v3.3.4, https://matplotlib.org/</dc:title>
     </cc:Agent>
    </dc:creator>
   </cc:Work>
  </rdf:RDF>
 </metadata>
 <defs>
  <style type="text/css">*{stroke-linecap:butt;stroke-linejoin:round;}</style>
 </defs>
 <g id="figure_1">
  <g id="patch_1">
   <path d="M 0 139.798125 
L 877.4875 139.798125 
L 877.4875 0 
L 0 0 
z
" style="fill:none;"/>
  </g>
  <g id="axes_1">
   <g id="patch_2">
    <path d="M 33.2875 115.92 
L 215.244022 115.92 
L 215.244022 7.2 
L 33.2875 7.2 
z
" style="fill:#ffffff;"/>
   </g>
   <g id="matplotlib.axis_1">
    <g id="xtick_1">
     <g id="line2d_1">
      <defs>
       <path d="M 0 0 
L 0 3.5 
" id="m91f7f18c45" style="stroke:#000000;stroke-width:0.8;"/>
      </defs>
      <g>
       <use style="stroke:#000000;stroke-width:0.8;" x="62.235128" xlink:href="#m91f7f18c45" y="115.92"/>
      </g>
     </g>
     <g id="text_1">
      <!-- 2 -->
      <g transform="translate(59.053878 130.518437)scale(0.1 -0.1)">
       <defs>
        <path d="M 19.1875 8.296875 
L 53.609375 8.296875 
L 53.609375 0 
L 7.328125 0 
L 7.328125 8.296875 
Q 12.9375 14.109375 22.625 23.890625 
Q 32.328125 33.6875 34.8125 36.53125 
Q 39.546875 41.84375 41.421875 45.53125 
Q 43.3125 49.21875 43.3125 52.78125 
Q 43.3125 58.59375 39.234375 62.25 
Q 35.15625 65.921875 28.609375 65.921875 
Q 23.96875 65.921875 18.8125 64.3125 
Q 13.671875 62.703125 7.8125 59.421875 
L 7.8125 69.390625 
Q 13.765625 71.78125 18.9375 73 
Q 24.125 74.21875 28.421875 74.21875 
Q 39.75 74.21875 46.484375 68.546875 
Q 53.21875 62.890625 53.21875 53.421875 
Q 53.21875 48.921875 51.53125 44.890625 
Q 49.859375 40.875 45.40625 35.40625 
Q 44.1875 33.984375 37.640625 27.21875 
Q 31.109375 20.453125 19.1875 8.296875 
z
" id="DejaVuSans-50"/>
       </defs>
       <use xlink:href="#DejaVuSans-50"/>
      </g>
     </g>
    </g>
    <g id="xtick_2">
     <g id="line2d_2">
      <g>
       <use style="stroke:#000000;stroke-width:0.8;" x="103.588883" xlink:href="#m91f7f18c45" y="115.92"/>
      </g>
     </g>
     <g id="text_2">
      <!-- 4 -->
      <g transform="translate(100.407633 130.518437)scale(0.1 -0.1)">
       <defs>
        <path d="M 37.796875 64.3125 
L 12.890625 25.390625 
L 37.796875 25.390625 
z
M 35.203125 72.90625 
L 47.609375 72.90625 
L 47.609375 25.390625 
L 58.015625 25.390625 
L 58.015625 17.1875 
L 47.609375 17.1875 
L 47.609375 0 
L 37.796875 0 
L 37.796875 17.1875 
L 4.890625 17.1875 
L 4.890625 26.703125 
z
" id="DejaVuSans-52"/>
       </defs>
       <use xlink:href="#DejaVuSans-52"/>
      </g>
     </g>
    </g>
    <g id="xtick_3">
     <g id="line2d_3">
      <g>
       <use style="stroke:#000000;stroke-width:0.8;" x="144.942638" xlink:href="#m91f7f18c45" y="115.92"/>
      </g>
     </g>
     <g id="text_3">
      <!-- 6 -->
      <g transform="translate(141.761388 130.518437)scale(0.1 -0.1)">
       <defs>
        <path d="M 33.015625 40.375 
Q 26.375 40.375 22.484375 35.828125 
Q 18.609375 31.296875 18.609375 23.390625 
Q 18.609375 15.53125 22.484375 10.953125 
Q 26.375 6.390625 33.015625 6.390625 
Q 39.65625 6.390625 43.53125 10.953125 
Q 47.40625 15.53125 47.40625 23.390625 
Q 47.40625 31.296875 43.53125 35.828125 
Q 39.65625 40.375 33.015625 40.375 
z
M 52.59375 71.296875 
L 52.59375 62.3125 
Q 48.875 64.0625 45.09375 64.984375 
Q 41.3125 65.921875 37.59375 65.921875 
Q 27.828125 65.921875 22.671875 59.328125 
Q 17.53125 52.734375 16.796875 39.40625 
Q 19.671875 43.65625 24.015625 45.921875 
Q 28.375 48.1875 33.59375 48.1875 
Q 44.578125 48.1875 50.953125 41.515625 
Q 57.328125 34.859375 57.328125 23.390625 
Q 57.328125 12.15625 50.6875 5.359375 
Q 44.046875 -1.421875 33.015625 -1.421875 
Q 20.359375 -1.421875 13.671875 8.265625 
Q 6.984375 17.96875 6.984375 36.375 
Q 6.984375 53.65625 15.1875 63.9375 
Q 23.390625 74.21875 37.203125 74.21875 
Q 40.921875 74.21875 44.703125 73.484375 
Q 48.484375 72.75 52.59375 71.296875 
z
" id="DejaVuSans-54"/>
       </defs>
       <use xlink:href="#DejaVuSans-54"/>
      </g>
     </g>
    </g>
    <g id="xtick_4">
     <g id="line2d_4">
      <g>
       <use style="stroke:#000000;stroke-width:0.8;" x="186.296393" xlink:href="#m91f7f18c45" y="115.92"/>
      </g>
     </g>
     <g id="text_4">
      <!-- 8 -->
      <g transform="translate(183.115143 130.518437)scale(0.1 -0.1)">
       <defs>
        <path d="M 31.78125 34.625 
Q 24.75 34.625 20.71875 30.859375 
Q 16.703125 27.09375 16.703125 20.515625 
Q 16.703125 13.921875 20.71875 10.15625 
Q 24.75 6.390625 31.78125 6.390625 
Q 38.8125 6.390625 42.859375 10.171875 
Q 46.921875 13.96875 46.921875 20.515625 
Q 46.921875 27.09375 42.890625 30.859375 
Q 38.875 34.625 31.78125 34.625 
z
M 21.921875 38.8125 
Q 15.578125 40.375 12.03125 44.71875 
Q 8.5 49.078125 8.5 55.328125 
Q 8.5 64.0625 14.71875 69.140625 
Q 20.953125 74.21875 31.78125 74.21875 
Q 42.671875 74.21875 48.875 69.140625 
Q 55.078125 64.0625 55.078125 55.328125 
Q 55.078125 49.078125 51.53125 44.71875 
Q 48 40.375 41.703125 38.8125 
Q 48.828125 37.15625 52.796875 32.3125 
Q 56.78125 27.484375 56.78125 20.515625 
Q 56.78125 9.90625 50.3125 4.234375 
Q 43.84375 -1.421875 31.78125 -1.421875 
Q 19.734375 -1.421875 13.25 4.234375 
Q 6.78125 9.90625 6.78125 20.515625 
Q 6.78125 27.484375 10.78125 32.3125 
Q 14.796875 37.15625 21.921875 38.8125 
z
M 18.3125 54.390625 
Q 18.3125 48.734375 21.84375 45.5625 
Q 25.390625 42.390625 31.78125 42.390625 
Q 38.140625 42.390625 41.71875 45.5625 
Q 45.3125 48.734375 45.3125 54.390625 
Q 45.3125 60.0625 41.71875 63.234375 
Q 38.140625 66.40625 31.78125 66.40625 
Q 25.390625 66.40625 21.84375 63.234375 
Q 18.3125 60.0625 18.3125 54.390625 
z
" id="DejaVuSans-56"/>
       </defs>
       <use xlink:href="#DejaVuSans-56"/>
      </g>
     </g>
    </g>
   </g>
   <g id="matplotlib.axis_2">
    <g id="ytick_1">
     <g id="line2d_5">
      <defs>
       <path d="M 0 0 
L -3.5 0 
" id="m761fed334f" style="stroke:#000000;stroke-width:0.8;"/>
      </defs>
      <g>
       <use style="stroke:#000000;stroke-width:0.8;" x="33.2875" xlink:href="#m761fed334f" y="110.978182"/>
      </g>
     </g>
     <g id="text_5">
      <!-- 200 -->
      <g transform="translate(7.2 114.777401)scale(0.1 -0.1)">
       <defs>
        <path d="M 31.78125 66.40625 
Q 24.171875 66.40625 20.328125 58.90625 
Q 16.5 51.421875 16.5 36.375 
Q 16.5 21.390625 20.328125 13.890625 
Q 24.171875 6.390625 31.78125 6.390625 
Q 39.453125 6.390625 43.28125 13.890625 
Q 47.125 21.390625 47.125 36.375 
Q 47.125 51.421875 43.28125 58.90625 
Q 39.453125 66.40625 31.78125 66.40625 
z
M 31.78125 74.21875 
Q 44.046875 74.21875 50.515625 64.515625 
Q 56.984375 54.828125 56.984375 36.375 
Q 56.984375 17.96875 50.515625 8.265625 
Q 44.046875 -1.421875 31.78125 -1.421875 
Q 19.53125 -1.421875 13.0625 8.265625 
Q 6.59375 17.96875 6.59375 36.375 
Q 6.59375 54.828125 13.0625 64.515625 
Q 19.53125 74.21875 31.78125 74.21875 
z
" id="DejaVuSans-48"/>
       </defs>
       <use xlink:href="#DejaVuSans-50"/>
       <use x="63.623047" xlink:href="#DejaVuSans-48"/>
       <use x="127.246094" xlink:href="#DejaVuSans-48"/>
      </g>
     </g>
    </g>
    <g id="ytick_2">
     <g id="line2d_6">
      <g>
       <use style="stroke:#000000;stroke-width:0.8;" x="33.2875" xlink:href="#m761fed334f" y="86.269091"/>
      </g>
     </g>
     <g id="text_6">
      <!-- 300 -->
      <g transform="translate(7.2 90.06831)scale(0.1 -0.1)">
       <defs>
        <path d="M 40.578125 39.3125 
Q 47.65625 37.796875 51.625 33 
Q 55.609375 28.21875 55.609375 21.1875 
Q 55.609375 10.40625 48.1875 4.484375 
Q 40.765625 -1.421875 27.09375 -1.421875 
Q 22.515625 -1.421875 17.65625 -0.515625 
Q 12.796875 0.390625 7.625 2.203125 
L 7.625 11.71875 
Q 11.71875 9.328125 16.59375 8.109375 
Q 21.484375 6.890625 26.8125 6.890625 
Q 36.078125 6.890625 40.9375 10.546875 
Q 45.796875 14.203125 45.796875 21.1875 
Q 45.796875 27.640625 41.28125 31.265625 
Q 36.765625 34.90625 28.71875 34.90625 
L 20.21875 34.90625 
L 20.21875 43.015625 
L 29.109375 43.015625 
Q 36.375 43.015625 40.234375 45.921875 
Q 44.09375 48.828125 44.09375 54.296875 
Q 44.09375 59.90625 40.109375 62.90625 
Q 36.140625 65.921875 28.71875 65.921875 
Q 24.65625 65.921875 20.015625 65.03125 
Q 15.375 64.15625 9.8125 62.3125 
L 9.8125 71.09375 
Q 15.4375 72.65625 20.34375 73.4375 
Q 25.25 74.21875 29.59375 74.21875 
Q 40.828125 74.21875 47.359375 69.109375 
Q 53.90625 64.015625 53.90625 55.328125 
Q 53.90625 49.265625 50.4375 45.09375 
Q 46.96875 40.921875 40.578125 39.3125 
z
" id="DejaVuSans-51"/>
       </defs>
       <use xlink:href="#DejaVuSans-51"/>
       <use x="63.623047" xlink:href="#DejaVuSans-48"/>
       <use x="127.246094" xlink:href="#DejaVuSans-48"/>
      </g>
     </g>
    </g>
    <g id="ytick_3">
     <g id="line2d_7">
      <g>
       <use style="stroke:#000000;stroke-width:0.8;" x="33.2875" xlink:href="#m761fed334f" y="61.56"/>
      </g>
     </g>
     <g id="text_7">
      <!-- 400 -->
      <g transform="translate(7.2 65.359219)scale(0.1 -0.1)">
       <use xlink:href="#DejaVuSans-52"/>
       <use x="63.623047" xlink:href="#DejaVuSans-48"/>
       <use x="127.246094" xlink:href="#DejaVuSans-48"/>
      </g>
     </g>
    </g>
    <g id="ytick_4">
     <g id="line2d_8">
      <g>
       <use style="stroke:#000000;stroke-width:0.8;" x="33.2875" xlink:href="#m761fed334f" y="36.850909"/>
      </g>
     </g>
     <g id="text_8">
      <!-- 500 -->
      <g transform="translate(7.2 40.650128)scale(0.1 -0.1)">
       <defs>
        <path d="M 10.796875 72.90625 
L 49.515625 72.90625 
L 49.515625 64.59375 
L 19.828125 64.59375 
L 19.828125 46.734375 
Q 21.96875 47.46875 24.109375 47.828125 
Q 26.265625 48.1875 28.421875 48.1875 
Q 40.625 48.1875 47.75 41.5 
Q 54.890625 34.8125 54.890625 23.390625 
Q 54.890625 11.625 47.5625 5.09375 
Q 40.234375 -1.421875 26.90625 -1.421875 
Q 22.3125 -1.421875 17.546875 -0.640625 
Q 12.796875 0.140625 7.71875 1.703125 
L 7.71875 11.625 
Q 12.109375 9.234375 16.796875 8.0625 
Q 21.484375 6.890625 26.703125 6.890625 
Q 35.15625 6.890625 40.078125 11.328125 
Q 45.015625 15.765625 45.015625 23.390625 
Q 45.015625 31 40.078125 35.4375 
Q 35.15625 39.890625 26.703125 39.890625 
Q 22.75 39.890625 18.8125 39.015625 
Q 14.890625 38.140625 10.796875 36.28125 
z
" id="DejaVuSans-53"/>
       </defs>
       <use xlink:href="#DejaVuSans-53"/>
       <use x="63.623047" xlink:href="#DejaVuSans-48"/>
       <use x="127.246094" xlink:href="#DejaVuSans-48"/>
      </g>
     </g>
    </g>
    <g id="ytick_5">
     <g id="line2d_9">
      <g>
       <use style="stroke:#000000;stroke-width:0.8;" x="33.2875" xlink:href="#m761fed334f" y="12.141818"/>
      </g>
     </g>
     <g id="text_9">
      <!-- 600 -->
      <g transform="translate(7.2 15.941037)scale(0.1 -0.1)">
       <use xlink:href="#DejaVuSans-54"/>
       <use x="63.623047" xlink:href="#DejaVuSans-48"/>
       <use x="127.246094" xlink:href="#DejaVuSans-48"/>
      </g>
     </g>
    </g>
   </g>
   <g id="line2d_10">
    <path clip-path="url(#p0917537b1f)" d="M 41.558251 12.141818 
L 43.22911 13.140165 
L 44.899969 14.138512 
L 46.570827 15.13686 
L 48.241686 16.135207 
L 49.912545 17.133554 
L 51.583404 18.131901 
L 53.254262 19.130248 
L 54.925121 20.128595 
L 56.59598 21.126942 
L 58.266839 22.125289 
L 59.937698 23.123636 
L 61.608556 24.121983 
L 63.279415 25.120331 
L 64.950274 26.118678 
L 66.621133 27.117025 
L 68.291992 28.115372 
L 69.96285 29.113719 
L 71.633709 30.112066 
L 73.304568 31.110413 
L 74.975427 32.10876 
L 76.646285 33.107107 
L 78.317144 34.105455 
L 79.988003 35.103802 
L 81.658862 36.102149 
L 83.329721 37.100496 
L 85.000579 38.098843 
L 86.671438 39.09719 
L 88.342297 40.095537 
L 90.013156 41.093884 
L 91.684015 42.092231 
L 93.354873 43.090579 
L 95.025732 44.088926 
L 96.696591 45.087273 
L 98.36745 46.08562 
L 100.038308 47.083967 
L 101.709167 48.082314 
L 103.380026 49.080661 
L 105.050885 50.079008 
L 106.721744 51.077355 
L 108.392602 52.075702 
L 110.063461 53.07405 
L 111.73432 54.072397 
L 113.405179 55.070744 
L 115.076038 56.069091 
L 116.746896 57.067438 
L 118.417755 58.065785 
L 120.088614 59.064132 
L 121.759473 60.062479 
L 123.430331 61.060826 
L 125.10119 62.059174 
L 126.772049 63.057521 
L 128.442908 64.055868 
L 130.113767 65.054215 
L 131.784625 66.052562 
L 133.455484 67.050909 
L 135.126343 68.049256 
L 136.797202 69.047603 
L 138.468061 70.04595 
L 140.138919 71.044298 
L 141.809778 72.042645 
L 143.480637 73.040992 
L 145.151496 74.039339 
L 146.822354 75.037686 
L 148.493213 76.036033 
L 150.164072 77.03438 
L 151.834931 78.032727 
L 153.50579 79.031074 
L 155.176648 80.029421 
L 156.847507 81.027769 
L 158.518366 82.026116 
L 160.189225 83.024463 
L 161.860084 84.02281 
L 163.530942 85.021157 
L 165.201801 86.019504 
L 166.87266 87.017851 
L 168.543519 88.016198 
L 170.214377 89.014545 
L 171.885236 90.012893 
L 173.556095 91.01124 
L 175.226954 92.009587 
L 176.897813 93.007934 
L 178.568671 94.006281 
L 180.23953 95.004628 
L 181.910389 96.002975 
L 183.581248 97.001322 
L 185.252107 97.999669 
L 186.922965 98.998017 
L 188.593824 99.996364 
L 190.264683 100.994711 
L 191.935542 101.993058 
L 193.6064 102.991405 
L 195.277259 103.989752 
L 196.948118 104.988099 
L 198.618977 105.986446 
L 200.289836 106.984793 
L 201.960694 107.98314 
L 203.631553 108.981488 
L 205.302412 109.979835 
L 206.973271 110.978182 
" style="fill:none;stroke:#1f77b4;stroke-linecap:square;stroke-width:1.5;"/>
   </g>
   <g id="patch_3">
    <path d="M 33.2875 115.92 
L 33.2875 7.2 
" style="fill:none;stroke:#000000;stroke-linecap:square;stroke-linejoin:miter;stroke-width:0.8;"/>
   </g>
   <g id="patch_4">
    <path d="M 215.244022 115.92 
L 215.244022 7.2 
" style="fill:none;stroke:#000000;stroke-linecap:square;stroke-linejoin:miter;stroke-width:0.8;"/>
   </g>
   <g id="patch_5">
    <path d="M 33.2875 115.92 
L 215.244022 115.92 
" style="fill:none;stroke:#000000;stroke-linecap:square;stroke-linejoin:miter;stroke-width:0.8;"/>
   </g>
   <g id="patch_6">
    <path d="M 33.2875 7.2 
L 215.244022 7.2 
" style="fill:none;stroke:#000000;stroke-linecap:square;stroke-linejoin:miter;stroke-width:0.8;"/>
   </g>
  </g>
  <g id="axes_2">
   <g id="patch_7">
    <path d="M 251.635326 115.92 
L 433.591848 115.92 
L 433.591848 7.2 
L 251.635326 7.2 
z
" style="fill:#ffffff;"/>
   </g>
   <g id="matplotlib.axis_3">
    <g id="xtick_5">
     <g id="line2d_11">
      <g>
       <use style="stroke:#000000;stroke-width:0.8;" x="280.582955" xlink:href="#m91f7f18c45" y="115.92"/>
      </g>
     </g>
     <g id="text_10">
      <!-- 2 -->
      <g transform="translate(277.401705 130.518437)scale(0.1 -0.1)">
       <use xlink:href="#DejaVuSans-50"/>
      </g>
     </g>
    </g>
    <g id="xtick_6">
     <g id="line2d_12">
      <g>
       <use style="stroke:#000000;stroke-width:0.8;" x="321.936709" xlink:href="#m91f7f18c45" y="115.92"/>
      </g>
     </g>
     <g id="text_11">
      <!-- 4 -->
      <g transform="translate(318.755459 130.518437)scale(0.1 -0.1)">
       <use xlink:href="#DejaVuSans-52"/>
      </g>
     </g>
    </g>
    <g id="xtick_7">
     <g id="line2d_13">
      <g>
       <use style="stroke:#000000;stroke-width:0.8;" x="363.290464" xlink:href="#m91f7f18c45" y="115.92"/>
      </g>
     </g>
     <g id="text_12">
      <!-- 6 -->
      <g transform="translate(360.109214 130.518437)scale(0.1 -0.1)">
       <use xlink:href="#DejaVuSans-54"/>
      </g>
     </g>
    </g>
    <g id="xtick_8">
     <g id="line2d_14">
      <g>
       <use style="stroke:#000000;stroke-width:0.8;" x="404.644219" xlink:href="#m91f7f18c45" y="115.92"/>
      </g>
     </g>
     <g id="text_13">
      <!-- 8 -->
      <g transform="translate(401.462969 130.518437)scale(0.1 -0.1)">
       <use xlink:href="#DejaVuSans-56"/>
      </g>
     </g>
    </g>
   </g>
   <g id="matplotlib.axis_4">
    <g id="ytick_6">
     <g id="line2d_15">
      <g>
       <use style="stroke:#000000;stroke-width:0.8;" x="251.635326" xlink:href="#m761fed334f" y="110.978182"/>
      </g>
     </g>
     <g id="text_14">
      <!-- 300 -->
      <g transform="translate(225.547826 114.777401)scale(0.1 -0.1)">
       <use xlink:href="#DejaVuSans-51"/>
       <use x="63.623047" xlink:href="#DejaVuSans-48"/>
       <use x="127.246094" xlink:href="#DejaVuSans-48"/>
      </g>
     </g>
    </g>
    <g id="ytick_7">
     <g id="line2d_16">
      <g>
       <use style="stroke:#000000;stroke-width:0.8;" x="251.635326" xlink:href="#m761fed334f" y="78.032727"/>
      </g>
     </g>
     <g id="text_15">
      <!-- 400 -->
      <g transform="translate(225.547826 81.831946)scale(0.1 -0.1)">
       <use xlink:href="#DejaVuSans-52"/>
       <use x="63.623047" xlink:href="#DejaVuSans-48"/>
       <use x="127.246094" xlink:href="#DejaVuSans-48"/>
      </g>
     </g>
    </g>
    <g id="ytick_8">
     <g id="line2d_17">
      <g>
       <use style="stroke:#000000;stroke-width:0.8;" x="251.635326" xlink:href="#m761fed334f" y="45.087273"/>
      </g>
     </g>
     <g id="text_16">
      <!-- 500 -->
      <g transform="translate(225.547826 48.886491)scale(0.1 -0.1)">
       <use xlink:href="#DejaVuSans-53"/>
       <use x="63.623047" xlink:href="#DejaVuSans-48"/>
       <use x="127.246094" xlink:href="#DejaVuSans-48"/>
      </g>
     </g>
    </g>
    <g id="ytick_9">
     <g id="line2d_18">
      <g>
       <use style="stroke:#000000;stroke-width:0.8;" x="251.635326" xlink:href="#m761fed334f" y="12.141818"/>
      </g>
     </g>
     <g id="text_17">
      <!-- 600 -->
      <g transform="translate(225.547826 15.941037)scale(0.1 -0.1)">
       <use xlink:href="#DejaVuSans-54"/>
       <use x="63.623047" xlink:href="#DejaVuSans-48"/>
       <use x="127.246094" xlink:href="#DejaVuSans-48"/>
      </g>
     </g>
    </g>
   </g>
   <g id="line2d_19">
    <path clip-path="url(#p5c7966edea)" d="M 259.906077 12.141818 
L 261.576936 13.472948 
L 263.247795 14.804077 
L 264.918653 16.135207 
L 266.589512 17.466336 
L 268.260371 18.797466 
L 269.93123 20.128595 
L 271.602089 21.459725 
L 273.272947 22.790854 
L 274.943806 24.121983 
L 276.614665 25.453113 
L 278.285524 26.784242 
L 279.956383 28.115372 
L 281.627241 29.446501 
L 283.2981 30.777631 
L 284.968959 32.10876 
L 286.639818 33.43989 
L 288.310676 34.771019 
L 289.981535 36.102149 
L 291.652394 37.433278 
L 293.323253 38.764408 
L 294.994112 40.095537 
L 296.66497 41.426667 
L 298.335829 42.757796 
L 300.006688 44.088926 
L 301.677547 45.420055 
L 303.348405 46.751185 
L 305.019264 48.082314 
L 306.690123 49.413444 
L 308.360982 50.744573 
L 310.031841 52.075702 
L 311.702699 53.406832 
L 313.373558 54.737961 
L 315.044417 56.069091 
L 316.715276 57.40022 
L 318.386135 58.73135 
L 320.056993 60.062479 
L 321.727852 61.393609 
L 323.398711 62.724738 
L 325.06957 64.055868 
L 326.740428 65.386997 
L 328.411287 66.718127 
L 330.082146 68.049256 
L 331.753005 69.380386 
L 333.423864 70.711515 
L 335.094722 72.042645 
L 336.765581 73.373774 
L 338.43644 74.704904 
L 340.107299 76.036033 
L 341.778158 77.367163 
L 343.449016 78.698292 
L 345.119875 80.029421 
L 346.790734 81.360551 
L 348.461593 82.69168 
L 350.132451 84.02281 
L 351.80331 85.353939 
L 353.474169 86.685069 
L 355.145028 88.016198 
L 356.815887 89.347328 
L 358.486745 90.678457 
L 360.157604 92.009587 
L 361.828463 93.340716 
L 363.499322 94.671846 
L 365.170181 96.002975 
L 366.841039 97.334105 
L 368.511898 98.665234 
L 370.182757 99.996364 
L 371.853616 101.327493 
L 373.524474 102.658623 
L 375.195333 103.989752 
L 376.866192 105.320882 
L 378.537051 106.652011 
L 380.20791 107.98314 
L 381.878768 109.31427 
L 383.549627 110.645399 
L 385.220486 110.978182 
L 386.891345 110.978182 
L 388.562204 110.978182 
L 390.233062 110.978182 
L 391.903921 110.978182 
L 393.57478 110.978182 
L 395.245639 110.978182 
L 396.916497 110.978182 
L 398.587356 110.978182 
L 400.258215 110.978182 
L 401.929074 110.978182 
L 403.599933 110.978182 
L 405.270791 110.978182 
L 406.94165 110.978182 
L 408.612509 110.978182 
L 410.283368 110.978182 
L 411.954227 110.978182 
L 413.625085 110.978182 
L 415.295944 110.978182 
L 416.966803 110.978182 
L 418.637662 110.978182 
L 420.30852 110.978182 
L 421.979379 110.978182 
L 423.650238 110.978182 
L 425.321097 110.978182 
" style="fill:none;stroke:#1f77b4;stroke-linecap:square;stroke-width:1.5;"/>
   </g>
   <g id="patch_8">
    <path d="M 251.635326 115.92 
L 251.635326 7.2 
" style="fill:none;stroke:#000000;stroke-linecap:square;stroke-linejoin:miter;stroke-width:0.8;"/>
   </g>
   <g id="patch_9">
    <path d="M 433.591848 115.92 
L 433.591848 7.2 
" style="fill:none;stroke:#000000;stroke-linecap:square;stroke-linejoin:miter;stroke-width:0.8;"/>
   </g>
   <g id="patch_10">
    <path d="M 251.635326 115.92 
L 433.591848 115.92 
" style="fill:none;stroke:#000000;stroke-linecap:square;stroke-linejoin:miter;stroke-width:0.8;"/>
   </g>
   <g id="patch_11">
    <path d="M 251.635326 7.2 
L 433.591848 7.2 
" style="fill:none;stroke:#000000;stroke-linecap:square;stroke-linejoin:miter;stroke-width:0.8;"/>
   </g>
  </g>
  <g id="axes_3">
   <g id="patch_12">
    <path d="M 469.983152 115.92 
L 651.939674 115.92 
L 651.939674 7.2 
L 469.983152 7.2 
z
" style="fill:#ffffff;"/>
   </g>
   <g id="matplotlib.axis_5">
    <g id="xtick_9">
     <g id="line2d_20">
      <g>
       <use style="stroke:#000000;stroke-width:0.8;" x="498.930781" xlink:href="#m91f7f18c45" y="115.92"/>
      </g>
     </g>
     <g id="text_18">
      <!-- 2 -->
      <g transform="translate(495.749531 130.518437)scale(0.1 -0.1)">
       <use xlink:href="#DejaVuSans-50"/>
      </g>
     </g>
    </g>
    <g id="xtick_10">
     <g id="line2d_21">
      <g>
       <use style="stroke:#000000;stroke-width:0.8;" x="540.284536" xlink:href="#m91f7f18c45" y="115.92"/>
      </g>
     </g>
     <g id="text_19">
      <!-- 4 -->
      <g transform="translate(537.103286 130.518437)scale(0.1 -0.1)">
       <use xlink:href="#DejaVuSans-52"/>
      </g>
     </g>
    </g>
    <g id="xtick_11">
     <g id="line2d_22">
      <g>
       <use style="stroke:#000000;stroke-width:0.8;" x="581.638291" xlink:href="#m91f7f18c45" y="115.92"/>
      </g>
     </g>
     <g id="text_20">
      <!-- 6 -->
      <g transform="translate(578.457041 130.518437)scale(0.1 -0.1)">
       <use xlink:href="#DejaVuSans-54"/>
      </g>
     </g>
    </g>
    <g id="xtick_12">
     <g id="line2d_23">
      <g>
       <use style="stroke:#000000;stroke-width:0.8;" x="622.992045" xlink:href="#m91f7f18c45" y="115.92"/>
      </g>
     </g>
     <g id="text_21">
      <!-- 8 -->
      <g transform="translate(619.810795 130.518437)scale(0.1 -0.1)">
       <use xlink:href="#DejaVuSans-56"/>
      </g>
     </g>
    </g>
   </g>
   <g id="matplotlib.axis_6">
    <g id="ytick_10">
     <g id="line2d_24">
      <g>
       <use style="stroke:#000000;stroke-width:0.8;" x="469.983152" xlink:href="#m761fed334f" y="110.978182"/>
      </g>
     </g>
     <g id="text_22">
      <!-- 200 -->
      <g transform="translate(443.895652 114.777401)scale(0.1 -0.1)">
       <use xlink:href="#DejaVuSans-50"/>
       <use x="63.623047" xlink:href="#DejaVuSans-48"/>
       <use x="127.246094" xlink:href="#DejaVuSans-48"/>
      </g>
     </g>
    </g>
    <g id="ytick_11">
     <g id="line2d_25">
      <g>
       <use style="stroke:#000000;stroke-width:0.8;" x="469.983152" xlink:href="#m761fed334f" y="78.032727"/>
      </g>
     </g>
     <g id="text_23">
      <!-- 300 -->
      <g transform="translate(443.895652 81.831946)scale(0.1 -0.1)">
       <use xlink:href="#DejaVuSans-51"/>
       <use x="63.623047" xlink:href="#DejaVuSans-48"/>
       <use x="127.246094" xlink:href="#DejaVuSans-48"/>
      </g>
     </g>
    </g>
    <g id="ytick_12">
     <g id="line2d_26">
      <g>
       <use style="stroke:#000000;stroke-width:0.8;" x="469.983152" xlink:href="#m761fed334f" y="45.087273"/>
      </g>
     </g>
     <g id="text_24">
      <!-- 400 -->
      <g transform="translate(443.895652 48.886491)scale(0.1 -0.1)">
       <use xlink:href="#DejaVuSans-52"/>
       <use x="63.623047" xlink:href="#DejaVuSans-48"/>
       <use x="127.246094" xlink:href="#DejaVuSans-48"/>
      </g>
     </g>
    </g>
    <g id="ytick_13">
     <g id="line2d_27">
      <g>
       <use style="stroke:#000000;stroke-width:0.8;" x="469.983152" xlink:href="#m761fed334f" y="12.141818"/>
      </g>
     </g>
     <g id="text_25">
      <!-- 500 -->
      <g transform="translate(443.895652 15.941037)scale(0.1 -0.1)">
       <use xlink:href="#DejaVuSans-53"/>
       <use x="63.623047" xlink:href="#DejaVuSans-48"/>
       <use x="127.246094" xlink:href="#DejaVuSans-48"/>
      </g>
     </g>
    </g>
   </g>
   <g id="line2d_28">
    <path clip-path="url(#p50bffffca2)" d="M 478.253903 12.141818 
L 479.924762 12.141818 
L 481.595621 12.141818 
L 483.26648 12.141818 
L 484.937338 12.141818 
L 486.608197 12.141818 
L 488.279056 12.141818 
L 489.949915 12.141818 
L 491.620773 12.141818 
L 493.291632 12.141818 
L 494.962491 12.141818 
L 496.63335 12.141818 
L 498.304209 12.141818 
L 499.975067 12.141818 
L 501.645926 12.141818 
L 503.316785 12.141818 
L 504.987644 12.141818 
L 506.658503 12.141818 
L 508.329361 12.141818 
L 510.00022 12.141818 
L 511.671079 12.141818 
L 513.341938 12.141818 
L 515.012796 12.141818 
L 516.683655 12.141818 
L 518.354514 12.141818 
L 520.025373 12.474601 
L 521.696232 13.80573 
L 523.36709 15.13686 
L 525.037949 16.467989 
L 526.708808 17.799118 
L 528.379667 19.130248 
L 530.050526 20.461377 
L 531.721384 21.792507 
L 533.392243 23.123636 
L 535.063102 24.454766 
L 536.733961 25.785895 
L 538.404819 27.117025 
L 540.075678 28.448154 
L 541.746537 29.779284 
L 543.417396 31.110413 
L 545.088255 32.441543 
L 546.759113 33.772672 
L 548.429972 35.103802 
L 550.100831 36.434931 
L 551.77169 37.766061 
L 553.442549 39.09719 
L 555.113407 40.42832 
L 556.784266 41.759449 
L 558.455125 43.090579 
L 560.125984 44.421708 
L 561.796842 45.752837 
L 563.467701 47.083967 
L 565.13856 48.415096 
L 566.809419 49.746226 
L 568.480278 51.077355 
L 570.151136 52.408485 
L 571.821995 53.739614 
L 573.492854 55.070744 
L 575.163713 56.401873 
L 576.834572 57.733003 
L 578.50543 59.064132 
L 580.176289 60.395262 
L 581.847148 61.726391 
L 583.518007 63.057521 
L 585.188865 64.38865 
L 586.859724 65.71978 
L 588.530583 67.050909 
L 590.201442 68.382039 
L 591.872301 69.713168 
L 593.543159 71.044298 
L 595.214018 72.375427 
L 596.884877 73.706556 
L 598.555736 75.037686 
L 600.226595 76.368815 
L 601.897453 77.699945 
L 603.568312 79.031074 
L 605.239171 80.362204 
L 606.91003 81.693333 
L 608.580888 83.024463 
L 610.251747 84.355592 
L 611.922606 85.686722 
L 613.593465 87.017851 
L 615.264324 88.348981 
L 616.935182 89.68011 
L 618.606041 91.01124 
L 620.2769 92.342369 
L 621.947759 93.673499 
L 623.618617 95.004628 
L 625.289476 96.335758 
L 626.960335 97.666887 
L 628.631194 98.998017 
L 630.302053 100.329146 
L 631.972911 101.660275 
L 633.64377 102.991405 
L 635.314629 104.322534 
L 636.985488 105.653664 
L 638.656347 106.984793 
L 640.327205 108.315923 
L 641.998064 109.647052 
L 643.668923 110.978182 
" style="fill:none;stroke:#1f77b4;stroke-linecap:square;stroke-width:1.5;"/>
   </g>
   <g id="patch_13">
    <path d="M 469.983152 115.92 
L 469.983152 7.2 
" style="fill:none;stroke:#000000;stroke-linecap:square;stroke-linejoin:miter;stroke-width:0.8;"/>
   </g>
   <g id="patch_14">
    <path d="M 651.939674 115.92 
L 651.939674 7.2 
" style="fill:none;stroke:#000000;stroke-linecap:square;stroke-linejoin:miter;stroke-width:0.8;"/>
   </g>
   <g id="patch_15">
    <path d="M 469.983152 115.92 
L 651.939674 115.92 
" style="fill:none;stroke:#000000;stroke-linecap:square;stroke-linejoin:miter;stroke-width:0.8;"/>
   </g>
   <g id="patch_16">
    <path d="M 469.983152 7.2 
L 651.939674 7.2 
" style="fill:none;stroke:#000000;stroke-linecap:square;stroke-linejoin:miter;stroke-width:0.8;"/>
   </g>
  </g>
  <g id="axes_4">
   <g id="patch_17">
    <path d="M 688.330978 115.92 
L 870.2875 115.92 
L 870.2875 7.2 
L 688.330978 7.2 
z
" style="fill:#ffffff;"/>
   </g>
   <g id="matplotlib.axis_7">
    <g id="xtick_13">
     <g id="line2d_29">
      <g>
       <use style="stroke:#000000;stroke-width:0.8;" x="717.278607" xlink:href="#m91f7f18c45" y="115.92"/>
      </g>
     </g>
     <g id="text_26">
      <!-- 2 -->
      <g transform="translate(714.097357 130.518437)scale(0.1 -0.1)">
       <use xlink:href="#DejaVuSans-50"/>
      </g>
     </g>
    </g>
    <g id="xtick_14">
     <g id="line2d_30">
      <g>
       <use style="stroke:#000000;stroke-width:0.8;" x="758.632362" xlink:href="#m91f7f18c45" y="115.92"/>
      </g>
     </g>
     <g id="text_27">
      <!-- 4 -->
      <g transform="translate(755.451112 130.518437)scale(0.1 -0.1)">
       <use xlink:href="#DejaVuSans-52"/>
      </g>
     </g>
    </g>
    <g id="xtick_15">
     <g id="line2d_31">
      <g>
       <use style="stroke:#000000;stroke-width:0.8;" x="799.986117" xlink:href="#m91f7f18c45" y="115.92"/>
      </g>
     </g>
     <g id="text_28">
      <!-- 6 -->
      <g transform="translate(796.804867 130.518437)scale(0.1 -0.1)">
       <use xlink:href="#DejaVuSans-54"/>
      </g>
     </g>
    </g>
    <g id="xtick_16">
     <g id="line2d_32">
      <g>
       <use style="stroke:#000000;stroke-width:0.8;" x="841.339872" xlink:href="#m91f7f18c45" y="115.92"/>
      </g>
     </g>
     <g id="text_29">
      <!-- 8 -->
      <g transform="translate(838.158622 130.518437)scale(0.1 -0.1)">
       <use xlink:href="#DejaVuSans-56"/>
      </g>
     </g>
    </g>
   </g>
   <g id="matplotlib.axis_8">
    <g id="ytick_14">
     <g id="line2d_33">
      <g>
       <use style="stroke:#000000;stroke-width:0.8;" x="688.330978" xlink:href="#m761fed334f" y="110.978182"/>
      </g>
     </g>
     <g id="text_30">
      <!-- 300 -->
      <g transform="translate(662.243478 114.777401)scale(0.1 -0.1)">
       <use xlink:href="#DejaVuSans-51"/>
       <use x="63.623047" xlink:href="#DejaVuSans-48"/>
       <use x="127.246094" xlink:href="#DejaVuSans-48"/>
      </g>
     </g>
    </g>
    <g id="ytick_15">
     <g id="line2d_34">
      <g>
       <use style="stroke:#000000;stroke-width:0.8;" x="688.330978" xlink:href="#m761fed334f" y="86.269091"/>
      </g>
     </g>
     <g id="text_31">
      <!-- 350 -->
      <g transform="translate(662.243478 90.06831)scale(0.1 -0.1)">
       <use xlink:href="#DejaVuSans-51"/>
       <use x="63.623047" xlink:href="#DejaVuSans-53"/>
       <use x="127.246094" xlink:href="#DejaVuSans-48"/>
      </g>
     </g>
    </g>
    <g id="ytick_16">
     <g id="line2d_35">
      <g>
       <use style="stroke:#000000;stroke-width:0.8;" x="688.330978" xlink:href="#m761fed334f" y="61.56"/>
      </g>
     </g>
     <g id="text_32">
      <!-- 400 -->
      <g transform="translate(662.243478 65.359219)scale(0.1 -0.1)">
       <use xlink:href="#DejaVuSans-52"/>
       <use x="63.623047" xlink:href="#DejaVuSans-48"/>
       <use x="127.246094" xlink:href="#DejaVuSans-48"/>
      </g>
     </g>
    </g>
    <g id="ytick_17">
     <g id="line2d_36">
      <g>
       <use style="stroke:#000000;stroke-width:0.8;" x="688.330978" xlink:href="#m761fed334f" y="36.850909"/>
      </g>
     </g>
     <g id="text_33">
      <!-- 450 -->
      <g transform="translate(662.243478 40.650128)scale(0.1 -0.1)">
       <use xlink:href="#DejaVuSans-52"/>
       <use x="63.623047" xlink:href="#DejaVuSans-53"/>
       <use x="127.246094" xlink:href="#DejaVuSans-48"/>
      </g>
     </g>
    </g>
    <g id="ytick_18">
     <g id="line2d_37">
      <g>
       <use style="stroke:#000000;stroke-width:0.8;" x="688.330978" xlink:href="#m761fed334f" y="12.141818"/>
      </g>
     </g>
     <g id="text_34">
      <!-- 500 -->
      <g transform="translate(662.243478 15.941037)scale(0.1 -0.1)">
       <use xlink:href="#DejaVuSans-53"/>
       <use x="63.623047" xlink:href="#DejaVuSans-48"/>
       <use x="127.246094" xlink:href="#DejaVuSans-48"/>
      </g>
     </g>
    </g>
   </g>
   <g id="line2d_38">
    <path clip-path="url(#pa32c5c7a3b)" d="M 696.601729 12.141818 
L 698.272588 12.141818 
L 699.943447 12.141818 
L 701.614306 12.141818 
L 703.285164 12.141818 
L 704.956023 12.141818 
L 706.626882 12.141818 
L 708.297741 12.141818 
L 709.9686 12.141818 
L 711.639458 12.141818 
L 713.310317 12.141818 
L 714.981176 12.141818 
L 716.652035 12.141818 
L 718.322893 12.141818 
L 719.993752 12.141818 
L 721.664611 12.141818 
L 723.33547 12.141818 
L 725.006329 12.141818 
L 726.677187 12.141818 
L 728.348046 12.141818 
L 730.018905 12.141818 
L 731.689764 12.141818 
L 733.360623 12.141818 
L 735.031481 12.141818 
L 736.70234 12.141818 
L 738.373199 12.640992 
L 740.044058 14.637686 
L 741.714916 16.63438 
L 743.385775 18.631074 
L 745.056634 20.627769 
L 746.727493 22.624463 
L 748.398352 24.621157 
L 750.06921 26.617851 
L 751.740069 28.614545 
L 753.410928 30.61124 
L 755.081787 32.607934 
L 756.752646 34.604628 
L 758.423504 36.601322 
L 760.094363 38.598017 
L 761.765222 40.594711 
L 763.436081 42.591405 
L 765.106939 44.588099 
L 766.777798 46.584793 
L 768.448657 48.581488 
L 770.119516 50.578182 
L 771.790375 52.574876 
L 773.461233 54.57157 
L 775.132092 56.568264 
L 776.802951 58.564959 
L 778.47381 60.561653 
L 780.144669 62.558347 
L 781.815527 64.555041 
L 783.486386 66.551736 
L 785.157245 68.54843 
L 786.828104 70.545124 
L 788.498962 72.541818 
L 790.169821 74.538512 
L 791.84068 76.535207 
L 793.511539 78.531901 
L 795.182398 80.528595 
L 796.853256 82.525289 
L 798.524115 84.521983 
L 800.194974 86.518678 
L 801.865833 88.515372 
L 803.536692 90.512066 
L 805.20755 92.50876 
L 806.878409 94.505455 
L 808.549268 96.502149 
L 810.220127 98.498843 
L 811.890985 100.495537 
L 813.561844 102.492231 
L 815.232703 104.488926 
L 816.903562 106.48562 
L 818.574421 108.482314 
L 820.245279 110.479008 
L 821.916138 110.978182 
L 823.586997 110.978182 
L 825.257856 110.978182 
L 826.928715 110.978182 
L 828.599573 110.978182 
L 830.270432 110.978182 
L 831.941291 110.978182 
L 833.61215 110.978182 
L 835.283008 110.978182 
L 836.953867 110.978182 
L 838.624726 110.978182 
L 840.295585 110.978182 
L 841.966444 110.978182 
L 843.637302 110.978182 
L 845.308161 110.978182 
L 846.97902 110.978182 
L 848.649879 110.978182 
L 850.320738 110.978182 
L 851.991596 110.978182 
L 853.662455 110.978182 
L 855.333314 110.978182 
L 857.004173 110.978182 
L 858.675031 110.978182 
L 860.34589 110.978182 
L 862.016749 110.978182 
" style="fill:none;stroke:#1f77b4;stroke-linecap:square;stroke-width:1.5;"/>
   </g>
   <g id="patch_18">
    <path d="M 688.330978 115.92 
L 688.330978 7.2 
" style="fill:none;stroke:#000000;stroke-linecap:square;stroke-linejoin:miter;stroke-width:0.8;"/>
   </g>
   <g id="patch_19">
    <path d="M 870.2875 115.92 
L 870.2875 7.2 
" style="fill:none;stroke:#000000;stroke-linecap:square;stroke-linejoin:miter;stroke-width:0.8;"/>
   </g>
   <g id="patch_20">
    <path d="M 688.330978 115.92 
L 870.2875 115.92 
" style="fill:none;stroke:#000000;stroke-linecap:square;stroke-linejoin:miter;stroke-width:0.8;"/>
   </g>
   <g id="patch_21">
    <path d="M 688.330978 7.2 
L 870.2875 7.2 
" style="fill:none;stroke:#000000;stroke-linecap:square;stroke-linejoin:miter;stroke-width:0.8;"/>
   </g>
  </g>
 </g>
 <defs>
  <clipPath id="p0917537b1f">
   <rect height="108.72" width="181.956522" x="33.2875" y="7.2"/>
  </clipPath>
  <clipPath id="p5c7966edea">
   <rect height="108.72" width="181.956522" x="251.635326" y="7.2"/>
  </clipPath>
  <clipPath id="p50bffffca2">
   <rect height="108.72" width="181.956522" x="469.983152" y="7.2"/>
  </clipPath>
  <clipPath id="pa32c5c7a3b">
   <rect height="108.72" width="181.956522" x="688.330978" y="7.2"/>
  </clipPath>
 </defs>
</svg>
