<?xml version="1.0" encoding="utf-8" standalone="no"?>
<!DOCTYPE svg PUBLIC "-//W3C//DTD SVG 1.1//EN"
  "http://www.w3.org/Graphics/SVG/1.1/DTD/svg11.dtd">
<svg xmlns:xlink="http://www.w3.org/1999/xlink" width="393.262187pt" height="297.190125pt" viewBox="0 0 393.262187 297.190125" xmlns="http://www.w3.org/2000/svg" version="1.1">
 <metadata>
  <rdf:RDF xmlns:dc="http://purl.org/dc/elements/1.1/" xmlns:cc="http://creativecommons.org/ns#" xmlns:rdf="http://www.w3.org/1999/02/22-rdf-syntax-ns#">
   <cc:Work>
    <dc:type rdf:resource="http://purl.org/dc/dcmitype/StillImage"/>
    <dc:date>2023-08-22T14:07:13.803251</dc:date>
    <dc:format>image/svg+xml</dc:format>
    <dc:creator>
     <cc:Agent>
      <dc:title>Matplotlib v3.7.2, https://matplotlib.org/</dc:title>
     </cc:Agent>
    </dc:creator>
   </cc:Work>
  </rdf:RDF>
 </metadata>
 <defs>
  <style type="text/css">*{stroke-linejoin: round; stroke-linecap: butt}</style>
 </defs>
 <g id="figure_1">
  <g id="patch_1">
   <path d="M 0 297.190125 
L 393.262187 297.190125 
L 393.262187 0 
L 0 0 
z
" style="fill: #ffffff"/>
  </g>
  <g id="axes_1">
   <g id="patch_2">
    <path d="M 28.942188 273.312 
L 386.062188 273.312 
L 386.062188 7.2 
L 28.942188 7.2 
z
" style="fill: #ffffff"/>
   </g>
   <g id="matplotlib.axis_1">
    <g id="xtick_1">
     <g id="line2d_1">
      <defs>
       <path id="mba0bf89915" d="M 0 0 
L 0 3.5 
" style="stroke: #000000; stroke-width: 0.8"/>
      </defs>
      <g>
       <use xlink:href="#mba0bf89915" x="45.174915" y="273.312" style="stroke: #000000; stroke-width: 0.8"/>
      </g>
     </g>
     <g id="text_1">
      <!-- 0 -->
      <g transform="translate(41.993665 287.910437) scale(0.1 -0.1)">
       <defs>
        <path id="DejaVuSans-30" d="M 2034 4250 
Q 1547 4250 1301 3770 
Q 1056 3291 1056 2328 
Q 1056 1369 1301 889 
Q 1547 409 2034 409 
Q 2525 409 2770 889 
Q 3016 1369 3016 2328 
Q 3016 3291 2770 3770 
Q 2525 4250 2034 4250 
z
M 2034 4750 
Q 2819 4750 3233 4129 
Q 3647 3509 3647 2328 
Q 3647 1150 3233 529 
Q 2819 -91 2034 -91 
Q 1250 -91 836 529 
Q 422 1150 422 2328 
Q 422 3509 836 4129 
Q 1250 4750 2034 4750 
z
" transform="scale(0.015625)"/>
       </defs>
       <use xlink:href="#DejaVuSans-30"/>
      </g>
     </g>
    </g>
    <g id="xtick_2">
     <g id="line2d_2">
      <g>
       <use xlink:href="#mba0bf89915" x="108.645989" y="273.312" style="stroke: #000000; stroke-width: 0.8"/>
      </g>
     </g>
     <g id="text_2">
      <!-- 200 -->
      <g transform="translate(99.102239 287.910437) scale(0.1 -0.1)">
       <defs>
        <path id="DejaVuSans-32" d="M 1228 531 
L 3431 531 
L 3431 0 
L 469 0 
L 469 531 
Q 828 903 1448 1529 
Q 2069 2156 2228 2338 
Q 2531 2678 2651 2914 
Q 2772 3150 2772 3378 
Q 2772 3750 2511 3984 
Q 2250 4219 1831 4219 
Q 1534 4219 1204 4116 
Q 875 4013 500 3803 
L 500 4441 
Q 881 4594 1212 4672 
Q 1544 4750 1819 4750 
Q 2544 4750 2975 4387 
Q 3406 4025 3406 3419 
Q 3406 3131 3298 2873 
Q 3191 2616 2906 2266 
Q 2828 2175 2409 1742 
Q 1991 1309 1228 531 
z
" transform="scale(0.015625)"/>
       </defs>
       <use xlink:href="#DejaVuSans-32"/>
       <use xlink:href="#DejaVuSans-30" x="63.623047"/>
       <use xlink:href="#DejaVuSans-30" x="127.246094"/>
      </g>
     </g>
    </g>
    <g id="xtick_3">
     <g id="line2d_3">
      <g>
       <use xlink:href="#mba0bf89915" x="172.117064" y="273.312" style="stroke: #000000; stroke-width: 0.8"/>
      </g>
     </g>
     <g id="text_3">
      <!-- 400 -->
      <g transform="translate(162.573314 287.910437) scale(0.1 -0.1)">
       <defs>
        <path id="DejaVuSans-34" d="M 2419 4116 
L 825 1625 
L 2419 1625 
L 2419 4116 
z
M 2253 4666 
L 3047 4666 
L 3047 1625 
L 3713 1625 
L 3713 1100 
L 3047 1100 
L 3047 0 
L 2419 0 
L 2419 1100 
L 313 1100 
L 313 1709 
L 2253 4666 
z
" transform="scale(0.015625)"/>
       </defs>
       <use xlink:href="#DejaVuSans-34"/>
       <use xlink:href="#DejaVuSans-30" x="63.623047"/>
       <use xlink:href="#DejaVuSans-30" x="127.246094"/>
      </g>
     </g>
    </g>
    <g id="xtick_4">
     <g id="line2d_4">
      <g>
       <use xlink:href="#mba0bf89915" x="235.588138" y="273.312" style="stroke: #000000; stroke-width: 0.8"/>
      </g>
     </g>
     <g id="text_4">
      <!-- 600 -->
      <g transform="translate(226.044388 287.910437) scale(0.1 -0.1)">
       <defs>
        <path id="DejaVuSans-36" d="M 2113 2584 
Q 1688 2584 1439 2293 
Q 1191 2003 1191 1497 
Q 1191 994 1439 701 
Q 1688 409 2113 409 
Q 2538 409 2786 701 
Q 3034 994 3034 1497 
Q 3034 2003 2786 2293 
Q 2538 2584 2113 2584 
z
M 3366 4563 
L 3366 3988 
Q 3128 4100 2886 4159 
Q 2644 4219 2406 4219 
Q 1781 4219 1451 3797 
Q 1122 3375 1075 2522 
Q 1259 2794 1537 2939 
Q 1816 3084 2150 3084 
Q 2853 3084 3261 2657 
Q 3669 2231 3669 1497 
Q 3669 778 3244 343 
Q 2819 -91 2113 -91 
Q 1303 -91 875 529 
Q 447 1150 447 2328 
Q 447 3434 972 4092 
Q 1497 4750 2381 4750 
Q 2619 4750 2861 4703 
Q 3103 4656 3366 4563 
z
" transform="scale(0.015625)"/>
       </defs>
       <use xlink:href="#DejaVuSans-36"/>
       <use xlink:href="#DejaVuSans-30" x="63.623047"/>
       <use xlink:href="#DejaVuSans-30" x="127.246094"/>
      </g>
     </g>
    </g>
    <g id="xtick_5">
     <g id="line2d_5">
      <g>
       <use xlink:href="#mba0bf89915" x="299.059212" y="273.312" style="stroke: #000000; stroke-width: 0.8"/>
      </g>
     </g>
     <g id="text_5">
      <!-- 800 -->
      <g transform="translate(289.515462 287.910437) scale(0.1 -0.1)">
       <defs>
        <path id="DejaVuSans-38" d="M 2034 2216 
Q 1584 2216 1326 1975 
Q 1069 1734 1069 1313 
Q 1069 891 1326 650 
Q 1584 409 2034 409 
Q 2484 409 2743 651 
Q 3003 894 3003 1313 
Q 3003 1734 2745 1975 
Q 2488 2216 2034 2216 
z
M 1403 2484 
Q 997 2584 770 2862 
Q 544 3141 544 3541 
Q 544 4100 942 4425 
Q 1341 4750 2034 4750 
Q 2731 4750 3128 4425 
Q 3525 4100 3525 3541 
Q 3525 3141 3298 2862 
Q 3072 2584 2669 2484 
Q 3125 2378 3379 2068 
Q 3634 1759 3634 1313 
Q 3634 634 3220 271 
Q 2806 -91 2034 -91 
Q 1263 -91 848 271 
Q 434 634 434 1313 
Q 434 1759 690 2068 
Q 947 2378 1403 2484 
z
M 1172 3481 
Q 1172 3119 1398 2916 
Q 1625 2713 2034 2713 
Q 2441 2713 2670 2916 
Q 2900 3119 2900 3481 
Q 2900 3844 2670 4047 
Q 2441 4250 2034 4250 
Q 1625 4250 1398 4047 
Q 1172 3844 1172 3481 
z
" transform="scale(0.015625)"/>
       </defs>
       <use xlink:href="#DejaVuSans-38"/>
       <use xlink:href="#DejaVuSans-30" x="63.623047"/>
       <use xlink:href="#DejaVuSans-30" x="127.246094"/>
      </g>
     </g>
    </g>
    <g id="xtick_6">
     <g id="line2d_6">
      <g>
       <use xlink:href="#mba0bf89915" x="362.530287" y="273.312" style="stroke: #000000; stroke-width: 0.8"/>
      </g>
     </g>
     <g id="text_6">
      <!-- 1000 -->
      <g transform="translate(349.805287 287.910437) scale(0.1 -0.1)">
       <defs>
        <path id="DejaVuSans-31" d="M 794 531 
L 1825 531 
L 1825 4091 
L 703 3866 
L 703 4441 
L 1819 4666 
L 2450 4666 
L 2450 531 
L 3481 531 
L 3481 0 
L 794 0 
L 794 531 
z
" transform="scale(0.015625)"/>
       </defs>
       <use xlink:href="#DejaVuSans-31"/>
       <use xlink:href="#DejaVuSans-30" x="63.623047"/>
       <use xlink:href="#DejaVuSans-30" x="127.246094"/>
       <use xlink:href="#DejaVuSans-30" x="190.869141"/>
      </g>
     </g>
    </g>
   </g>
   <g id="matplotlib.axis_2">
    <g id="ytick_1">
     <g id="line2d_7">
      <defs>
       <path id="me3d589925a" d="M 0 0 
L -3.5 0 
" style="stroke: #000000; stroke-width: 0.8"/>
      </defs>
      <g>
       <use xlink:href="#me3d589925a" x="28.942188" y="232.489053" style="stroke: #000000; stroke-width: 0.8"/>
      </g>
     </g>
     <g id="text_7">
      <!-- −3 -->
      <g transform="translate(7.2 236.288272) scale(0.1 -0.1)">
       <defs>
        <path id="DejaVuSans-2212" d="M 678 2272 
L 4684 2272 
L 4684 1741 
L 678 1741 
L 678 2272 
z
" transform="scale(0.015625)"/>
        <path id="DejaVuSans-33" d="M 2597 2516 
Q 3050 2419 3304 2112 
Q 3559 1806 3559 1356 
Q 3559 666 3084 287 
Q 2609 -91 1734 -91 
Q 1441 -91 1130 -33 
Q 819 25 488 141 
L 488 750 
Q 750 597 1062 519 
Q 1375 441 1716 441 
Q 2309 441 2620 675 
Q 2931 909 2931 1356 
Q 2931 1769 2642 2001 
Q 2353 2234 1838 2234 
L 1294 2234 
L 1294 2753 
L 1863 2753 
Q 2328 2753 2575 2939 
Q 2822 3125 2822 3475 
Q 2822 3834 2567 4026 
Q 2313 4219 1838 4219 
Q 1578 4219 1281 4162 
Q 984 4106 628 3988 
L 628 4550 
Q 988 4650 1302 4700 
Q 1616 4750 1894 4750 
Q 2613 4750 3031 4423 
Q 3450 4097 3450 3541 
Q 3450 3153 3228 2886 
Q 3006 2619 2597 2516 
z
" transform="scale(0.015625)"/>
       </defs>
       <use xlink:href="#DejaVuSans-2212"/>
       <use xlink:href="#DejaVuSans-33" x="83.789062"/>
      </g>
     </g>
    </g>
    <g id="ytick_2">
     <g id="line2d_8">
      <g>
       <use xlink:href="#me3d589925a" x="28.942188" y="179.956275" style="stroke: #000000; stroke-width: 0.8"/>
      </g>
     </g>
     <g id="text_8">
      <!-- −2 -->
      <g transform="translate(7.2 183.755494) scale(0.1 -0.1)">
       <use xlink:href="#DejaVuSans-2212"/>
       <use xlink:href="#DejaVuSans-32" x="83.789062"/>
      </g>
     </g>
    </g>
    <g id="ytick_3">
     <g id="line2d_9">
      <g>
       <use xlink:href="#me3d589925a" x="28.942188" y="127.423498" style="stroke: #000000; stroke-width: 0.8"/>
      </g>
     </g>
     <g id="text_9">
      <!-- −1 -->
      <g transform="translate(7.2 131.222716) scale(0.1 -0.1)">
       <use xlink:href="#DejaVuSans-2212"/>
       <use xlink:href="#DejaVuSans-31" x="83.789062"/>
      </g>
     </g>
    </g>
    <g id="ytick_4">
     <g id="line2d_10">
      <g>
       <use xlink:href="#me3d589925a" x="28.942188" y="74.89072" style="stroke: #000000; stroke-width: 0.8"/>
      </g>
     </g>
     <g id="text_10">
      <!-- 0 -->
      <g transform="translate(15.579688 78.689938) scale(0.1 -0.1)">
       <use xlink:href="#DejaVuSans-30"/>
      </g>
     </g>
    </g>
    <g id="ytick_5">
     <g id="line2d_11">
      <g>
       <use xlink:href="#me3d589925a" x="28.942188" y="22.357942" style="stroke: #000000; stroke-width: 0.8"/>
      </g>
     </g>
     <g id="text_11">
      <!-- 1 -->
      <g transform="translate(15.579688 26.15716) scale(0.1 -0.1)">
       <use xlink:href="#DejaVuSans-31"/>
      </g>
     </g>
    </g>
   </g>
   <g id="line2d_12">
    <path d="M 45.174915 74.89072 
L 46.444336 60.95861 
L 47.079047 55.798192 
L 47.713758 52.532958 
L 48.031113 51.690144 
L 48.348468 51.381112 
L 48.665824 51.588891 
L 48.983179 52.279168 
L 49.61789 54.890823 
L 50.569956 60.744321 
L 51.522022 66.709617 
L 52.156733 69.512833 
L 52.474088 70.32968 
L 52.791444 70.681897 
L 53.108799 70.532906 
L 53.426154 69.863345 
L 53.74351 68.671736 
L 54.378221 64.805587 
L 55.012931 59.267528 
L 57.86913 31.212461 
L 58.50384 28.371169 
L 58.821196 27.753136 
L 59.138551 27.68047 
L 59.455907 28.138458 
L 59.773262 29.094929 
L 60.407973 32.294465 
L 61.360039 39.18868 
L 62.62946 48.427103 
L 63.264171 51.440848 
L 63.581526 52.300479 
L 63.898882 52.67143 
L 64.216237 52.531829 
L 64.533592 51.877628 
L 64.850948 50.722732 
L 65.485659 47.052996 
L 66.437725 39.075712 
L 68.024502 25.00938 
L 68.659212 21.253769 
L 68.976568 20.071097 
L 69.293923 19.410752 
L 69.611278 19.296 
L 69.928634 19.732276 
L 70.245989 20.707037 
L 70.8807 24.13505 
L 71.515411 29.150624 
L 73.736898 49.289394 
L 74.371609 52.833482 
L 74.688964 53.902161 
L 75.00632 54.463701 
L 75.323675 54.511431 
L 75.64103 54.056655 
L 75.958386 53.128269 
L 76.593097 50.047822 
L 77.545163 43.456915 
L 78.814584 34.824442 
L 79.449295 32.217491 
L 79.76665 31.59551 
L 80.084006 31.489303 
L 80.401361 31.924217 
L 80.718716 32.907873 
L 81.353427 36.462218 
L 81.988138 41.863665 
L 83.257559 55.927567 
L 84.526981 69.420845 
L 85.161692 74.209019 
L 85.796402 77.078083 
L 86.113758 77.736954 
L 86.431113 77.884349 
L 86.748468 77.54667 
L 87.065824 76.767102 
L 87.700535 74.129643 
L 89.922022 62.653657 
L 90.239378 61.943883 
L 90.556733 61.692072 
L 90.874088 61.942442 
L 91.191444 62.7225 
L 91.508799 64.042102 
L 92.14351 68.249672 
L 92.778221 74.293035 
L 94.047642 89.653284 
L 95.317064 104.476325 
L 95.951774 109.923382 
L 96.586485 113.426459 
L 96.90384 114.387004 
L 97.221196 114.822541 
L 97.538551 114.757077 
L 97.855907 114.231559 
L 98.490617 112.039949 
L 99.442683 107.104618 
L 100.394749 102.437264 
L 101.02946 100.686493 
L 101.346816 100.438716 
L 101.664171 100.676091 
L 101.981526 101.428399 
L 102.298882 102.707862 
L 102.933592 106.807474 
L 103.568303 112.720637 
L 104.837725 127.805998 
L 106.107146 142.362065 
L 106.741857 147.663991 
L 107.376568 150.995241 
L 107.693923 151.854247 
L 108.011278 152.174725 
L 108.328634 151.978405 
L 108.645989 151.304121 
L 109.2807 148.753911 
L 110.232766 143.10937 
L 111.184832 137.519299 
L 111.819543 135.044707 
L 112.136898 134.407314 
L 112.454254 134.239445 
L 112.771609 134.573305 
L 113.088964 135.423613 
L 113.40632 136.78715 
L 114.04103 140.952463 
L 114.993097 149.996188 
L 116.897229 169.82072 
L 117.53194 174.27845 
L 118.16665 176.755972 
L 118.484006 177.179279 
L 118.801361 177.055215 
L 119.118716 176.403356 
L 119.436072 175.260506 
L 120.070783 171.727113 
L 121.022849 164.474896 
L 122.29227 155.069862 
L 122.926981 152.083181 
L 123.244336 151.253696 
L 123.561692 150.918376 
L 123.879047 151.094543 
L 124.196402 151.781584 
L 124.513758 152.961006 
L 125.148468 156.637821 
L 126.100535 164.469466 
L 127.369956 175.534398 
L 128.004667 179.653539 
L 128.639378 182.017969 
L 128.956733 182.423459 
L 129.274088 182.280839 
L 129.591444 181.589621 
L 129.908799 180.367251 
L 130.54351 176.484379 
L 131.495576 168.03255 
L 133.082353 152.845296 
L 133.717064 148.511863 
L 134.351774 145.989921 
L 134.66913 145.489812 
L 134.986485 145.505587 
L 135.30384 146.021321 
L 135.621196 147.003721 
L 136.255907 150.155597 
L 137.207973 156.718713 
L 138.160039 163.277513 
L 138.794749 166.407627 
L 139.112105 167.365029 
L 139.42946 167.841177 
L 139.746816 167.798368 
L 140.064171 167.216009 
L 140.381526 166.091414 
L 141.016237 162.293973 
L 141.650948 156.730461 
L 142.920369 142.686144 
L 143.872435 132.535679 
L 144.507146 127.296412 
L 145.141857 123.882545 
L 145.459212 122.94762 
L 145.776568 122.539371 
L 146.093923 122.644379 
L 146.411278 123.231732 
L 147.045989 125.649111 
L 147.998055 131.273574 
L 148.950121 137.10672 
L 149.584832 139.866658 
L 149.902187 140.669234 
L 150.219543 141.008292 
L 150.536898 140.843967 
L 150.854254 140.153431 
L 151.171609 138.931632 
L 151.80632 134.963565 
L 152.44103 129.247276 
L 153.710452 114.904322 
L 154.662518 104.523328 
L 155.297229 99.138482 
L 155.93194 95.601772 
L 156.249295 94.619481 
L 156.56665 94.176403 
L 156.884006 94.261491 
L 157.201361 94.846084 
L 157.518716 95.884908 
L 158.153427 99.070727 
L 160.374915 112.694902 
L 160.69227 113.744927 
L 161.009626 114.349473 
L 161.326981 114.466442 
L 161.644336 114.070587 
L 161.961692 113.154386 
L 162.596402 109.820456 
L 163.231113 104.75389 
L 164.500535 91.704548 
L 165.452601 82.269753 
L 166.087311 77.512571 
L 166.722022 74.615575 
L 167.039378 73.962792 
L 167.356733 73.858634 
L 167.674088 74.29429 
L 167.991444 75.243258 
L 168.626154 78.492593 
L 169.578221 85.680682 
L 170.847642 95.778242 
L 171.482353 99.394373 
L 171.799708 100.584657 
L 172.117064 101.298751 
L 172.434419 101.508914 
L 172.751774 101.205032 
L 173.06913 100.394989 
L 173.70384 97.37566 
L 174.338551 92.84891 
L 176.560039 74.845508 
L 177.194749 72.060444 
L 177.512105 71.411393 
L 177.82946 71.302156 
L 178.146816 71.744089 
L 178.464171 72.730551 
L 179.098882 76.222466 
L 179.733592 81.388132 
L 182.272435 105.298584 
L 182.907146 108.595002 
L 183.224502 109.505082 
L 183.541857 109.900267 
L 183.859212 109.785806 
L 184.176568 109.184745 
L 184.493923 108.13713 
L 185.128634 104.938828 
L 187.350121 91.112696 
L 187.667477 90.024615 
L 187.984832 89.390223 
L 188.302188 89.257025 
L 188.619543 89.656052 
L 188.936898 90.600832 
L 189.571609 94.092014 
L 190.20632 99.485996 
L 191.158386 110.014935 
L 192.745163 128.056375 
L 193.379873 133.341724 
L 194.014584 136.745636 
L 194.33194 137.671575 
L 194.649295 138.077748 
L 194.96665 137.984714 
L 195.284006 137.430141 
L 195.918716 135.164676 
L 196.870783 130.049426 
L 197.822849 125.104003 
L 198.457559 123.126139 
L 198.774915 122.759093 
L 199.09227 122.877431 
L 199.409626 123.514357 
L 199.726981 124.685641 
L 200.361692 128.604798 
L 200.996402 134.40759 
L 201.948468 145.543174 
L 203.535245 164.617904 
L 204.169956 170.309244 
L 204.804667 174.094123 
L 205.122022 175.195352 
L 205.439378 175.763464 
L 205.756733 175.816594 
L 206.074088 175.390175 
L 206.391444 174.535734 
L 207.026154 171.818124 
L 208.930287 162.006886 
L 209.247642 161.098601 
L 209.564997 160.60642 
L 209.882353 160.581878 
L 210.199708 161.060444 
L 210.517064 162.060279 
L 211.151774 165.607005 
L 211.786485 171.013293 
L 212.738551 181.541563 
L 214.325328 199.623615 
L 214.960039 204.914287 
L 215.594749 208.277845 
L 215.912105 209.155281 
L 216.22946 209.487765 
L 216.546816 209.291213 
L 216.864171 208.598905 
L 217.498882 205.939955 
L 218.450948 199.898247 
L 219.403014 193.600281 
L 220.037725 190.50017 
L 220.35508 189.514857 
L 220.672435 188.982341 
L 220.989791 188.940458 
L 221.307146 189.409912 
L 221.624502 190.393521 
L 222.259212 193.825427 
L 222.893923 198.913047 
L 225.750121 224.88355 
L 226.067477 226.326694 
L 226.384832 227.245274 
L 226.702187 227.617248 
L 227.019543 227.438332 
L 227.336898 226.722277 
L 227.654254 225.500321 
L 228.288964 221.744324 
L 229.24103 213.943659 
L 230.510452 203.360687 
L 231.145163 199.626108 
L 231.462518 198.397489 
L 231.779873 197.653529 
L 232.097229 197.417511 
L 232.414584 197.694936 
L 232.73194 198.473264 
L 233.36665 201.395961 
L 234.001361 205.756817 
L 235.905493 220.66728 
L 236.540204 223.795246 
L 236.857559 224.671918 
L 237.174915 225.030315 
L 237.49227 224.846264 
L 237.809626 224.113363 
L 238.126981 222.843161 
L 238.761692 218.824194 
L 239.713758 210.000116 
L 241.61789 190.922531 
L 242.252601 186.759654 
L 242.569956 185.385872 
L 242.887311 184.523866 
L 243.204667 184.181726 
L 243.522022 184.349534 
L 243.839378 184.99972 
L 244.474088 187.554978 
L 245.426154 193.45066 
L 246.695576 201.349156 
L 247.330287 203.669887 
L 247.647642 204.166858 
L 247.964997 204.158905 
L 248.282353 203.6197 
L 248.599708 202.540576 
L 249.234419 198.817583 
L 249.86913 193.270879 
L 251.138551 178.965727 
L 252.407973 165.292076 
L 253.042683 160.447036 
L 253.677394 157.554323 
L 253.994749 156.899207 
L 254.312105 156.76766 
L 254.62946 157.134517 
L 254.946816 157.957746 
L 255.581526 160.729983 
L 257.803014 173.227144 
L 258.120369 174.151304 
L 258.437725 174.632676 
L 258.75508 174.626 
L 259.072435 174.102652 
L 259.389791 173.051572 
L 260.024502 169.411836 
L 260.659212 163.970028 
L 261.928634 149.888068 
L 263.198055 136.429836 
L 263.832766 131.704765 
L 264.467477 128.959362 
L 264.784832 128.393774 
L 265.102188 128.365462 
L 265.419543 128.851518 
L 265.736898 129.812025 
L 266.371609 132.920277 
L 267.64103 141.603633 
L 268.593097 147.324218 
L 269.227807 149.468819 
L 269.545163 149.856067 
L 269.862518 149.739724 
L 270.179873 149.106258 
L 270.497229 147.960102 
L 271.13194 144.235768 
L 271.76665 138.941188 
L 274.305493 115.421908 
L 274.940204 112.472959 
L 275.257559 111.783432 
L 275.574915 111.643129 
L 275.89227 112.049177 
L 276.209626 112.980824 
L 276.844336 116.253411 
L 277.796402 123.682161 
L 279.383179 136.820754 
L 280.01789 140.238594 
L 280.335245 141.278558 
L 280.652601 141.822429 
L 280.969956 141.854072 
L 281.287311 141.375306 
L 281.604667 140.405806 
L 282.239378 137.158153 
L 283.191444 130.006585 
L 284.460865 119.933707 
L 285.095576 116.344193 
L 285.412931 115.185835 
L 285.730287 114.524235 
L 286.047642 114.393952 
L 286.364997 114.81222 
L 286.682353 115.77832 
L 287.317064 119.262238 
L 287.951774 124.497062 
L 289.221196 137.774855 
L 290.173262 147.243001 
L 290.807973 151.996504 
L 291.442683 154.926184 
L 291.760039 155.628373 
L 292.077394 155.815074 
L 292.394749 155.503388 
L 292.712105 154.727766 
L 293.346816 152.00157 
L 294.298882 146.118263 
L 295.250948 140.295819 
L 295.885659 137.684764 
L 296.203014 136.993258 
L 296.520369 136.785941 
L 296.837725 137.099443 
L 297.15508 137.953151 
L 297.472435 139.348576 
L 298.107146 143.681389 
L 298.741857 149.764868 
L 300.328634 168.584874 
L 301.2807 178.622241 
L 301.915411 183.403173 
L 302.550121 186.193909 
L 302.867477 186.801361 
L 303.184832 186.897038 
L 303.502187 186.512991 
L 303.819543 185.697627 
L 304.454254 183.038075 
L 306.358386 173.155195 
L 306.675741 172.203261 
L 306.993097 171.663455 
L 307.310452 171.590292 
L 307.627807 172.02251 
L 307.945163 172.981802 
L 308.579873 176.47898 
L 309.214584 181.900273 
L 310.16665 192.619878 
L 311.753427 211.546965 
L 312.388138 217.342324 
L 313.022849 221.276298 
L 313.340204 222.455018 
L 313.657559 223.094609 
L 313.974915 223.20737 
L 314.29227 222.823046 
L 314.609626 221.988006 
L 315.244336 219.223848 
L 317.465824 207.264289 
L 317.783179 206.473561 
L 318.100535 206.131509 
L 318.41789 206.279176 
L 318.735245 206.940623 
L 319.052601 208.122162 
L 319.687311 211.981287 
L 320.322022 217.558539 
L 321.591444 231.560741 
L 322.54351 241.642245 
L 323.178221 246.803135 
L 323.812931 250.08974 
L 324.130287 250.934763 
L 324.447642 251.231024 
L 324.764997 250.988532 
L 325.082353 250.23494 
L 325.717064 247.387141 
L 326.66913 240.840258 
L 327.938551 231.683396 
L 328.573262 228.569533 
L 328.890617 227.635735 
L 329.207973 227.180296 
L 329.525328 227.229794 
L 329.842683 227.793146 
L 330.160039 228.86126 
L 330.794749 232.388028 
L 331.746816 240.283994 
L 333.333592 254.693127 
L 333.968303 258.738196 
L 334.285659 260.087003 
L 334.603014 260.922206 
L 334.920369 261.216 
L 335.237725 260.958202 
L 335.55508 260.156653 
L 335.872435 258.836941 
L 336.507146 254.828207 
L 337.459212 246.447456 
L 338.728634 234.655304 
L 339.363345 230.155723 
L 339.998055 227.354491 
L 340.315411 226.694146 
L 340.632766 226.548533 
L 340.950121 226.911226 
L 341.267477 227.758002 
L 341.902187 230.723647 
L 342.854254 237.312488 
L 344.123675 246.316873 
L 344.758386 249.252909 
L 345.075741 250.065004 
L 345.393097 250.372888 
L 345.710452 250.146691 
L 346.027807 249.374036 
L 346.345163 248.060599 
L 346.979873 243.922195 
L 347.614584 238.114613 
L 350.153427 211.641402 
L 350.788138 207.723447 
L 351.105493 206.511073 
L 351.422849 205.821082 
L 351.740204 205.649543 
L 352.057559 205.974774 
L 352.374915 206.757961 
L 353.009626 209.466109 
L 354.279047 217.186265 
L 354.913758 220.699907 
L 355.548468 223.018083 
L 355.865824 223.548432 
L 356.183179 223.590177 
L 356.500535 223.111242 
L 356.81789 222.097034 
L 357.452601 218.494103 
L 358.087311 213.017714 
L 359.039378 202.406436 
L 360.626154 184.321102 
L 361.260865 179.059388 
L 361.895576 175.713453 
L 362.212931 174.832365 
L 362.530287 174.483236 
L 362.847642 174.646766 
L 363.164997 175.286376 
L 363.799708 177.769622 
L 364.751774 183.341463 
L 365.70384 188.905476 
L 366.338551 191.381865 
L 366.655907 192.021782 
L 366.973262 192.190691 
L 367.290617 191.854263 
L 367.607973 190.9955 
L 367.925328 189.615306 
L 368.560039 185.38323 
L 369.512105 176.127528 
L 369.82946 172.565578 
L 369.82946 172.565578 
" clip-path="url(#p4098e1d3f2)" style="fill: none; stroke: #1f77b4; stroke-width: 1.5; stroke-linecap: square"/>
   </g>
   <g id="patch_3">
    <path d="M 28.942188 273.312 
L 28.942188 7.2 
" style="fill: none; stroke: #000000; stroke-width: 0.8; stroke-linejoin: miter; stroke-linecap: square"/>
   </g>
   <g id="patch_4">
    <path d="M 386.062188 273.312 
L 386.062188 7.2 
" style="fill: none; stroke: #000000; stroke-width: 0.8; stroke-linejoin: miter; stroke-linecap: square"/>
   </g>
   <g id="patch_5">
    <path d="M 28.942188 273.312 
L 386.062187 273.312 
" style="fill: none; stroke: #000000; stroke-width: 0.8; stroke-linejoin: miter; stroke-linecap: square"/>
   </g>
   <g id="patch_6">
    <path d="M 28.942188 7.2 
L 386.062187 7.2 
" style="fill: none; stroke: #000000; stroke-width: 0.8; stroke-linejoin: miter; stroke-linecap: square"/>
   </g>
  </g>
 </g>
 <defs>
  <clipPath id="p4098e1d3f2">
   <rect x="28.942188" y="7.2" width="357.12" height="266.112"/>
  </clipPath>
 </defs>
</svg>
