<?xml version="1.0" encoding="utf-8" standalone="no"?>
<!DOCTYPE svg PUBLIC "-//W3C//DTD SVG 1.1//EN"
  "http://www.w3.org/Graphics/SVG/1.1/DTD/svg11.dtd">
<svg xmlns:xlink="http://www.w3.org/1999/xlink" width="393.262187pt" height="297.190125pt" viewBox="0 0 393.262187 297.190125" xmlns="http://www.w3.org/2000/svg" version="1.1">
 <metadata>
  <rdf:RDF xmlns:dc="http://purl.org/dc/elements/1.1/" xmlns:cc="http://creativecommons.org/ns#" xmlns:rdf="http://www.w3.org/1999/02/22-rdf-syntax-ns#">
   <cc:Work>
    <dc:type rdf:resource="http://purl.org/dc/dcmitype/StillImage"/>
    <dc:date>2023-08-22T14:07:14.791579</dc:date>
    <dc:format>image/svg+xml</dc:format>
    <dc:creator>
     <cc:Agent>
      <dc:title>Matplotlib v3.7.2, https://matplotlib.org/</dc:title>
     </cc:Agent>
    </dc:creator>
   </cc:Work>
  </rdf:RDF>
 </metadata>
 <defs>
  <style type="text/css">*{stroke-linejoin: round; stroke-linecap: butt}</style>
 </defs>
 <g id="figure_1">
  <g id="patch_1">
   <path d="M 0 297.190125 
L 393.262187 297.190125 
L 393.262187 0 
L 0 0 
z
" style="fill: #ffffff"/>
  </g>
  <g id="axes_1">
   <g id="patch_2">
    <path d="M 28.942188 273.312 
L 386.062188 273.312 
L 386.062188 7.2 
L 28.942188 7.2 
z
" style="fill: #ffffff"/>
   </g>
   <g id="matplotlib.axis_1">
    <g id="xtick_1">
     <g id="line2d_1">
      <defs>
       <path id="m34c22a9da9" d="M 0 0 
L 0 3.5 
" style="stroke: #000000; stroke-width: 0.8"/>
      </defs>
      <g>
       <use xlink:href="#m34c22a9da9" x="45.174915" y="273.312" style="stroke: #000000; stroke-width: 0.8"/>
      </g>
     </g>
     <g id="text_1">
      <!-- 0 -->
      <g transform="translate(41.993665 287.910437) scale(0.1 -0.1)">
       <defs>
        <path id="DejaVuSans-30" d="M 2034 4250 
Q 1547 4250 1301 3770 
Q 1056 3291 1056 2328 
Q 1056 1369 1301 889 
Q 1547 409 2034 409 
Q 2525 409 2770 889 
Q 3016 1369 3016 2328 
Q 3016 3291 2770 3770 
Q 2525 4250 2034 4250 
z
M 2034 4750 
Q 2819 4750 3233 4129 
Q 3647 3509 3647 2328 
Q 3647 1150 3233 529 
Q 2819 -91 2034 -91 
Q 1250 -91 836 529 
Q 422 1150 422 2328 
Q 422 3509 836 4129 
Q 1250 4750 2034 4750 
z
" transform="scale(0.015625)"/>
       </defs>
       <use xlink:href="#DejaVuSans-30"/>
      </g>
     </g>
    </g>
    <g id="xtick_2">
     <g id="line2d_2">
      <g>
       <use xlink:href="#m34c22a9da9" x="108.645989" y="273.312" style="stroke: #000000; stroke-width: 0.8"/>
      </g>
     </g>
     <g id="text_2">
      <!-- 200 -->
      <g transform="translate(99.102239 287.910437) scale(0.1 -0.1)">
       <defs>
        <path id="DejaVuSans-32" d="M 1228 531 
L 3431 531 
L 3431 0 
L 469 0 
L 469 531 
Q 828 903 1448 1529 
Q 2069 2156 2228 2338 
Q 2531 2678 2651 2914 
Q 2772 3150 2772 3378 
Q 2772 3750 2511 3984 
Q 2250 4219 1831 4219 
Q 1534 4219 1204 4116 
Q 875 4013 500 3803 
L 500 4441 
Q 881 4594 1212 4672 
Q 1544 4750 1819 4750 
Q 2544 4750 2975 4387 
Q 3406 4025 3406 3419 
Q 3406 3131 3298 2873 
Q 3191 2616 2906 2266 
Q 2828 2175 2409 1742 
Q 1991 1309 1228 531 
z
" transform="scale(0.015625)"/>
       </defs>
       <use xlink:href="#DejaVuSans-32"/>
       <use xlink:href="#DejaVuSans-30" x="63.623047"/>
       <use xlink:href="#DejaVuSans-30" x="127.246094"/>
      </g>
     </g>
    </g>
    <g id="xtick_3">
     <g id="line2d_3">
      <g>
       <use xlink:href="#m34c22a9da9" x="172.117064" y="273.312" style="stroke: #000000; stroke-width: 0.8"/>
      </g>
     </g>
     <g id="text_3">
      <!-- 400 -->
      <g transform="translate(162.573314 287.910437) scale(0.1 -0.1)">
       <defs>
        <path id="DejaVuSans-34" d="M 2419 4116 
L 825 1625 
L 2419 1625 
L 2419 4116 
z
M 2253 4666 
L 3047 4666 
L 3047 1625 
L 3713 1625 
L 3713 1100 
L 3047 1100 
L 3047 0 
L 2419 0 
L 2419 1100 
L 313 1100 
L 313 1709 
L 2253 4666 
z
" transform="scale(0.015625)"/>
       </defs>
       <use xlink:href="#DejaVuSans-34"/>
       <use xlink:href="#DejaVuSans-30" x="63.623047"/>
       <use xlink:href="#DejaVuSans-30" x="127.246094"/>
      </g>
     </g>
    </g>
    <g id="xtick_4">
     <g id="line2d_4">
      <g>
       <use xlink:href="#m34c22a9da9" x="235.588138" y="273.312" style="stroke: #000000; stroke-width: 0.8"/>
      </g>
     </g>
     <g id="text_4">
      <!-- 600 -->
      <g transform="translate(226.044388 287.910437) scale(0.1 -0.1)">
       <defs>
        <path id="DejaVuSans-36" d="M 2113 2584 
Q 1688 2584 1439 2293 
Q 1191 2003 1191 1497 
Q 1191 994 1439 701 
Q 1688 409 2113 409 
Q 2538 409 2786 701 
Q 3034 994 3034 1497 
Q 3034 2003 2786 2293 
Q 2538 2584 2113 2584 
z
M 3366 4563 
L 3366 3988 
Q 3128 4100 2886 4159 
Q 2644 4219 2406 4219 
Q 1781 4219 1451 3797 
Q 1122 3375 1075 2522 
Q 1259 2794 1537 2939 
Q 1816 3084 2150 3084 
Q 2853 3084 3261 2657 
Q 3669 2231 3669 1497 
Q 3669 778 3244 343 
Q 2819 -91 2113 -91 
Q 1303 -91 875 529 
Q 447 1150 447 2328 
Q 447 3434 972 4092 
Q 1497 4750 2381 4750 
Q 2619 4750 2861 4703 
Q 3103 4656 3366 4563 
z
" transform="scale(0.015625)"/>
       </defs>
       <use xlink:href="#DejaVuSans-36"/>
       <use xlink:href="#DejaVuSans-30" x="63.623047"/>
       <use xlink:href="#DejaVuSans-30" x="127.246094"/>
      </g>
     </g>
    </g>
    <g id="xtick_5">
     <g id="line2d_5">
      <g>
       <use xlink:href="#m34c22a9da9" x="299.059212" y="273.312" style="stroke: #000000; stroke-width: 0.8"/>
      </g>
     </g>
     <g id="text_5">
      <!-- 800 -->
      <g transform="translate(289.515462 287.910437) scale(0.1 -0.1)">
       <defs>
        <path id="DejaVuSans-38" d="M 2034 2216 
Q 1584 2216 1326 1975 
Q 1069 1734 1069 1313 
Q 1069 891 1326 650 
Q 1584 409 2034 409 
Q 2484 409 2743 651 
Q 3003 894 3003 1313 
Q 3003 1734 2745 1975 
Q 2488 2216 2034 2216 
z
M 1403 2484 
Q 997 2584 770 2862 
Q 544 3141 544 3541 
Q 544 4100 942 4425 
Q 1341 4750 2034 4750 
Q 2731 4750 3128 4425 
Q 3525 4100 3525 3541 
Q 3525 3141 3298 2862 
Q 3072 2584 2669 2484 
Q 3125 2378 3379 2068 
Q 3634 1759 3634 1313 
Q 3634 634 3220 271 
Q 2806 -91 2034 -91 
Q 1263 -91 848 271 
Q 434 634 434 1313 
Q 434 1759 690 2068 
Q 947 2378 1403 2484 
z
M 1172 3481 
Q 1172 3119 1398 2916 
Q 1625 2713 2034 2713 
Q 2441 2713 2670 2916 
Q 2900 3119 2900 3481 
Q 2900 3844 2670 4047 
Q 2441 4250 2034 4250 
Q 1625 4250 1398 4047 
Q 1172 3844 1172 3481 
z
" transform="scale(0.015625)"/>
       </defs>
       <use xlink:href="#DejaVuSans-38"/>
       <use xlink:href="#DejaVuSans-30" x="63.623047"/>
       <use xlink:href="#DejaVuSans-30" x="127.246094"/>
      </g>
     </g>
    </g>
    <g id="xtick_6">
     <g id="line2d_6">
      <g>
       <use xlink:href="#m34c22a9da9" x="362.530287" y="273.312" style="stroke: #000000; stroke-width: 0.8"/>
      </g>
     </g>
     <g id="text_6">
      <!-- 1000 -->
      <g transform="translate(349.805287 287.910437) scale(0.1 -0.1)">
       <defs>
        <path id="DejaVuSans-31" d="M 794 531 
L 1825 531 
L 1825 4091 
L 703 3866 
L 703 4441 
L 1819 4666 
L 2450 4666 
L 2450 531 
L 3481 531 
L 3481 0 
L 794 0 
L 794 531 
z
" transform="scale(0.015625)"/>
       </defs>
       <use xlink:href="#DejaVuSans-31"/>
       <use xlink:href="#DejaVuSans-30" x="63.623047"/>
       <use xlink:href="#DejaVuSans-30" x="127.246094"/>
       <use xlink:href="#DejaVuSans-30" x="190.869141"/>
      </g>
     </g>
    </g>
   </g>
   <g id="matplotlib.axis_2">
    <g id="ytick_1">
     <g id="line2d_7">
      <defs>
       <path id="m548b680766" d="M 0 0 
L -3.5 0 
" style="stroke: #000000; stroke-width: 0.8"/>
      </defs>
      <g>
       <use xlink:href="#m548b680766" x="28.942188" y="246.620857" style="stroke: #000000; stroke-width: 0.8"/>
      </g>
     </g>
     <g id="text_7">
      <!-- −3 -->
      <g transform="translate(7.2 250.420076) scale(0.1 -0.1)">
       <defs>
        <path id="DejaVuSans-2212" d="M 678 2272 
L 4684 2272 
L 4684 1741 
L 678 1741 
L 678 2272 
z
" transform="scale(0.015625)"/>
        <path id="DejaVuSans-33" d="M 2597 2516 
Q 3050 2419 3304 2112 
Q 3559 1806 3559 1356 
Q 3559 666 3084 287 
Q 2609 -91 1734 -91 
Q 1441 -91 1130 -33 
Q 819 25 488 141 
L 488 750 
Q 750 597 1062 519 
Q 1375 441 1716 441 
Q 2309 441 2620 675 
Q 2931 909 2931 1356 
Q 2931 1769 2642 2001 
Q 2353 2234 1838 2234 
L 1294 2234 
L 1294 2753 
L 1863 2753 
Q 2328 2753 2575 2939 
Q 2822 3125 2822 3475 
Q 2822 3834 2567 4026 
Q 2313 4219 1838 4219 
Q 1578 4219 1281 4162 
Q 984 4106 628 3988 
L 628 4550 
Q 988 4650 1302 4700 
Q 1616 4750 1894 4750 
Q 2613 4750 3031 4423 
Q 3450 4097 3450 3541 
Q 3450 3153 3228 2886 
Q 3006 2619 2597 2516 
z
" transform="scale(0.015625)"/>
       </defs>
       <use xlink:href="#DejaVuSans-2212"/>
       <use xlink:href="#DejaVuSans-33" x="83.789062"/>
      </g>
     </g>
    </g>
    <g id="ytick_2">
     <g id="line2d_8">
      <g>
       <use xlink:href="#m548b680766" x="28.942188" y="213.354167" style="stroke: #000000; stroke-width: 0.8"/>
      </g>
     </g>
     <g id="text_8">
      <!-- −2 -->
      <g transform="translate(7.2 217.153385) scale(0.1 -0.1)">
       <use xlink:href="#DejaVuSans-2212"/>
       <use xlink:href="#DejaVuSans-32" x="83.789062"/>
      </g>
     </g>
    </g>
    <g id="ytick_3">
     <g id="line2d_9">
      <g>
       <use xlink:href="#m548b680766" x="28.942188" y="180.087476" style="stroke: #000000; stroke-width: 0.8"/>
      </g>
     </g>
     <g id="text_9">
      <!-- −1 -->
      <g transform="translate(7.2 183.886695) scale(0.1 -0.1)">
       <use xlink:href="#DejaVuSans-2212"/>
       <use xlink:href="#DejaVuSans-31" x="83.789062"/>
      </g>
     </g>
    </g>
    <g id="ytick_4">
     <g id="line2d_10">
      <g>
       <use xlink:href="#m548b680766" x="28.942188" y="146.820786" style="stroke: #000000; stroke-width: 0.8"/>
      </g>
     </g>
     <g id="text_10">
      <!-- 0 -->
      <g transform="translate(15.579688 150.620004) scale(0.1 -0.1)">
       <use xlink:href="#DejaVuSans-30"/>
      </g>
     </g>
    </g>
    <g id="ytick_5">
     <g id="line2d_11">
      <g>
       <use xlink:href="#m548b680766" x="28.942188" y="113.554095" style="stroke: #000000; stroke-width: 0.8"/>
      </g>
     </g>
     <g id="text_11">
      <!-- 1 -->
      <g transform="translate(15.579688 117.353314) scale(0.1 -0.1)">
       <use xlink:href="#DejaVuSans-31"/>
      </g>
     </g>
    </g>
    <g id="ytick_6">
     <g id="line2d_12">
      <g>
       <use xlink:href="#m548b680766" x="28.942188" y="80.287405" style="stroke: #000000; stroke-width: 0.8"/>
      </g>
     </g>
     <g id="text_12">
      <!-- 2 -->
      <g transform="translate(15.579688 84.086623) scale(0.1 -0.1)">
       <use xlink:href="#DejaVuSans-32"/>
      </g>
     </g>
    </g>
    <g id="ytick_7">
     <g id="line2d_13">
      <g>
       <use xlink:href="#m548b680766" x="28.942188" y="47.020714" style="stroke: #000000; stroke-width: 0.8"/>
      </g>
     </g>
     <g id="text_13">
      <!-- 3 -->
      <g transform="translate(15.579688 50.819933) scale(0.1 -0.1)">
       <use xlink:href="#DejaVuSans-33"/>
      </g>
     </g>
    </g>
    <g id="ytick_8">
     <g id="line2d_14">
      <g>
       <use xlink:href="#m548b680766" x="28.942188" y="13.754024" style="stroke: #000000; stroke-width: 0.8"/>
      </g>
     </g>
     <g id="text_14">
      <!-- 4 -->
      <g transform="translate(15.579688 17.553242) scale(0.1 -0.1)">
       <use xlink:href="#DejaVuSans-34"/>
      </g>
     </g>
    </g>
   </g>
   <g id="line2d_15">
    <path d="M 45.174915 180.087476 
L 48.983179 173.287858 
L 52.791444 166.916535 
L 56.599708 160.963228 
L 60.407973 155.417659 
L 64.216237 150.269547 
L 68.024502 145.508615 
L 71.832766 141.124583 
L 75.323675 137.428204 
L 78.814584 134.031971 
L 82.305493 130.927966 
L 85.796402 128.108272 
L 89.287311 125.564971 
L 92.778221 123.290147 
L 96.26913 121.275879 
L 99.760039 119.514254 
L 103.250948 117.997351 
L 106.741857 116.717255 
L 110.232766 115.666046 
L 113.723675 114.835809 
L 117.214584 114.218623 
L 121.022849 113.779014 
L 124.831113 113.573253 
L 128.639378 113.591063 
L 132.447642 113.822164 
L 136.573262 114.301296 
L 140.698882 115.005614 
L 145.141857 116.000959 
L 149.584832 117.225989 
L 154.345163 118.774858 
L 159.422849 120.674332 
L 164.81789 122.945591 
L 170.530287 125.602788 
L 176.560039 128.651549 
L 183.541857 132.441924 
L 191.475741 137.011276 
L 201.948468 143.317971 
L 226.067477 157.932824 
L 234.001361 162.432429 
L 240.983179 166.1399 
L 247.012931 169.100841 
L 252.725328 171.660977 
L 258.120369 173.828176 
L 263.198055 175.618721 
L 267.958386 177.055787 
L 272.401361 178.168015 
L 276.844336 179.042396 
L 280.969956 179.627082 
L 285.095576 179.979546 
L 288.90384 180.087476 
L 292.712105 179.976119 
L 296.520369 179.635196 
L 300.328634 179.054428 
L 303.819543 178.302579 
L 307.310452 177.33264 
L 310.801361 176.136691 
L 314.29227 174.706816 
L 317.783179 173.035096 
L 321.274088 171.113616 
L 324.764997 168.934455 
L 328.255907 166.489699 
L 331.746816 163.771426 
L 335.237725 160.771724 
L 338.728634 157.482672 
L 342.219543 153.896353 
L 345.710452 150.00485 
L 349.201361 145.800245 
L 353.009626 140.847008 
L 356.81789 135.501453 
L 360.626154 129.753299 
L 364.434419 123.59227 
L 368.242683 117.008084 
L 369.82946 114.137338 
L 369.82946 114.137338 
" clip-path="url(#p2599938e71)" style="fill: none; stroke: #1f77b4; stroke-width: 1.5; stroke-linecap: square"/>
   </g>
   <g id="line2d_16">
    <path d="M 45.174915 180.087476 
L 47.396402 183.099464 
L 49.61789 185.777381 
L 51.839378 188.135183 
L 54.060865 190.186588 
L 56.282353 191.945097 
L 58.50384 193.42399 
L 60.725328 194.636323 
L 62.946816 195.594928 
L 65.168303 196.31241 
L 67.389791 196.801163 
L 69.611278 197.07334 
L 71.832766 197.140884 
L 74.371609 196.982526 
L 76.910452 196.589319 
L 79.449295 195.978014 
L 82.305493 195.04997 
L 85.161692 193.889336 
L 88.335245 192.353842 
L 91.826154 190.399811 
L 95.634419 187.994702 
L 99.760039 185.120566 
L 104.520369 181.530459 
L 110.550121 176.687455 
L 121.657559 167.399442 
L 130.226154 160.376986 
L 136.255907 155.726289 
L 141.333592 152.089572 
L 145.776568 149.166362 
L 149.902187 146.700777 
L 154.027807 144.500925 
L 157.836072 142.725886 
L 161.326981 141.328355 
L 164.81789 140.161617 
L 168.308799 139.235133 
L 171.482353 138.608207 
L 174.655907 138.191664 
L 177.82946 137.989687 
L 181.003014 138.005529 
L 184.176568 138.241513 
L 187.350121 138.699035 
L 190.523675 139.378558 
L 193.697229 140.279619 
L 196.870783 141.400822 
L 200.361692 142.885609 
L 203.852601 144.629546 
L 207.34351 146.62688 
L 210.834419 148.870498 
L 214.642683 151.588972 
L 218.450948 154.577585 
L 222.576568 158.102909 
L 227.019543 162.210002 
L 231.779873 166.934349 
L 236.857559 172.296972 
L 242.569956 178.659759 
L 249.551774 186.783669 
L 273.036072 214.415586 
L 278.113758 219.873712 
L 282.556733 224.32102 
L 286.364997 227.829648 
L 289.855907 230.755644 
L 293.02946 233.140694 
L 295.885659 235.037329 
L 298.741857 236.673505 
L 301.2807 237.890261 
L 303.819543 238.865791 
L 306.358386 239.582813 
L 308.579873 239.984292 
L 310.801361 240.162273 
L 313.022849 240.104469 
L 315.244336 239.798365 
L 317.148468 239.328723 
L 319.052601 238.659146 
L 320.956733 237.781371 
L 322.860865 236.687004 
L 324.764997 235.367537 
L 326.986485 233.532133 
L 329.207973 231.364664 
L 331.42946 228.85099 
L 333.650948 225.976763 
L 335.872435 222.727381 
L 338.093923 219.088043 
L 340.315411 215.043713 
L 342.536898 210.579149 
L 345.075741 204.942337 
L 347.614584 198.71295 
L 350.153427 191.867147 
L 352.69227 184.38071 
L 355.231113 176.229028 
L 357.769956 167.387122 
L 360.626154 156.583348 
L 363.482353 144.837203 
L 366.338551 132.11139 
L 369.194749 118.367995 
L 369.82946 115.171854 
L 369.82946 115.171854 
" clip-path="url(#p2599938e71)" style="fill: none; stroke: #ff7f0e; stroke-width: 1.5; stroke-linecap: square"/>
   </g>
   <g id="line2d_17">
    <path d="M 45.174915 213.354167 
L 47.396402 205.605715 
L 49.61789 198.696719 
L 51.839378 192.57303 
L 53.74351 187.909559 
L 55.647642 183.752904 
L 57.551774 180.072327 
L 59.455907 176.8381 
L 61.360039 174.021492 
L 63.264171 171.594738 
L 65.168303 169.53105 
L 67.072435 167.804587 
L 68.976568 166.390437 
L 70.8807 165.264617 
L 72.784832 164.404047 
L 74.688964 163.786546 
L 76.593097 163.390805 
L 78.497229 163.196387 
L 80.718716 163.197931 
L 82.940204 163.417201 
L 85.479047 163.898363 
L 88.335245 164.686456 
L 91.508799 165.807033 
L 95.317064 167.40169 
L 100.712105 169.937082 
L 111.502187 175.076003 
L 115.945163 176.92798 
L 119.753427 178.296747 
L 123.244336 179.338352 
L 126.735245 180.151431 
L 129.908799 180.676934 
L 133.082353 180.988804 
L 136.255907 181.080844 
L 139.42946 180.950186 
L 142.603014 180.59712 
L 145.776568 180.024899 
L 148.950121 179.239586 
L 152.44103 178.140031 
L 155.93194 176.808075 
L 159.740204 175.111429 
L 163.865824 173.017889 
L 168.308799 170.511141 
L 173.70384 167.194849 
L 181.003014 162.419771 
L 192.427807 154.942076 
L 197.505493 151.885205 
L 201.948468 149.465275 
L 205.756733 147.63616 
L 209.247642 146.196919 
L 212.421196 145.113166 
L 215.594749 144.266901 
L 218.450948 143.726152 
L 221.307146 143.409997 
L 224.163345 143.332182 
L 226.702187 143.473329 
L 229.24103 143.820835 
L 231.779873 144.381928 
L 234.318716 145.162941 
L 236.857559 146.169277 
L 239.396402 147.405318 
L 241.935245 148.874389 
L 244.474088 150.578691 
L 247.330287 152.778418 
L 250.186485 155.276673 
L 253.042683 158.070913 
L 255.898882 161.156388 
L 259.072435 164.917609 
L 262.245989 169.016422 
L 265.736898 173.894538 
L 269.545163 179.624832 
L 273.670783 186.262338 
L 278.431113 194.386207 
L 284.14351 204.614973 
L 300.328634 233.903243 
L 304.136898 240.199297 
L 307.310452 245.063321 
L 310.16665 249.06299 
L 312.705493 252.257923 
L 314.926981 254.731924 
L 317.148468 256.866723 
L 319.052601 258.397031 
L 320.956733 259.623883 
L 322.54351 260.395338 
L 324.130287 260.921785 
L 325.717064 261.186892 
L 326.986485 261.199519 
L 328.255907 261.025313 
L 329.525328 260.655242 
L 330.794749 260.080081 
L 332.064171 259.2904 
L 333.333592 258.276569 
L 334.920369 256.679043 
L 336.507146 254.696233 
L 338.093923 252.307923 
L 339.6807 249.493419 
L 341.267477 246.231489 
L 342.854254 242.500377 
L 344.758386 237.372293 
L 346.662518 231.496889 
L 348.56665 224.833468 
L 350.470783 217.340185 
L 352.374915 208.974041 
L 354.279047 199.690832 
L 356.500535 187.640752 
L 358.722022 174.206488 
L 360.94351 159.311623 
L 363.164997 142.877451 
L 365.386485 124.822929 
L 367.607973 105.064661 
L 369.82946 83.516859 
L 369.82946 83.516859 
" clip-path="url(#p2599938e71)" style="fill: none; stroke: #2ca02c; stroke-width: 1.5; stroke-linecap: square"/>
   </g>
   <g id="line2d_18">
    <path d="M 45.174915 146.820786 
L 46.761692 152.240932 
L 48.348468 156.846406 
L 49.935245 160.695821 
L 51.204667 163.268787 
L 52.474088 165.421454 
L 53.74351 167.180464 
L 55.012931 168.571492 
L 56.282353 169.619295 
L 57.551774 170.347689 
L 58.821196 170.779607 
L 60.090617 170.937099 
L 61.360039 170.841355 
L 62.62946 170.512717 
L 63.898882 169.970712 
L 65.485659 169.021591 
L 67.072435 167.803092 
L 68.976568 166.031593 
L 71.198055 163.605617 
L 73.736898 160.45521 
L 76.910452 156.106011 
L 81.353427 149.577326 
L 89.604667 137.384999 
L 93.412931 132.188988 
L 96.586485 128.220541 
L 99.442683 124.985663 
L 101.981526 122.407517 
L 104.520369 120.128353 
L 107.059212 118.161109 
L 109.2807 116.702088 
L 111.502187 115.490675 
L 113.723675 114.526982 
L 115.945163 113.808871 
L 118.16665 113.332131 
L 120.388138 113.090664 
L 122.609626 113.076649 
L 124.831113 113.280716 
L 127.052601 113.692117 
L 129.591444 114.400746 
L 132.130287 115.344905 
L 134.986485 116.662267 
L 137.842683 118.218992 
L 141.016237 120.188616 
L 144.824502 122.820612 
L 149.584832 126.401279 
L 166.722022 139.583502 
L 170.530287 142.110164 
L 174.021196 144.176567 
L 177.194749 145.813625 
L 180.368303 147.194682 
L 183.224502 148.201596 
L 186.0807 148.972519 
L 188.936898 149.498736 
L 191.793097 149.774742 
L 194.33194 149.808141 
L 196.870783 149.642632 
L 199.726981 149.222079 
L 202.583179 148.560124 
L 205.439378 147.666926 
L 208.612931 146.419629 
L 211.786485 144.926256 
L 215.277394 143.03219 
L 219.085659 140.714507 
L 223.845989 137.543501 
L 240.665824 126.047765 
L 244.156733 124.07103 
L 247.330287 122.534685 
L 250.186485 121.410574 
L 252.725328 120.649676 
L 254.946816 120.18974 
L 257.168303 119.940028 
L 259.389791 119.917122 
L 261.611278 120.136804 
L 263.515411 120.529448 
L 265.419543 121.119928 
L 267.323675 121.916276 
L 269.227807 122.92578 
L 271.13194 124.154925 
L 273.353427 125.873922 
L 275.574915 127.906622 
L 277.796402 130.258227 
L 280.01789 132.931801 
L 282.239378 135.928051 
L 284.778221 139.74499 
L 287.317064 143.973805 
L 290.173262 149.208183 
L 293.02946 154.922689 
L 296.203014 161.792234 
L 299.693923 169.907274 
L 303.819543 180.106658 
L 309.53194 194.900566 
L 316.831113 213.741996 
L 320.322022 222.148317 
L 323.178221 228.453611 
L 325.399708 232.873858 
L 327.30384 236.246217 
L 329.207973 239.16586 
L 330.794749 241.203364 
L 332.064171 242.544175 
L 333.333592 243.603476 
L 334.603014 244.357712 
L 335.55508 244.708526 
L 336.507146 244.863347 
L 337.459212 244.811198 
L 338.411278 244.54084 
L 339.363345 244.040663 
L 340.315411 243.298776 
L 341.267477 242.302973 
L 342.219543 241.040707 
L 343.488964 238.92089 
L 344.758386 236.272993 
L 346.027807 233.064513 
L 347.297229 229.261837 
L 348.56665 224.830224 
L 350.153427 218.35151 
L 351.740204 210.761337 
L 353.326981 201.984192 
L 354.913758 191.941576 
L 356.500535 180.551982 
L 358.087311 167.7308 
L 359.991444 150.331857 
L 361.895576 130.586997 
L 363.799708 108.3315 
L 365.70384 83.393578 
L 367.607973 55.594229 
L 369.512105 24.747035 
L 369.82946 19.296 
L 369.82946 19.296 
" clip-path="url(#p2599938e71)" style="fill: none; stroke: #d62728; stroke-width: 1.5; stroke-linecap: square"/>
   </g>
   <g id="patch_3">
    <path d="M 28.942188 273.312 
L 28.942188 7.2 
" style="fill: none; stroke: #000000; stroke-width: 0.8; stroke-linejoin: miter; stroke-linecap: square"/>
   </g>
   <g id="patch_4">
    <path d="M 386.062188 273.312 
L 386.062188 7.2 
" style="fill: none; stroke: #000000; stroke-width: 0.8; stroke-linejoin: miter; stroke-linecap: square"/>
   </g>
   <g id="patch_5">
    <path d="M 28.942188 273.312 
L 386.062187 273.312 
" style="fill: none; stroke: #000000; stroke-width: 0.8; stroke-linejoin: miter; stroke-linecap: square"/>
   </g>
   <g id="patch_6">
    <path d="M 28.942188 7.2 
L 386.062187 7.2 
" style="fill: none; stroke: #000000; stroke-width: 0.8; stroke-linejoin: miter; stroke-linecap: square"/>
   </g>
   <g id="legend_1">
    <g id="patch_7">
     <path d="M 35.942188 73.9125 
L 74.304688 73.9125 
Q 76.304688 73.9125 76.304688 71.9125 
L 76.304688 14.2 
Q 76.304688 12.2 74.304688 12.2 
L 35.942188 12.2 
Q 33.942188 12.2 33.942188 14.2 
L 33.942188 71.9125 
Q 33.942188 73.9125 35.942188 73.9125 
z
" style="fill: #ffffff; opacity: 0.8; stroke: #cccccc; stroke-linejoin: miter"/>
    </g>
    <g id="line2d_19">
     <path d="M 37.942188 20.298437 
L 47.942188 20.298437 
L 57.942188 20.298437 
" style="fill: none; stroke: #1f77b4; stroke-width: 1.5; stroke-linecap: square"/>
    </g>
    <g id="text_15">
     <!-- 0 -->
     <g transform="translate(65.942188 23.798437) scale(0.1 -0.1)">
      <use xlink:href="#DejaVuSans-30"/>
     </g>
    </g>
    <g id="line2d_20">
     <path d="M 37.942188 34.976562 
L 47.942188 34.976562 
L 57.942188 34.976562 
" style="fill: none; stroke: #ff7f0e; stroke-width: 1.5; stroke-linecap: square"/>
    </g>
    <g id="text_16">
     <!-- 1 -->
     <g transform="translate(65.942188 38.476562) scale(0.1 -0.1)">
      <use xlink:href="#DejaVuSans-31"/>
     </g>
    </g>
    <g id="line2d_21">
     <path d="M 37.942188 49.654687 
L 47.942188 49.654687 
L 57.942188 49.654687 
" style="fill: none; stroke: #2ca02c; stroke-width: 1.5; stroke-linecap: square"/>
    </g>
    <g id="text_17">
     <!-- 2 -->
     <g transform="translate(65.942188 53.154687) scale(0.1 -0.1)">
      <use xlink:href="#DejaVuSans-32"/>
     </g>
    </g>
    <g id="line2d_22">
     <path d="M 37.942188 64.332812 
L 47.942188 64.332812 
L 57.942188 64.332812 
" style="fill: none; stroke: #d62728; stroke-width: 1.5; stroke-linecap: square"/>
    </g>
    <g id="text_18">
     <!-- 3 -->
     <g transform="translate(65.942188 67.832812) scale(0.1 -0.1)">
      <use xlink:href="#DejaVuSans-33"/>
     </g>
    </g>
   </g>
  </g>
 </g>
 <defs>
  <clipPath id="p2599938e71">
   <rect x="28.942188" y="7.2" width="357.12" height="266.112"/>
  </clipPath>
 </defs>
</svg>
