<?xml version="1.0" encoding="utf-8" standalone="no"?>
<!DOCTYPE svg PUBLIC "-//W3C//DTD SVG 1.1//EN"
  "http://www.w3.org/Graphics/SVG/1.1/DTD/svg11.dtd">
<svg xmlns:xlink="http://www.w3.org/1999/xlink" width="393.262187pt" height="297.190125pt" viewBox="0 0 393.262187 297.190125" xmlns="http://www.w3.org/2000/svg" version="1.1">
 <metadata>
  <rdf:RDF xmlns:dc="http://purl.org/dc/elements/1.1/" xmlns:cc="http://creativecommons.org/ns#" xmlns:rdf="http://www.w3.org/1999/02/22-rdf-syntax-ns#">
   <cc:Work>
    <dc:type rdf:resource="http://purl.org/dc/dcmitype/StillImage"/>
    <dc:date>2023-08-22T14:10:19.169475</dc:date>
    <dc:format>image/svg+xml</dc:format>
    <dc:creator>
     <cc:Agent>
      <dc:title>Matplotlib v3.7.2, https://matplotlib.org/</dc:title>
     </cc:Agent>
    </dc:creator>
   </cc:Work>
  </rdf:RDF>
 </metadata>
 <defs>
  <style type="text/css">*{stroke-linejoin: round; stroke-linecap: butt}</style>
 </defs>
 <g id="figure_1">
  <g id="patch_1">
   <path d="M 0 297.190125 
L 393.262187 297.190125 
L 393.262187 0 
L 0 0 
z
" style="fill: #ffffff"/>
  </g>
  <g id="axes_1">
   <g id="patch_2">
    <path d="M 28.942188 273.312 
L 386.062188 273.312 
L 386.062188 7.2 
L 28.942188 7.2 
z
" style="fill: #ffffff"/>
   </g>
   <g id="matplotlib.axis_1">
    <g id="xtick_1">
     <g id="line2d_1">
      <defs>
       <path id="m77354bd158" d="M 0 0 
L 0 3.5 
" style="stroke: #000000; stroke-width: 0.8"/>
      </defs>
      <g>
       <use xlink:href="#m77354bd158" x="45.174915" y="273.312" style="stroke: #000000; stroke-width: 0.8"/>
      </g>
     </g>
     <g id="text_1">
      <!-- 0 -->
      <g transform="translate(41.993665 287.910437) scale(0.1 -0.1)">
       <defs>
        <path id="DejaVuSans-30" d="M 2034 4250 
Q 1547 4250 1301 3770 
Q 1056 3291 1056 2328 
Q 1056 1369 1301 889 
Q 1547 409 2034 409 
Q 2525 409 2770 889 
Q 3016 1369 3016 2328 
Q 3016 3291 2770 3770 
Q 2525 4250 2034 4250 
z
M 2034 4750 
Q 2819 4750 3233 4129 
Q 3647 3509 3647 2328 
Q 3647 1150 3233 529 
Q 2819 -91 2034 -91 
Q 1250 -91 836 529 
Q 422 1150 422 2328 
Q 422 3509 836 4129 
Q 1250 4750 2034 4750 
z
" transform="scale(0.015625)"/>
       </defs>
       <use xlink:href="#DejaVuSans-30"/>
      </g>
     </g>
    </g>
    <g id="xtick_2">
     <g id="line2d_2">
      <g>
       <use xlink:href="#m77354bd158" x="110.235946" y="273.312" style="stroke: #000000; stroke-width: 0.8"/>
      </g>
     </g>
     <g id="text_2">
      <!-- 100 -->
      <g transform="translate(100.692196 287.910437) scale(0.1 -0.1)">
       <defs>
        <path id="DejaVuSans-31" d="M 794 531 
L 1825 531 
L 1825 4091 
L 703 3866 
L 703 4441 
L 1819 4666 
L 2450 4666 
L 2450 531 
L 3481 531 
L 3481 0 
L 794 0 
L 794 531 
z
" transform="scale(0.015625)"/>
       </defs>
       <use xlink:href="#DejaVuSans-31"/>
       <use xlink:href="#DejaVuSans-30" x="63.623047"/>
       <use xlink:href="#DejaVuSans-30" x="127.246094"/>
      </g>
     </g>
    </g>
    <g id="xtick_3">
     <g id="line2d_3">
      <g>
       <use xlink:href="#m77354bd158" x="175.296977" y="273.312" style="stroke: #000000; stroke-width: 0.8"/>
      </g>
     </g>
     <g id="text_3">
      <!-- 200 -->
      <g transform="translate(165.753227 287.910437) scale(0.1 -0.1)">
       <defs>
        <path id="DejaVuSans-32" d="M 1228 531 
L 3431 531 
L 3431 0 
L 469 0 
L 469 531 
Q 828 903 1448 1529 
Q 2069 2156 2228 2338 
Q 2531 2678 2651 2914 
Q 2772 3150 2772 3378 
Q 2772 3750 2511 3984 
Q 2250 4219 1831 4219 
Q 1534 4219 1204 4116 
Q 875 4013 500 3803 
L 500 4441 
Q 881 4594 1212 4672 
Q 1544 4750 1819 4750 
Q 2544 4750 2975 4387 
Q 3406 4025 3406 3419 
Q 3406 3131 3298 2873 
Q 3191 2616 2906 2266 
Q 2828 2175 2409 1742 
Q 1991 1309 1228 531 
z
" transform="scale(0.015625)"/>
       </defs>
       <use xlink:href="#DejaVuSans-32"/>
       <use xlink:href="#DejaVuSans-30" x="63.623047"/>
       <use xlink:href="#DejaVuSans-30" x="127.246094"/>
      </g>
     </g>
    </g>
    <g id="xtick_4">
     <g id="line2d_4">
      <g>
       <use xlink:href="#m77354bd158" x="240.358008" y="273.312" style="stroke: #000000; stroke-width: 0.8"/>
      </g>
     </g>
     <g id="text_4">
      <!-- 300 -->
      <g transform="translate(230.814258 287.910437) scale(0.1 -0.1)">
       <defs>
        <path id="DejaVuSans-33" d="M 2597 2516 
Q 3050 2419 3304 2112 
Q 3559 1806 3559 1356 
Q 3559 666 3084 287 
Q 2609 -91 1734 -91 
Q 1441 -91 1130 -33 
Q 819 25 488 141 
L 488 750 
Q 750 597 1062 519 
Q 1375 441 1716 441 
Q 2309 441 2620 675 
Q 2931 909 2931 1356 
Q 2931 1769 2642 2001 
Q 2353 2234 1838 2234 
L 1294 2234 
L 1294 2753 
L 1863 2753 
Q 2328 2753 2575 2939 
Q 2822 3125 2822 3475 
Q 2822 3834 2567 4026 
Q 2313 4219 1838 4219 
Q 1578 4219 1281 4162 
Q 984 4106 628 3988 
L 628 4550 
Q 988 4650 1302 4700 
Q 1616 4750 1894 4750 
Q 2613 4750 3031 4423 
Q 3450 4097 3450 3541 
Q 3450 3153 3228 2886 
Q 3006 2619 2597 2516 
z
" transform="scale(0.015625)"/>
       </defs>
       <use xlink:href="#DejaVuSans-33"/>
       <use xlink:href="#DejaVuSans-30" x="63.623047"/>
       <use xlink:href="#DejaVuSans-30" x="127.246094"/>
      </g>
     </g>
    </g>
    <g id="xtick_5">
     <g id="line2d_5">
      <g>
       <use xlink:href="#m77354bd158" x="305.419039" y="273.312" style="stroke: #000000; stroke-width: 0.8"/>
      </g>
     </g>
     <g id="text_5">
      <!-- 400 -->
      <g transform="translate(295.875289 287.910437) scale(0.1 -0.1)">
       <defs>
        <path id="DejaVuSans-34" d="M 2419 4116 
L 825 1625 
L 2419 1625 
L 2419 4116 
z
M 2253 4666 
L 3047 4666 
L 3047 1625 
L 3713 1625 
L 3713 1100 
L 3047 1100 
L 3047 0 
L 2419 0 
L 2419 1100 
L 313 1100 
L 313 1709 
L 2253 4666 
z
" transform="scale(0.015625)"/>
       </defs>
       <use xlink:href="#DejaVuSans-34"/>
       <use xlink:href="#DejaVuSans-30" x="63.623047"/>
       <use xlink:href="#DejaVuSans-30" x="127.246094"/>
      </g>
     </g>
    </g>
    <g id="xtick_6">
     <g id="line2d_6">
      <g>
       <use xlink:href="#m77354bd158" x="370.480071" y="273.312" style="stroke: #000000; stroke-width: 0.8"/>
      </g>
     </g>
     <g id="text_6">
      <!-- 500 -->
      <g transform="translate(360.936321 287.910437) scale(0.1 -0.1)">
       <defs>
        <path id="DejaVuSans-35" d="M 691 4666 
L 3169 4666 
L 3169 4134 
L 1269 4134 
L 1269 2991 
Q 1406 3038 1543 3061 
Q 1681 3084 1819 3084 
Q 2600 3084 3056 2656 
Q 3513 2228 3513 1497 
Q 3513 744 3044 326 
Q 2575 -91 1722 -91 
Q 1428 -91 1123 -41 
Q 819 9 494 109 
L 494 744 
Q 775 591 1075 516 
Q 1375 441 1709 441 
Q 2250 441 2565 725 
Q 2881 1009 2881 1497 
Q 2881 1984 2565 2268 
Q 2250 2553 1709 2553 
Q 1456 2553 1204 2497 
Q 953 2441 691 2322 
L 691 4666 
z
" transform="scale(0.015625)"/>
       </defs>
       <use xlink:href="#DejaVuSans-35"/>
       <use xlink:href="#DejaVuSans-30" x="63.623047"/>
       <use xlink:href="#DejaVuSans-30" x="127.246094"/>
      </g>
     </g>
    </g>
   </g>
   <g id="matplotlib.axis_2">
    <g id="ytick_1">
     <g id="line2d_7">
      <defs>
       <path id="m6d235887f3" d="M 0 0 
L -3.5 0 
" style="stroke: #000000; stroke-width: 0.8"/>
      </defs>
      <g>
       <use xlink:href="#m6d235887f3" x="28.942188" y="229.253834" style="stroke: #000000; stroke-width: 0.8"/>
      </g>
     </g>
     <g id="text_7">
      <!-- −2 -->
      <g transform="translate(7.2 233.053053) scale(0.1 -0.1)">
       <defs>
        <path id="DejaVuSans-2212" d="M 678 2272 
L 4684 2272 
L 4684 1741 
L 678 1741 
L 678 2272 
z
" transform="scale(0.015625)"/>
       </defs>
       <use xlink:href="#DejaVuSans-2212"/>
       <use xlink:href="#DejaVuSans-32" x="83.789062"/>
      </g>
     </g>
    </g>
    <g id="ytick_2">
     <g id="line2d_8">
      <g>
       <use xlink:href="#m6d235887f3" x="28.942188" y="184.754917" style="stroke: #000000; stroke-width: 0.8"/>
      </g>
     </g>
     <g id="text_8">
      <!-- −1 -->
      <g transform="translate(7.2 188.554136) scale(0.1 -0.1)">
       <use xlink:href="#DejaVuSans-2212"/>
       <use xlink:href="#DejaVuSans-31" x="83.789062"/>
      </g>
     </g>
    </g>
    <g id="ytick_3">
     <g id="line2d_9">
      <g>
       <use xlink:href="#m6d235887f3" x="28.942188" y="140.256" style="stroke: #000000; stroke-width: 0.8"/>
      </g>
     </g>
     <g id="text_9">
      <!-- 0 -->
      <g transform="translate(15.579688 144.055219) scale(0.1 -0.1)">
       <use xlink:href="#DejaVuSans-30"/>
      </g>
     </g>
    </g>
    <g id="ytick_4">
     <g id="line2d_10">
      <g>
       <use xlink:href="#m6d235887f3" x="28.942188" y="95.757083" style="stroke: #000000; stroke-width: 0.8"/>
      </g>
     </g>
     <g id="text_10">
      <!-- 1 -->
      <g transform="translate(15.579688 99.556302) scale(0.1 -0.1)">
       <use xlink:href="#DejaVuSans-31"/>
      </g>
     </g>
    </g>
    <g id="ytick_5">
     <g id="line2d_11">
      <g>
       <use xlink:href="#m6d235887f3" x="28.942188" y="51.258166" style="stroke: #000000; stroke-width: 0.8"/>
      </g>
     </g>
     <g id="text_11">
      <!-- 2 -->
      <g transform="translate(15.579688 55.057385) scale(0.1 -0.1)">
       <use xlink:href="#DejaVuSans-32"/>
      </g>
     </g>
    </g>
   </g>
   <g id="line2d_12">
    <path d="M 45.174915 140.256 
L 49.078577 110.578854 
L 51.030408 97.302255 
L 52.982239 85.801989 
L 54.283459 79.342008 
L 55.58468 73.967912 
L 56.8859 69.75395 
L 57.536511 68.097796 
L 58.187121 66.747144 
L 58.837731 65.703532 
L 59.488342 64.966791 
L 60.138952 64.535027 
L 60.789562 64.404722 
L 61.440173 64.570738 
L 62.090783 65.026378 
L 62.741393 65.763485 
L 63.392003 66.772495 
L 64.042614 68.042526 
L 65.343834 71.316185 
L 66.645055 75.474978 
L 67.946276 80.395147 
L 69.898107 88.907086 
L 72.500548 101.621146 
L 77.70543 127.559704 
L 79.657261 136.20762 
L 81.609092 143.773098 
L 82.910313 148.107236 
L 84.211533 151.819811 
L 85.512754 154.880492 
L 86.813975 157.271934 
L 88.115195 158.988353 
L 88.765806 159.594394 
L 89.416416 160.033931 
L 90.067026 160.308764 
L 90.717637 160.421097 
L 91.368247 160.373499 
L 92.018857 160.168835 
L 92.669468 159.810236 
L 93.320078 159.301039 
L 94.621298 157.845053 
L 95.922519 155.83043 
L 97.22374 153.288006 
L 98.52496 150.249272 
L 99.826181 146.746085 
L 101.778012 140.69135 
L 103.729843 133.777681 
L 105.681674 126.128067 
L 108.284115 115.029691 
L 117.392659 74.768675 
L 119.34449 67.699504 
L 120.645711 63.692611 
L 121.946932 60.377751 
L 123.248152 57.861575 
L 123.898762 56.934926 
L 124.549373 56.245322 
L 125.199983 55.804073 
L 125.850593 55.621735 
L 126.501204 55.708059 
L 127.151814 56.071864 
L 127.802424 56.720956 
L 128.453035 57.662039 
L 129.103645 58.900619 
L 129.754255 60.440951 
L 131.055476 64.437108 
L 132.356697 69.65663 
L 133.657917 76.081643 
L 134.959138 83.669209 
L 136.260358 92.35095 
L 138.212189 107.214098 
L 140.16402 123.9083 
L 142.766462 148.102742 
L 148.621954 203.288253 
L 150.573785 219.539732 
L 152.525616 233.68855 
L 153.826837 241.702602 
L 155.128057 248.439912 
L 156.429278 253.808465 
L 157.730499 257.744774 
L 158.381109 259.164116 
L 159.031719 260.215133 
L 159.68233 260.898302 
L 160.33294 261.216 
L 160.98355 261.172438 
L 161.634161 260.7736 
L 162.284771 260.027178 
L 162.935381 258.942571 
L 163.585991 257.53073 
L 164.887212 253.776583 
L 166.188433 248.880477 
L 167.489653 242.976978 
L 169.441484 232.562684 
L 171.393315 220.765114 
L 175.296977 195.273284 
L 178.550029 174.600404 
L 180.50186 163.361213 
L 182.453691 153.389763 
L 184.405521 144.896703 
L 185.706742 140.116399 
L 187.007963 136.057541 
L 188.309183 132.715577 
L 189.610404 130.07173 
L 190.911625 128.095137 
L 192.212845 126.745156 
L 192.863455 126.290355 
L 193.514066 125.973736 
L 194.164676 125.788511 
L 194.815286 125.727708 
L 196.116507 125.950929 
L 197.417728 126.586242 
L 198.718948 127.577067 
L 200.020169 128.868698 
L 201.972 131.25746 
L 203.923831 134.045748 
L 207.176882 139.194292 
L 211.731155 146.466252 
L 213.682985 149.25454 
L 215.634816 151.643302 
L 216.936037 152.934933 
L 218.237258 153.925758 
L 219.538478 154.561071 
L 220.839699 154.784292 
L 221.490309 154.723489 
L 222.14092 154.538264 
L 222.79153 154.221645 
L 223.44214 153.766844 
L 224.743361 152.416863 
L 226.044581 150.44027 
L 227.345802 147.796423 
L 228.647023 144.454459 
L 229.948243 140.395601 
L 231.249464 135.615297 
L 232.550684 130.125121 
L 234.502515 120.627882 
L 236.454346 109.781825 
L 239.056788 93.71209 
L 246.213501 47.949316 
L 248.165332 37.535022 
L 249.466553 31.631523 
L 250.767773 26.735417 
L 252.068994 22.98127 
L 252.719604 21.569429 
L 253.370214 20.484822 
L 254.020825 19.7384 
L 254.671435 19.339562 
L 255.322045 19.296 
L 255.972656 19.613698 
L 256.623266 20.296867 
L 257.273876 21.347884 
L 257.924487 22.767226 
L 258.575097 24.553536 
L 259.876318 29.212057 
L 261.177538 35.274749 
L 262.478759 42.663654 
L 263.779979 51.273136 
L 265.73181 66.183351 
L 267.683641 83.008096 
L 270.936693 113.608383 
L 275.490965 156.6037 
L 277.442796 173.297902 
L 279.394627 188.16105 
L 280.695848 196.842791 
L 281.997068 204.430357 
L 283.298289 210.85537 
L 284.599509 216.074892 
L 285.90073 220.071049 
L 286.55134 221.611381 
L 287.201951 222.849961 
L 287.852561 223.791044 
L 288.503171 224.440136 
L 289.153782 224.803941 
L 289.804392 224.890265 
L 290.455002 224.707927 
L 291.105613 224.266678 
L 291.756223 223.577074 
L 292.406833 222.650425 
L 293.708054 220.134249 
L 295.009274 216.819389 
L 296.310495 212.812496 
L 298.262326 205.743325 
L 300.214157 197.727326 
L 303.467208 183.19129 
L 308.672091 159.824238 
L 311.274532 149.20891 
L 313.226363 142.035576 
L 315.178194 135.681604 
L 317.130025 130.262728 
L 318.431246 127.223994 
L 319.732466 124.68157 
L 321.033687 122.666947 
L 322.334907 121.210961 
L 322.985518 120.701764 
L 323.636128 120.343165 
L 324.286738 120.138501 
L 324.937349 120.090903 
L 325.587959 120.203236 
L 326.238569 120.478069 
L 326.88918 120.917606 
L 327.53979 121.523647 
L 328.841011 123.240066 
L 330.142231 125.631508 
L 331.443452 128.692189 
L 332.744672 132.404764 
L 334.045893 136.738902 
L 335.997724 144.30438 
L 337.949555 152.952296 
L 340.551996 165.657643 
L 345.756879 191.604914 
L 347.70871 200.116853 
L 349.00993 205.037022 
L 350.311151 209.195815 
L 351.612372 212.469474 
L 352.262982 213.739505 
L 352.913592 214.748515 
L 353.564202 215.485622 
L 354.214813 215.941262 
L 354.865423 216.107278 
L 355.516033 215.976973 
L 356.166644 215.545209 
L 356.817254 214.808468 
L 357.467864 213.764856 
L 358.118475 212.414204 
L 359.419695 208.799672 
L 360.720916 203.998041 
L 362.022136 198.070067 
L 363.323357 191.10316 
L 365.275188 178.956982 
L 367.227019 165.202853 
L 369.82946 145.340627 
L 369.82946 145.340627 
" clip-path="url(#pe8129df956)" style="fill: none; stroke: #1f77b4; stroke-width: 1.5; stroke-linecap: square"/>
   </g>
   <g id="patch_3">
    <path d="M 28.942188 273.312 
L 28.942188 7.2 
" style="fill: none; stroke: #000000; stroke-width: 0.8; stroke-linejoin: miter; stroke-linecap: square"/>
   </g>
   <g id="patch_4">
    <path d="M 386.062188 273.312 
L 386.062188 7.2 
" style="fill: none; stroke: #000000; stroke-width: 0.8; stroke-linejoin: miter; stroke-linecap: square"/>
   </g>
   <g id="patch_5">
    <path d="M 28.942188 273.312 
L 386.062188 273.312 
" style="fill: none; stroke: #000000; stroke-width: 0.8; stroke-linejoin: miter; stroke-linecap: square"/>
   </g>
   <g id="patch_6">
    <path d="M 28.942188 7.2 
L 386.062188 7.2 
" style="fill: none; stroke: #000000; stroke-width: 0.8; stroke-linejoin: miter; stroke-linecap: square"/>
   </g>
  </g>
 </g>
 <defs>
  <clipPath id="pe8129df956">
   <rect x="28.942188" y="7.2" width="357.12" height="266.112"/>
  </clipPath>
 </defs>
</svg>
